<?xml version="1.0" encoding="utf-8"?>
<!-- Generator: Adobe Illustrator 24.0.2, SVG Export Plug-In . SVG Version: 6.00 Build 0)  -->
<svg version="1.1" id="Calque_1" xmlns="http://www.w3.org/2000/svg" xmlns:xlink="http://www.w3.org/1999/xlink" x="0px" y="0px"
	 viewBox="0 0 1783.7 1735.3" style="enable-background:new 0 0 1783.7 1735.3;" xml:space="preserve">
<style type="text/css">
	.st0{opacity:0.5;fill:none;stroke:#0000CC;stroke-width:4;stroke-linecap:round;}
</style>
<path class="st0" d="M1782.2,858.3l-875.6,875.6L1782.2,858.3z M871.8,1733.7l910.4-910.4L871.8,1733.7z M1780.9,894.6L943,1732.5
	L1780.9,894.6z M838.2,1732.4l942.6-942.6L838.2,1732.4L838.2,1732.4z M805.7,1729.8l972.6-972.6L805.7,1729.8z M1778,932.6
	l-797,797L1778,932.6z M774.3,1726.3L1774.7,725.9L774.3,1726.3z M1773.1,972.4l-752.3,752.3L1773.1,972.4z M743.8,1721.7
	L1770.1,695.4L743.8,1721.7L743.8,1721.7z M1765.9,1014.6l-703,703L1765.9,1014.6z M714.3,1716.3L1764.6,665.9L714.3,1716.3z
	 M685.6,1710L1758.3,637.2L685.6,1710L685.6,1710z M1756,1059.6l-648,648L1756,1059.6z M657.7,1702.9L1751.2,609.3L657.7,1702.9
	L657.7,1702.9z M630.5,1695L1743.4,582.2L630.5,1695z M1742.4,1108.1L1156.6,1694L1742.4,1108.1z M604.1,1686.4L1734.8,555.7
	L604.1,1686.4L604.1,1686.4z M578.3,1677.2L1725.6,530L578.3,1677.2L578.3,1677.2z M1723.8,1161.7l-513.7,513.7L1723.8,1161.7z
	 M553.2,1667.3L1715.7,504.9L553.2,1667.3z M528.7,1656.8L1705.2,480.4L528.7,1656.8L528.7,1656.8z M1697.8,1222.7l-426.7,426.7
	L1697.8,1222.7z M504.8,1645.7L1694,456.5L504.8,1645.7L504.8,1645.7z M481.5,1634L1682.3,433.2L481.5,1634L481.5,1634z
	 M458.8,1621.8L1670.1,410.4L458.8,1621.8L458.8,1621.8z M1658.2,1297.3l-312.5,312.5L1658.2,1297.3z M436.6,1609L1657.3,388.2
	L436.6,1609z M414.9,1595.6l1229-1229L414.9,1595.6z M393.8,1581.8L1630.1,345.4L393.8,1581.8L393.8,1581.8z M373.1,1567.4
	L1615.7,324.8L373.1,1567.4z M353,1552.5L1600.8,304.7L353,1552.5z M333.4,1537.1l1252.1-1252L333.4,1537.1z M1570.9,1419.6
	l-102.8,102.8L1570.9,1419.6z M314.3,1521.3L1569.6,265.9L314.3,1521.3z M295.6,1504.9L1553.2,247.3L295.6,1504.9z M277.4,1488.1
	l1259-1259L277.4,1488.1L277.4,1488.1z M259.8,1470.8L1519.1,211.5L259.8,1470.8L259.8,1470.8z M242.6,1452.9L1501.2,194.3
	L242.6,1452.9L242.6,1452.9z M225.9,1434.7L1483,177.6L225.9,1434.7L225.9,1434.7z M209.6,1415.9L1464.2,161.3L209.6,1415.9
	L209.6,1415.9z M193.9,1396.6l1251-1251L193.9,1396.6L193.9,1396.6z M178.7,1376.8L1425.1,130.4L178.7,1376.8L178.7,1376.8z
	 M163.9,1356.6l1241-1241L163.9,1356.6L163.9,1356.6z M149.7,1335.8L1384.1,101.4L149.7,1335.8z M136,1314.5L1362.8,87.7L136,1314.5
	L136,1314.5z M122.8,1292.7L1341,74.5L122.8,1292.7L122.8,1292.7z M110.1,1270.4L1318.7,61.9L110.1,1270.4L110.1,1270.4z M98,1247.5
	L1295.7,49.8L98,1247.5L98,1247.5z M86.5,1224L1272.3,38.2L86.5,1224L86.5,1224z M75.6,1200L1248.2,27.3L75.6,1200z M65.2,1175.3
	L1223.6,17L65.2,1175.3L65.2,1175.3z M55.5,1150L1198.3,7.2L55.5,1150L55.5,1150z M46.4,1124.1L1169.1,1.4L46.4,1124.1z
	 M38.1,1097.4l1096-1096L38.1,1097.4z M30.4,1070.1L1099.1,1.4L30.4,1070.1L30.4,1070.1z M23.5,1042L1064.1,1.4L23.5,1042L23.5,1042
	z M17.5,1013.1L1029.1,1.4L17.5,1013.1L17.5,1013.1z M12.3,983.3L994.1,1.4L12.3,983.3z M8,952.6L959.1,1.4L8,952.6L8,952.6z
	 M4.7,920.9L924.1,1.4L4.7,920.9L4.7,920.9z M2.4,888.1L889.1,1.4L2.4,888.1z M1.4,854.1L854.1,1.4L1.4,854.1z M1.7,818.8L819.1,1.4
	L1.7,818.8L1.7,818.8z M3.4,782.1L784.1,1.4L3.4,782.1z M6.9,743.6L749.1,1.4L6.9,743.6z M12.4,703.2L714.1,1.4L12.4,703.2
	L12.4,703.2z M20.2,660.3L679.1,1.4L20.2,660.3z M31.1,614.4l613-613L31.1,614.4z M45.9,564.6L609.1,1.4L45.9,564.6z M66.2,509.3
	L557.5,18L66.2,509.3L66.2,509.3z M95.1,445.4L493.6,46.9L95.1,445.4L95.1,445.4z M141.2,364.3L412.5,93L141.2,364.3z"/>
</svg>
