<svg xmlns="http://www.w3.org/2000/svg" xmlns:xlink="http://www.w3.org/1999/xlink" width="1300" height="700" viewBox="0 0 1300 700">
  <defs>
    <style>
      .cls-1 {
        clip-path: url(#clip-chiffre-4);
      }

      .cls-2 {
        fill: #6c129b;
      }

      .cls-3, .cls-4 {
        fill: #fff;
      }

      .cls-3 {
        font-size: 104px;
        font-family: FiraSans-ExtraBold, Fira Sans;
        font-weight: 800;
        letter-spacing: 0.03em;
      }

      .cls-4 {
        stroke: rgba(0,0,0,0);
        stroke-miterlimit: 10;
      }
    </style>
    <clipPath id="clip-chiffre-4">
      <rect width="1300" height="700"/>
    </clipPath>
  </defs>
  <g id="chiffre-4" class="cls-1">
    <rect id="Rectangle_372" data-name="Rectangle 372" class="cls-2" width="593" height="593" rx="296.5" transform="translate(215 76)"/>
    <text id="écoles_d_animation" data-name="écoles d&apos;animation" class="cls-3" transform="translate(299 644)"><tspan x="0" y="0">Écoles d&apos;animation</tspan></text>
    <path id="Soustraction_5" data-name="Soustraction 5" class="cls-4" d="M332.294,472.232v0c30.933-26.87,47.284-64.67,47.284-109.314,0-81.151-47.738-135.675-118.791-135.675A139.6,139.6,0,0,0,203.5,239.9V174.178h141.7l12.663-83.214H88.931V320.707h77.787A107.018,107.018,0,0,1,190.009,309.4a63.69,63.69,0,0,1,20.125-3.166,69.55,69.55,0,0,1,10.357.733,49.523,49.523,0,0,1,9.3,2.3,38.638,38.638,0,0,1,8.138,4.026,35.495,35.495,0,0,1,6.88,5.905,39.956,39.956,0,0,1,5.524,7.94,53.51,53.51,0,0,1,4.068,10.131,79.382,79.382,0,0,1,2.513,12.477,122.34,122.34,0,0,1,.86,14.978,84.081,84.081,0,0,1-3.759,26.212A49.692,49.692,0,0,1,243.073,409.8a45.638,45.638,0,0,1-17.609,11.4,68.984,68.984,0,0,1-23.771,3.825,87.477,87.477,0,0,1-22.273-2.827,84.471,84.471,0,0,1-19.786-8.027c-11.915-6.684-22.718-16.422-32.11-28.944l-45.69,41.5a244.986,244.986,0,0,1-59.747-80.792A242.975,242.975,0,0,1,5.725,297.106a246.584,246.584,0,0,1-.762-102.05A242.949,242.949,0,0,1,41.72,107.707,245.01,245.01,0,0,1,149.2,19.2,243.057,243.057,0,0,1,195.054,4.963a246.651,246.651,0,0,1,98.464,0,242.944,242.944,0,0,1,87.35,36.759A245.012,245.012,0,0,1,469.375,149.2a243.056,243.056,0,0,1,14.234,45.854,246.038,246.038,0,0,1-6.6,123.707A244.94,244.94,0,0,1,332.294,472.232Z" transform="translate(318.616 41.773)"/>
  </g>
</svg>
