<svg id="Calque_1" data-name="Calque 1" xmlns="http://www.w3.org/2000/svg" viewBox="0 0 1000 1000"><defs><style>.cls-1{fill:#fff;}</style></defs><title>LOGO-CCI-Sigle</title><path class="cls-1" d="M.1,500c0,275.76,224.31,500,500,500,131.3,0,234.76-49.45,307.41-106.15L702,776.07c-58,41.8-125.78,65.38-201.92,65.38C311.8,841.45,158.61,688.3,158.61,500S311.8,158.51,500.09,158.51A337.58,337.58,0,0,1,637,187.45L699.83,41.76A498.07,498.07,0,0,0,500.09,0C224.41,0,.1,224.31.1,500Z"/><path class="cls-1" d="M233.56,500c0,147,119.54,266.49,266.53,266.49,56.31,0,113.19-20.05,149.75-47.46,0,0-99-110.43-107.68-119.89-8.88,4.33-26.87,8.77-42.07,8.77A108.06,108.06,0,0,1,392.15,500c0-59.48,48.8-109.42,108.29-109.42a109.87,109.87,0,0,1,43.9,9.44l62.59-143.56c-31.81-13.44-67.11-22.89-106.84-22.89C353.1,233.54,233.56,353,233.56,500Z"/><path class="cls-1" d="M698.87,396.33c13.67,27.12,25.65,64.18,25.65,103.64,0,49.95-21.09,104.08-49.19,140.14L782.32,758C841.92,694.2,883,601.6,883,500c0-60.13-15-120.71-40.27-170.7Z"/><path class="cls-1" d="M654.43,337.27,925.9,210c-40.12-59-94.82-112.8-150.7-146.6l-121.61,273Z"/></svg>