<svg xmlns="http://www.w3.org/2000/svg" xmlns:xlink="http://www.w3.org/1999/xlink" width="1300" height="800" viewBox="0 0 1300 800">
  <defs>
    <style>
      .cls-1 {
        clip-path: url(#clip-motif-formes-1);
      }

      .cls-2 {
        fill: #00c;
      }
    </style>
    <clipPath id="clip-motif-formes-1">
      <rect width="1300" height="800"/>
    </clipPath>
  </defs>
  <g id="motif-formes-1" class="cls-1">
    <g id="Groupe_748" data-name="Groupe 748" transform="translate(-111.627 -112.271)">
      <path id="Tracé_2251" data-name="Tracé 2251" class="cls-2" d="M821.119,439.3,850.438,337.01c1.687-5.885-1.438-12-6.979-13.666L804.653,311.7c-5.54-1.662-12.788-7.036-16.186-12l-11.138-16.281c-3.4-4.968-10.777-9.663-16.48-10.488l-37.176-5.373c-5.7-.825-13.7-4.935-17.87-9.183L573.97,123.961c-4.166-4.248-12.208-7.69-17.962-7.69H537.773c-5.754,0-11.953,4.712-13.844,10.526l-16.6,51c-1.891,5.814-7.561,12.834-12.663,15.682L405.3,243.355c-5.1,2.847-13.347,2.793-18.417-.121l-69.169-39.77c-5.068-2.915-9.1-.288-9.006,5.867l1.219,79.024c.095,6.155-4.069,9.065-9.3,6.5L225.8,258.17a53.657,53.657,0,0,0-19.893-4.644H131.4c-5.755,0-9.614,4.915-8.62,10.978l7.339,44.743c.994,6.062,6.023,13.1,11.232,15.716l84.293,42.348c5.209,2.617,10.845,9.494,12.589,15.36L285.063,540.2c1.744,5.867,1.393,15.242-.783,20.94L218.7,732.861c-2.177,5.7-.14,13.212,4.548,16.781l75.238,57.286a42.6,42.6,0,0,0,18.876,7.34l38.618,3.261a84.362,84.362,0,0,1,20.152,4.771l111.335,44.4c5.393,2.15,10.541-1.027,11.5-7.1l4.769-30.208c.959-6.07,6.007-13,11.277-15.471l45-21.13c5.27-2.474,13.91-2.73,19.3-.57l116.461,46.679c5.389,2.16,13.819,1.456,18.83-1.573l80.323-48.551c5.01-3.028,5.819-9.06,1.8-13.472L755,729.432c-4.013-4.411-5.293-12.51-2.857-18.087l28.693-65.725c2.434-5.577,3.37-14.963,2.088-20.965l-14.636-68.536c-1.281-6-6.342-8.337-11.3-5.218L736.4,563.839c-4.961,3.119-8.983.657-8.983-5.5V541.345c0-6.156,3.594-14.327,8.028-18.251l74.6-66.032C814.471,453.138,819.432,445.186,821.119,439.3Z" transform="translate(37 -4)"/>
      <path id="Tracé_2252" data-name="Tracé 2252" class="cls-2" d="M885.177,778.721l-47.063,43.8c-5.306,4.938-8.518,14.716-7.174,21.838l14.82,78.542c1.344,7.123,7.738,15.423,14.282,18.54l17.642,8.4a11,11,0,0,0,15.71-6.9l19.841-64.483c2.131-6.929,2.532-18.268.893-25.329l-16.377-70.566C896.113,775.5,890.482,773.783,885.177,778.721Z" transform="translate(86.41 -15.787)"/>
    </g>
  </g>
</svg>
