<svg xmlns="http://www.w3.org/2000/svg" xmlns:xlink="http://www.w3.org/1999/xlink" width="1300" height="800" viewBox="0 0 1300 800">
  <defs>
    <style>
      .cls-1 {
        clip-path: url(#clip-motif-rayures-2);
      }

      .cls-2 {
        fill: none;
        stroke: #e8e8e8;
        stroke-linecap: round;
        stroke-width: 5px;
      }

      .cls-3 {
        fill: #fff;
      }
    </style>
    <clipPath id="clip-motif-rayures-2">
      <rect width="1300" height="800"/>
    </clipPath>
  </defs>
  <g id="motif-rayures-2" class="cls-1">
    <rect class="cls-3" width="1300" height="800"/>
    <path id="Intersection_8" data-name="Intersection 8" class="cls-2" d="M-321.545,1831l22.8-22.8Zm-25,0,47.8-47.8Zm-25,0,72.8-72.8Zm-25,0,97.8-97.8Zm-25,0,122.8-122.8Zm-25,0,147.8-147.8Zm-25,0,172.8-172.8Zm-25,0,197.8-197.8Zm-25,0,222.8-222.8Zm-25,0,247.8-247.8Zm-25,0,272.8-272.8Zm-25,0,297.8-297.8Zm-25,0,322.8-322.8Zm-25,0,347.8-347.8Zm-25,0,372.8-372.8Zm-25,0,397.8-397.8Zm-25,0,422.8-422.8Zm-25,0,447.8-447.8Zm-25,0,472.8-472.8Zm-25,0,497.8-497.8Zm-25,0,522.8-522.8Zm-25,0,547.8-547.8Zm-25,0,572.8-572.8Zm-25,0,597.8-597.8Zm-25,0,622.8-622.8Zm-25,0,647.8-647.8Zm-25,0,672.8-672.8Zm-25,0,697.8-697.8Zm-25,0,722.8-722.8Zm-25,0,747.8-747.8Zm-25,0,772.8-772.8Zm-25,0,797.8-797.8Zm-25,0,822.8-822.8Zm-25,0,833-833Zm-25,0,833-833Zm-25,0,833-833Zm-25,0,833-833Zm-25,0,833-833Zm-25,0,833-833Zm-25,0,833-833Zm-25,0,833-833Zm-25,0,833-833Zm-25,0,833-833Zm-25,0,833-833Zm-25,0,833-833Zm-25,0,833-833Zm-25,0,833-833Zm-25,0,833-833Zm-25,0,833-833Zm-25,0,833-833Zm-25,0,833-833Zm-25,0,833-833Zm-25,0,833-833Zm-25,0,833-833Zm-25,0,833-833Zm-25,0,833-833Zm-25,0,833-833Zm-25,0,833-833Zm-25,0,833-833Zm-25,0,833-833Zm-25,0,833-833Zm-25,0,833-833Zm-25,0,833-833Zm-25,0,833-833Zm-25,0,833-833Zm-25,0,833-833Zm-25,0,833-833Zm-25,0,833-833Zm-25,0,833-833Zm-25,0,833-833Zm-25,0,833-833Zm-25,0,833-833Zm-25,0,833-833Zm-25,0,833-833Zm-25,0,833-833Zm-25,0,833-833Zm-10.6-14.4,818.6-818.6Zm0-25,793.6-793.6Zm0-25,768.6-768.6Zm0-25,743.6-743.6Zm0-25,718.6-718.6Zm0-25,693.6-693.6Zm0-25,668.6-668.6Zm0-25,643.6-643.6Zm0-25,618.6-618.6Zm0-25,593.6-593.6Zm0-25,568.6-568.6Zm0-25,543.6-543.6Zm0-25,518.6-518.6Zm0-25,493.6-493.6Zm0-25,468.6-468.6Zm0-25,443.6-443.6Zm0-25,418.6-418.6Zm0-25,393.6-393.6Zm0-25,368.6-368.6Zm0-25,343.6-343.6Zm0-25,318.6-318.6Zm0-25,293.6-293.6Zm0-25,268.6-268.6Zm0-25,243.6-243.6Zm0-25,218.6-218.6Zm0-25,193.6-193.6Zm0-25,168.6-168.6Zm0-25,143.6-143.6Zm0-25,118.6-118.6Zm0-25,93.6-93.6Zm0-25,68.6-68.6Zm0-25,43.6-43.6Zm0-25,18.6-18.6Z" transform="translate(2178.146 -1016)"/>
  </g>
</svg>
