<svg xmlns="http://www.w3.org/2000/svg" xmlns:xlink="http://www.w3.org/1999/xlink" width="1300" height="800" viewBox="0 0 1300 800">
  <defs>
    <style>
      .cls-1 {
        clip-path: url(#clip-motif-separateur);
      }

      .cls-2 {
        fill: none;
        stroke: #fff;
        stroke-linecap: round;
        stroke-width: 4px;
      }
    </style>
    <clipPath id="clip-motif-separateur">
      <rect width="1300" height="800"/>
    </clipPath>
  </defs>
  <g id="motif-separateur" class="cls-1">
    <path id="Intersection_6" data-name="Intersection 6" class="cls-2" d="M-234.639,1022l16.894-16.894Zm-22,0,24-24Zm-22,0,24-24Zm-22,0,24-24Zm-22,0,24-24Zm-22,0,24-24Zm-22,0,24-24Zm-22,0,24-24Zm-22,0,24-24Zm-22,0,24-24Zm-22,0,24-24Zm-22,0,24-24Zm-22,0,24-24Zm-22,0,24-24Zm-22,0,24-24Zm-22,0,24-24Zm-22,0,24-24Zm-22,0,24-24Zm-22,0,24-24Zm-22,0,24-24Zm-22,0,24-24Zm-22,0,24-24Zm-22,0,24-24Zm-22,0,24-24Zm-22,0,24-24Zm-22,0,24-24Zm-22,0,24-24Zm-22,0,24-24Zm-22,0,24-24Zm-22,0,24-24Zm-22,0,24-24Zm-22,0,24-24Zm-22,0,24-24Zm-22,0,24-24Zm-22,0,24-24Zm-22,0,24-24Zm-22,0,24-24Zm-22,0,24-24Zm-22,0,24-24Zm-22,0,24-24Zm-22,0,24-24Zm-22,0,24-24Zm-22,0,24-24Zm-22,0,24-24Zm-22,0,24-24Zm-22,0,24-24Zm-22,0,24-24Zm-22,0,24-24Zm-22,0,24-24Zm-22,0,24-24Zm-22,0,24-24Zm-22,0,24-24Zm-22,0,24-24Zm-22,0,24-24Zm-22,0,24-24Zm-22,0,24-24Zm-22,0,24-24Zm-22,0,24-24Zm-22,0,24-24Zm-22,0,24-24Zm-22,0,24-24Zm-22,0,24-24Zm-22,0,24-24Zm-22,0,24-24Zm-22,0,24-24Zm-22,0,24-24Zm-22,0,24-24Zm-22,0,24-24Zm-22,0,24-24Zm-22,0,24-24Zm-22,0,24-24Zm-22,0,24-24Zm-22,0,24-24Zm-22,0,24-24Zm-22,0,24-24Zm-22,0,24-24Zm-22,0,24-24Zm-22,0,24-24Zm-22,0,24-24Zm-22,0,24-24Zm-22,0,24-24Zm-22,0,24-24Zm-22,0,24-24Zm-22,0,24-24Zm-22,0,24-24Zm-22,0,24-24Zm-22,0,24-24Zm-22,0,24-24Zm-22,0,24-24Zm-22,0,24-24Zm-14.55-7.45L-2190.64,998Z" transform="translate(1272.688 -380)"/>
  </g>
</svg>
