<svg xmlns="http://www.w3.org/2000/svg" xmlns:xlink="http://www.w3.org/1999/xlink" width="1300" height="800" viewBox="0 0 1300 800">
  <defs>
    <style>
      .cls-1 {
        clip-path: url(#clip-motif-sigle-2);
      }

      .cls-2 {
        fill: #d5d5d5;
      }
    </style>
    <clipPath id="clip-motif-sigle-2">
      <rect width="1300" height="800"/>
    </clipPath>
  </defs>
  <g id="motif-sigle-2" class="cls-1">
    <g id="LOGO-CCI-Sigle" transform="translate(-46.1 -31.251)">
      <path id="Tracé_2056" data-name="Tracé 2056" class="cls-2" d="M.1,428.377c0,236.258,192.178,428.377,428.377,428.377,112.492,0,201.131-42.366,263.375-90.944L601.455,664.9c-49.692,35.812-107.763,56.015-173,56.015C267.15,720.915,135.9,589.7,135.9,428.377S267.15,135.8,428.468,135.8a289.222,289.222,0,0,1,117.3,24.794L599.6,35.778A426.724,426.724,0,0,0,428.468,0C192.278,0,.1,192.178.1,428.377Z" transform="translate(0 0)"/>
      <path id="Tracé_2057" data-name="Tracé 2057" class="cls-2" d="M233.56,461.835c0,125.943,102.416,228.316,228.351,228.316,48.244,0,96.976-17.178,128.3-40.662,0,0-84.819-94.611-92.255-102.716-7.608,3.71-23.021,7.514-36.044,7.514a92.581,92.581,0,0,1-92.478-92.452c0-50.96,41.81-93.746,92.778-93.746a94.131,94.131,0,0,1,37.612,8.088l53.624-123c-27.253-11.515-57.5-19.611-91.536-19.611C335.976,233.544,233.56,335.892,233.56,461.835Z" transform="translate(-33.442 -33.458)"/>
      <path id="Tracé_2058" data-name="Tracé 2058" class="cls-2" d="M695.5,386.728c11.712,23.235,21.976,54.986,21.976,88.794,0,42.795-18.069,89.171-42.144,120.065l91.664,101c51.063-54.661,86.258-134,86.258-221.042,0-51.517-12.851-103.419-34.5-146.248Z" transform="translate(-96.724 -47.171)"/>
      <path id="Tracé_2059" data-name="Tracé 2059" class="cls-2" d="M654.31,298.039,886.893,189C852.52,138.452,805.655,92.358,757.78,63.4L653.59,297.294Z" transform="translate(-93.61 -9.082)"/>
    </g>
  </g>
</svg>
