<svg xmlns="http://www.w3.org/2000/svg" xmlns:xlink="http://www.w3.org/1999/xlink" width="1300" height="800" viewBox="0 0 1300 800">
  <defs>
    <style>
      .cls-1 {
        clip-path: url(#clip-motif-rayures);
      }

      .cls-2, .cls-4 {
        fill: none;
        stroke-linecap: round;
        stroke-width: 5px;
      }

      .cls-2 {
        stroke: #e8e8e8;
      }

      .cls-3 {
        fill: #373cf5;
      }

      .cls-4 {
        stroke: #00c;
      }

      .cls-5 {
        fill: #fff;
      }
    </style>
    <clipPath id="clip-motif-rayures">
      <rect width="1300" height="800"/>
    </clipPath>
  </defs>
  <g id="motif-rayures" class="cls-1">
    <rect class="cls-5" width="1300" height="800"/>
    <path id="Intersection_8" data-name="Intersection 8" class="cls-2" d="M-331.769,1831l20.025-20.025Zm-25,0,45.024-45.024Zm-25,0,70.024-70.024Zm-25,0,95.024-95.024Zm-25,0,120.024-120.024Zm-25,0,145.024-145.024Zm-25,0,170.024-170.024Zm-25,0,195.025-195.025Zm-25,0,220.024-220.024Zm-25,0,245.024-245.024Zm-25,0,270.025-270.025Zm-25,0,295.024-295.024Zm-25,0,320.024-320.024Zm-25,0,345.025-345.025Zm-25,0,370.025-370.025Zm-25,0,395.024-395.024Zm-25,0,420.024-420.024Zm-25,0,445.025-445.025Zm-25,0,470.024-470.024Zm-25,0,495.024-495.024Zm-25,0,520.025-520.025Zm-25,0,545.025-545.025Zm-25,0,570.024-570.024Zm-25,0,595.025-595.025Zm-25,0,620.025-620.025Zm-25,0,645.024-645.024Zm-25,0,670.024-670.024Zm-25,0,695.025-695.025Zm-25,0,720.025-720.025Zm-25,0,745.024-745.024Zm-25,0,770.025-770.025Zm-25,0,795.025-795.025Zm-25,0,820.023-820.023Zm-25,0,833-833Zm-25,0,833-833Zm-25,0,833-833Zm-25,0,833-833Zm-25,0,833-833Zm-25,0,833-833Zm-25,0,833-833Zm-25,0,833-833Zm-25,0,833-833Zm-25,0,833-833Zm-25,0,833-833Zm-25,0,833-833Zm-25,0,833-833Zm-25,0,833-833Zm-25,0,833-833Zm-25,0,833-833Zm-25,0,833-833Zm-25,0,833-833Zm-25,0,833-833Zm-25,0,833-833Zm-25,0,833-833Zm-25,0,833-833Zm-25,0,833-833Zm-25,0,833-833Zm-25,0,833-833Zm-25,0,833-833Zm-25,0,833-833Zm-25,0,833-833Zm-25,0,833-833Zm-25,0,833-833Zm-25,0,833-833Zm-25,0,833-833Zm-25,0,833-833Zm-25,0,833-833Zm-25,0,833-833Zm-25,0,833-833Zm-25,0,833-833Zm-25,0,833-833Zm-25,0,833-833Zm-25,0,833-833Zm-25,0,833-833Zm-25,0,833-833Zm-25,0,833-833Zm-.378-24.622L-1398.768,998Zm0-25L-1423.768,998Zm0-25L-1448.768,998Zm0-25L-1473.769,998Zm0-25L-1498.768,998Zm0-25L-1523.768,998Zm0-25L-1548.767,998Zm0-25L-1573.769,998Zm0-25L-1598.768,998Zm0-25L-1623.768,998Zm0-25L-1648.769,998Zm0-25L-1673.768,998Zm0-25L-1698.768,998Zm0-25L-1723.769,998Zm0-25L-1748.769,998Zm0-25L-1773.768,998Zm0-25L-1798.768,998Zm0-25L-1823.769,998Zm0-25L-1848.768,998Zm0-25L-1873.768,998Zm0-25L-1898.769,998Zm0-25L-1923.768,998Zm0-25L-1948.768,998Zm0-25L-1973.769,998Zm0-25L-1998.769,998Zm0-25L-2023.768,998Zm0-25L-2048.768,998Zm0-25L-2073.769,998Zm0-25L-2098.768,998Zm0-25L-2123.768,998Zm0-25L-2148.769,998Zm0-25L-2173.769,998Zm0-25,8.378-8.379Z" transform="translate(3217.146 -683)"/>
    <rect id="Rectangle_368" data-name="Rectangle 368" class="cls-3" width="1638" height="912" transform="translate(-629 -112)"/>
    <path id="Intersection_7" data-name="Intersection 7" class="cls-4" d="M-321.545,1831l22.8-22.8Zm-25,0,47.8-47.8Zm-25,0,72.8-72.8Zm-25,0,97.8-97.8Zm-25,0,122.8-122.8Zm-25,0,147.8-147.8Zm-25,0,172.8-172.8Zm-25,0,197.8-197.8Zm-25,0,222.8-222.8Zm-25,0,247.8-247.8Zm-25,0,272.8-272.8Zm-25,0,297.8-297.8Zm-25,0,322.8-322.8Zm-25,0,347.8-347.8Zm-25,0,372.8-372.8Zm-25,0,397.8-397.8Zm-25,0,422.8-422.8Zm-25,0,447.8-447.8Zm-25,0,472.8-472.8Zm-25,0,497.8-497.8Zm-25,0,522.8-522.8Zm-25,0,547.8-547.8Zm-25,0,572.8-572.8Zm-25,0,597.8-597.8Zm-25,0,622.8-622.8Zm-25,0,647.8-647.8Zm-25,0,672.8-672.8Zm-25,0,697.8-697.8Zm-25,0,722.8-722.8Zm-25,0,747.8-747.8Zm-25,0,772.8-772.8Zm-25,0,797.8-797.8Zm-25,0,822.8-822.8Zm-25,0,833-833Zm-25,0,833-833Zm-25,0,833-833Zm-25,0,833-833Zm-25,0,833-833Zm-25,0,833-833Zm-25,0,833-833Zm-25,0,833-833Zm-25,0,833-833Zm-25,0,833-833Zm-25,0,833-833Zm-25,0,833-833Zm-25,0,833-833Zm-25,0,833-833Zm-25,0,833-833Zm-25,0,833-833Zm-25,0,833-833Zm-25,0,833-833Zm-25,0,833-833Zm-25,0,833-833Zm-25,0,833-833Zm-25,0,833-833Zm-25,0,833-833Zm-25,0,833-833Zm-25,0,833-833Zm-25,0,833-833Zm-25,0,833-833Zm-25,0,833-833Zm-25,0,833-833Zm-25,0,833-833Zm-25,0,833-833Zm-25,0,833-833Zm-25,0,833-833Zm-25,0,833-833Zm-25,0,833-833Zm-25,0,833-833Zm-25,0,833-833Zm-25,0,833-833Zm-25,0,833-833Zm-25,0,833-833Zm-25,0,833-833Zm-25,0,833-833Zm-25,0,833-833Zm-10.6-14.4,818.6-818.6Zm0-25,793.6-793.6Zm0-25,768.6-768.6Zm0-25,743.6-743.6Zm0-25,718.6-718.6Zm0-25,693.6-693.6Zm0-25,668.6-668.6Zm0-25,643.6-643.6Zm0-25,618.6-618.6Zm0-25,593.6-593.6Zm0-25,568.6-568.6Zm0-25,543.6-543.6Zm0-25,518.6-518.6Zm0-25,493.6-493.6Zm0-25,468.6-468.6Zm0-25,443.6-443.6Zm0-25,418.6-418.6Zm0-25,393.6-393.6Zm0-25,368.6-368.6Zm0-25,343.6-343.6Zm0-25,318.6-318.6Zm0-25,293.6-293.6Zm0-25,268.6-268.6Zm0-25,243.6-243.6Zm0-25,218.6-218.6Zm0-25,193.6-193.6Zm0-25,168.6-168.6Zm0-25,143.6-143.6Zm0-25,118.6-118.6Zm0-25,93.6-93.6Zm0-25,68.6-68.6Zm0-25,43.6-43.6Zm0-25,18.6-18.6Z" transform="translate(1306.146 -683)"/>
  </g>
</svg>
