<svg xmlns="http://www.w3.org/2000/svg" xmlns:xlink="http://www.w3.org/1999/xlink" width="600" height="600" viewBox="0 0 600 600"><defs><style>.a{clip-path:url(#b);}.b{fill:#bc96db;}.c{fill:#a518e2;}.d{fill:none;stroke:#222;stroke-linecap:round;stroke-linejoin:round;stroke-width:12px;}.e{fill:#fff;}</style><clipPath id="b"><rect width="600" height="600"/></clipPath></defs><g id="a" class="a"><rect class="e" width="600" height="600"/><path class="b" d="M72.841,304.206c26.947-1.432,42.012,72.781,42.012,72.781s1.823-18.375,12.962-23.669c4.633-1.538,18.991,3.55,26.683,15.976-3.3-15.518-4.956-17.551,13.609-20.71,5.6-.954,15.385,3.55,22.485,13.609,4.142-26.036,27.552-20.394,29.906-18.85,18.414,12.084,38.733,112.341,38.733,112.341s-3.97,23.739-16.568,39.053c-11.715,14.241-33.293,24.222-47.337,28.994-28.787,9.788-67.511-19.218-67.511-19.218S32.176,453.842,37.93,430.241s53.048-2.859,53.048-2.859L53.435,331.688s-.12-20.381,10.531-25.115" transform="translate(285.306 -3.562)"/><path class="c" d="M16.3,345a96.271,96.271,0,1,1,59.68,122.37A96.275,96.275,0,0,1,16.3,345" transform="translate(54.888 -233.714)"/><path class="d" d="M298.122,379.776H217.5a14.65,14.65,0,0,1-14.612-14.612V284.556Zm0,142.153V379.776m-95.23-95.22H30.539a14.68,14.68,0,0,0-14.612,14.612v354.8A14.668,14.668,0,0,0,30.539,668.58H283.51M62.162,350.831h98.223M147.232,559.956h98.223M67.7,556.238l14.965,19.539,30.581-39.57m34.43-38.287h76.007M68.148,494.2,83.113,513.74l30.581-39.579m33.984-38.724H245.9M68.148,431.719l14.965,19.538,30.581-39.579m123.172,68.59h0a20.6,20.6,0,0,1,26.752,10.151l30.757,69.538c-10.261-18.709-1.644-28.657,3.784-30.907l.56-.208c19.717-5.917,28.507,12.405,31.822,23.576-6.18-18.634-.833-27.068,5.571-29.717,9.648-3.978,22.226-4.732,30.621,19.522-.578-13.089-2.928-14.26,3-22.3,4.333-8.755,27.121-8.175,31.074,6.577l26.148,74.864c21.258,60.865-54.638,125.049-111.488,88.258l-98.623-63.812c-9.23-5.968-11.35-18.293-4.713-27.384,5.765-8.937,31.269-4.108,40.555,1.906l18.684,12.084-46.253-106.1C220.813,496.442,226.279,484.646,236.866,480.268Z" transform="translate(113.623 -178.198)"/></g></svg>