<svg xmlns="http://www.w3.org/2000/svg" xmlns:xlink="http://www.w3.org/1999/xlink" width="600" height="600" viewBox="0 0 600 600"><defs><style>.a{clip-path:url(#b);}.b{fill:#373cf5;}.c{fill:#6877ff;}.d{fill:none;stroke:#222;stroke-linecap:round;stroke-linejoin:round;stroke-width:12px;}.e{fill:#fff;}</style><clipPath id="b"><rect width="600" height="600"/></clipPath></defs><g id="a" class="a"><rect class="e" width="600" height="600"/><g transform="translate(112.5 69.597)"><path class="b" d="M101.064,153.074l50.606,15.142L96.739,223.579,48.723,205.415Z" transform="translate(274.041 -110.236)"/><path class="b" d="M60.573,244.786,46.827,197.4,98.64,147.8l14.62,50.075Z" transform="translate(253.007 -150.821)"/><path class="c" d="M267.191,284.888A124.416,124.416,0,1,1,142.769,160.463,124.414,124.414,0,0,1,267.191,284.888" transform="translate(8.812 -22.582)"/><path class="d" d="M327.781,243.465l-13.954-44.4L365.6,147.289l13.954,44.4m-43.765,59.784L380.2,265.438l51.774-51.774L387.565,199.7M190.758,387.689,410.264,168.2M217.983,398.366a30.9,30.9,0,1,1-38.611-38.611m80.957-3.726a79.179,79.179,0,1,1-38.611-38.611m74.1,3.134A127.451,127.451,0,1,1,257.2,281.941m73.333,3.9a175.7,175.7,0,1,1-38.611-38.611" transform="translate(-12.037 -151.261)"/></g></g></svg>