<svg xmlns="http://www.w3.org/2000/svg" xmlns:xlink="http://www.w3.org/1999/xlink" width="600" height="600" viewBox="0 0 600 600"><defs><style>.a{clip-path:url(#b);}.b{fill:#373cf5;}.c{fill:#6877ff;}.d{fill:#009;}.e,.f{fill:none;stroke:#fff;stroke-linecap:round;stroke-linejoin:round;stroke-width:12px;}.f{stroke-miterlimit:10;}.g{fill:#fff;}</style><clipPath id="b"><rect width="600" height="600"/></clipPath></defs><g id="a" class="a"><rect class="g" width="600" height="600"/><rect class="b" width="600" height="600"/><g transform="translate(101.626 103.953)"><g transform="translate(0 25.963)"><path class="c" d="M39.39,743.179l1.387-24.243s-.693-4.854,5.2-9.006,39.841-12.824,49.54-13.166,36.032,2.072,42.966,4.5c6.925,2.414,18.011,5.2,22.514,9.348s6.934,12.122,6.934,16.282v16.85H41.47" transform="translate(-39.39 -415.443)"/><path class="c" d="M211.82,813.5c93,0,168.388-23.76,168.388-53.1,0-29.3-75.385-53.064-168.388-53.064S43.432,731.1,43.432,760.4c0,29.336,75.386,53.1,168.388,53.1" transform="translate(-10.358 -432.494)"/><path class="c" d="M134.655,692.709a30.275,30.275,0,1,1-30.275-30.276,30.28,30.28,0,0,1,30.275,30.276" transform="translate(209.944 -662.433)"/></g><g transform="translate(199.747 44.548)"><path class="d" d="M74.367,743.55l1.314-24.437s-.657-4.893,4.923-9.078,37.746-12.927,46.936-13.271,34.137,2.088,40.707,4.538c6.561,2.433,17.064,5.238,21.33,9.423s6.57,12.219,6.57,16.412v16.985H76.338" transform="translate(8.31 -434.685)"/><path class="d" d="M177.429,721.018a55.905,55.905,0,1,1-55.91-55.91,55.908,55.908,0,0,1,55.91,55.91" transform="translate(-65.618 -665.108)"/></g><g transform="translate(2.43)"><path class="e" d="M205.472,857.711H417.531V659.26H40.538V864.8" transform="translate(-33.578 -659.26)"/><path class="e" d="M99.992,714.837c0,20.7-12.716,34.5-28.4,34.5s-28.41-13.8-28.41-34.5c0-15.244,12.716-27.6,28.41-27.6S99.992,699.593,99.992,714.837Zm284.064,0c0,20.7-12.724,34.5-28.41,34.5s-28.4-13.8-28.4-34.5c0-15.244,12.716-27.6,28.4-27.6S384.056,699.593,384.056,714.837Zm-142.032,0c0,20.7-12.716,34.5-28.41,34.5s-28.4-13.8-28.4-34.5c0-15.244,12.716-27.6,28.4-27.6S242.024,699.593,242.024,714.837Z" transform="translate(-14.591 -458.315)"/><path class="f" d="M437.742,738.618v-19.45a13.83,13.83,0,0,0-8.3-12.667c-9.287-4.1-26-9.655-48.269-9.655a123.421,123.421,0,0,0-48.776,9.7,13.84,13.84,0,0,0-8.387,12.707v19.368m-28.434,0v-19.45a13.83,13.83,0,0,0-8.3-12.667c-9.287-4.1-26-9.655-48.269-9.655a123.421,123.421,0,0,0-48.776,9.7,13.84,13.84,0,0,0-8.387,12.707v19.368m-28.434,0v-19.45a13.83,13.83,0,0,0-8.3-12.667c-9.287-4.1-26-9.655-48.269-9.655a123.421,123.421,0,0,0-48.776,9.7,13.84,13.84,0,0,0-8.387,12.707v19.368" transform="translate(-39.687 -389.298)"/><path class="e" d="M102.5,694.745c0,20.7-12.3,34.5-27.477,34.5s-27.477-13.8-27.477-34.5a27.477,27.477,0,1,1,54.954,0Z" transform="translate(16.782 -602.626)"/><path class="f" d="M156.2,739.971V699.279a13.977,13.977,0,0,0-8.183-12.789,116.5,116.5,0,0,0-47.589-9.737,119.47,119.47,0,0,0-48.1,9.778,14,14,0,0,0-8.272,12.83v40.61" transform="translate(-8.321 -533.617)"/></g></g></g></svg>