<svg xmlns="http://www.w3.org/2000/svg" xmlns:xlink="http://www.w3.org/1999/xlink" width="600" height="600" viewBox="0 0 600 600"><defs><style>.a{clip-path:url(#b);}.b{fill:#373cf5;}.c{fill:#bed06b;}.c,.d{stroke:rgba(0,0,0,0);stroke-miterlimit:10;}.d{fill:#9aba00;}.e,.f{fill:none;stroke:#fff;stroke-width:12px;}.e{stroke-linecap:round;stroke-linejoin:round;}.f{stroke-miterlimit:22.926;}.g{fill:#fff;}</style><clipPath id="b"><rect width="600" height="600"/></clipPath></defs><g id="a" class="a"><rect class="g" width="600" height="600"/><rect class="b" width="600" height="600"/><g transform="translate(-2288 -1518.77)"><path class="c" d="M189.068,78.779c-25.522,0-50.282-1.045-73.592-3.106a522.881,522.881,0,0,1-60.1-8.47c-17.364-3.63-31-7.856-40.52-12.562A40.818,40.818,0,0,1,3.841,47.223C1.292,44.619,0,41.94,0,39.259c0-4.579,3.714-9.066,11.039-13.337,7.079-4.128,17.359-7.961,30.556-11.4A391.012,391.012,0,0,1,87.827,5.876c17.92-2.38,37.457-4.1,58.069-5.1a22.018,22.018,0,0,0-1.653,3.394A24.056,24.056,0,0,0,151.436,31.5c2.779,2.161,7.163,5.035,13.128,5.035,6.4,0,13.361-3.388,20.679-10.07,4.073-3.719,7.689-6.853,10.879-9.618C204.806,9.322,210.046,4.781,210.984,0c45.753,1.1,87.968,5.678,118.869,12.878,15.235,3.55,27.148,7.591,35.407,12.013,8.551,4.577,12.886,9.411,12.886,14.369,0,2.681-1.292,5.36-3.841,7.964a40.819,40.819,0,0,1-11.017,7.418c-9.524,4.706-23.157,8.933-40.521,12.562a522.92,522.92,0,0,1-60.1,8.47C239.355,77.734,214.593,78.779,189.068,78.779Z" transform="translate(2406.328 1933.465)"/><path class="d" d="M253.261,318.143h0a25.33,25.33,0,0,1-7.661-1.459l-21.677-14.733a19.949,19.949,0,0,0-5.745-9.268l-5.968-5.461a19.943,19.943,0,0,0-13.5-5.247,20.158,20.158,0,0,0-3.682.34l-5.864-3.986a22.106,22.106,0,0,0-1.6-30.866l-3.017-2.759a22.01,22.01,0,0,0-31.1,1.389L148.961,251l-5.987-4.069,23.192-25.357a24.057,24.057,0,1,0-35.506-32.469l-16.372,17.9a21.5,21.5,0,0,0-3.814-27.088l-3.8-3.479A21.488,21.488,0,0,0,76.317,177.8L62.878,192.494l-8.9-6.052c-.223-.132-1.229-.706-2.621-1.5-6.666-3.8-24.373-13.907-25.077-14.872L.466,129.015c-1.366-1.865.613-17.325,1.527-23.885,1.548-11.109,3.574-22.418,4.337-24.2l31.195-39.54c.643-1.5,14.916-11.643,21.022-15.933,10.3-7.238,20.822-14.339,22.072-14.9L122.448,0l.786,1.169,26.97,9,31.129,32.209-38.1,41.659a25.589,25.589,0,0,0,1.609,36.111l2.1,1.926a25.575,25.575,0,0,0,36.119-1.61l35.853-39.206L344.56,211.265c1.1,1.133,2.459,4.145,3.543,7.863,1.076,3.69,1.572,6.97,1.295,8.56l-6.745,18.174c-1.413,1.074-3.362,1.538-5.619,2.076-4.742,1.129-10.644,2.535-15.046,10.533a91.742,91.742,0,0,1-7.945,12.1,78.677,78.677,0,0,1-7.324,8.187,48.464,48.464,0,0,1-7.458,6.106c-.115.009-11.519.881-17.3,5.135-4.18,3.071-6.7,7.609-8.933,11.614-1.624,2.918-3.157,5.673-5.141,7.634a55.339,55.339,0,0,1-7.427,6.6A12.272,12.272,0,0,1,253.261,318.143Z" transform="translate(2394.654 1621.066)"/><g transform="translate(2399.353 1624.382)"><path class="e" d="M221.954,639.351l24.488,24.632c19.813,19.928,58.289-8.517,33.571-34.414m-43.161-45.748,49.015,50.251c19.631,20.11,59.362-9.629,34.443-35.3L272.4,549.445M259.5,465.91l95.147,99.525c19.42,20.311-9.418,58.989-34.337,33.341l-44.6-45.873M64.974,547.557l-24.584-24.5c-81.916-81.619,59.966-221.767,143.117-141l16.565,16.45M352.579,559.16,377.2,534.623c42.433-42.28,21.451-99.4-12.733-136.076C353.2,386.456,340.334,375.975,327,368.521c-17.36-9.715-71.8-23.933-107.4,10.644l-73.887,73.36c-19.938,19.8,30.381,38.965,55.856,13.921l18.615-18.309c27.5-24.881,62.045,24.987,105.12-8.929" transform="translate(-15.774 -357.207)"/><path class="f" d="M193.154,493.913l2.6,2.587a22.619,22.619,0,0,1,0,31.837l-22.486,22.486a22.631,22.631,0,0,1-31.846,0l-2.587-2.577a22.616,22.616,0,0,1-.01-31.856L161.307,493.9A22.587,22.587,0,0,1,193.154,493.913ZM169.614,446.3l2.587,2.587a22.6,22.6,0,0,1,0,31.856l-36.608,36.608a22.6,22.6,0,0,1-31.846,0l-2.6-2.6a22.593,22.593,0,0,1,0-31.837L137.767,446.3A22.587,22.587,0,0,1,169.614,446.3ZM147.789,396.39l2.587,2.587a22.613,22.613,0,0,1,0,31.846l-53.4,53.413a22.652,22.652,0,0,1-31.856,0L62.53,481.65a22.625,22.625,0,0,1,0-31.856l53.413-53.4A22.578,22.578,0,0,1,147.789,396.39Zm-56.4-15.358,2.587,2.6a22.622,22.622,0,0,1,0,31.846L60.451,449.027a22.639,22.639,0,0,1-31.846,0l-2.6-2.6a22.6,22.6,0,0,1,0-31.846L59.54,381.032A22.622,22.622,0,0,1,91.387,381.032Z" transform="translate(15.748 -209)"/></g></g></g></svg>