<svg xmlns="http://www.w3.org/2000/svg" xmlns:xlink="http://www.w3.org/1999/xlink" width="140" height="140" viewBox="0 0 140 140">
  <defs>
    <style>
      .cls-1 {
        clip-path: url(#clip-accord);
      }

      .cls-2 {
        fill: #00c;
      }

      .cls-3 {
        fill: #6877ff;
      }

      .cls-4, .cls-5 {
        fill: none;
        stroke: #fff;
        stroke-linecap: round;
        stroke-linejoin: round;
        stroke-width: 4px;
      }

      .cls-5 {
        stroke-miterlimit: 22.926;
      }
    </style>
    <clipPath id="clip-accord">
      <rect width="140" height="140"/>
    </clipPath>
  </defs>
  <g id="accord" class="cls-1">
    <g id="Groupe_67" data-name="Groupe 67">
      <path id="picto-x-2" class="cls-2" d="M202.266,103.007c-8.082,0-15.921-.331-23.3-.983a165.436,165.436,0,0,1-19.029-2.681A56.024,56.024,0,0,1,147.1,95.364a12.938,12.938,0,0,1-3.487-2.349,3.651,3.651,0,0,1-1.216-2.522c0-1.45,1.176-2.87,3.5-4.223a39.817,39.817,0,0,1,9.674-3.609,123.752,123.752,0,0,1,14.639-2.739c5.674-.752,11.86-1.3,18.386-1.614a6.944,6.944,0,0,0-.523,1.075,7.616,7.616,0,0,0,2.277,8.653,6.709,6.709,0,0,0,4.157,1.593c2.026,0,4.231-1.072,6.548-3.188,1.289-1.177,2.434-2.169,3.444-3.044,2.75-2.383,4.41-3.82,4.706-5.335,14.486.349,27.854,1.8,37.637,4.078a47.532,47.532,0,0,1,11.211,3.8c2.707,1.45,4.08,2.979,4.08,4.549a3.656,3.656,0,0,1-1.216,2.522,12.934,12.934,0,0,1-3.488,2.349A55.955,55.955,0,0,1,244.6,99.342a165.786,165.786,0,0,1-19.029,2.682C218.188,102.676,210.347,103.007,202.266,103.007Z" transform="translate(-130.743 29.125)"/>
      <path id="picto-x-1" class="cls-3" d="M237.242,83.149c7.89,8.121,17.022-4.126,10.872-10.557L217.987,41.08l-9.5-6.608L194.958,45.654a6.718,6.718,0,0,1-7.162-.13l-7.4-4.432,18.772-21.354-5.245-5.209c-26.328-25.573-71.251,18.8-45.314,44.645L156.4,66.93l9.421-5.772a4.985,4.985,0,0,1,5.955.557l7.483,6.783,3.6-2.434a10.39,10.39,0,0,1,9.678.349l.535,1.658a4.285,4.285,0,0,1,2.152,3.815l-1.542,8.522,3.855,1.871a6.553,6.553,0,0,1,3.683,5.534l.438,7.859,4.447.321,7.753,7.8c6.274,6.31,18.456-2.7,10.63-10.9l1.854,1.426c6.216,6.367,18.8-3.049,10.905-11.176" transform="translate(-131.35 1.836)"/>
      <g id="picto-ligne" transform="translate(9.45 9.325)">
        <path id="Tracé_2245" data-name="Tracé 2245" class="cls-4" d="M206.087,96.647l7.754,7.8c6.273,6.31,18.455-2.7,10.629-10.9M210.8,79.065l15.52,15.91c6.216,6.368,18.8-3.049,10.905-11.176L222.059,68.18m-4.083-26.45L248.1,73.243c6.15,6.431-2.982,18.678-10.872,10.557L223.107,69.274m-66.725-1.692L148.6,59.824c-25.937-25.843,18.986-70.216,45.314-44.643l5.245,5.208m48.288,50.868,7.8-7.77C268.677,50.1,262.034,32.015,251.21,20.4a49.831,49.831,0,0,0-11.862-9.507c-5.5-3.076-22.734-7.577-34.006,3.371L181.947,37.492c-6.313,6.27,9.619,12.338,17.686,4.408l5.894-5.8c8.707-7.879,19.644,7.911,33.284-2.827" transform="translate(-140.805 -7.312)"/>
        <path id="Tracé_2246" data-name="Tracé 2246" class="cls-5" d="M203.862,83.008l.823.819a7.162,7.162,0,0,1,0,10.081l-7.119,7.119a7.166,7.166,0,0,1-10.084,0l-.819-.816a7.16,7.16,0,0,1,0-10.086L193.778,83A7.151,7.151,0,0,1,203.862,83.008Zm-7.453-15.076.819.819a7.156,7.156,0,0,1,0,10.086L185.637,90.429a7.156,7.156,0,0,1-10.084,0l-.823-.823a7.155,7.155,0,0,1,0-10.081l11.6-11.593A7.151,7.151,0,0,1,196.409,67.932Zm-6.911-15.8.819.819a7.161,7.161,0,0,1,0,10.084L173.409,79.944a7.174,7.174,0,0,1-10.086,0l-.82-.819a7.164,7.164,0,0,1,0-10.086L179.415,52.13A7.149,7.149,0,0,1,189.5,52.129ZM171.64,47.267l.82.823a7.162,7.162,0,0,1,0,10.082L161.845,68.8a7.168,7.168,0,0,1-10.084,0l-.823-.823a7.156,7.156,0,0,1,0-10.084l10.618-10.622a7.161,7.161,0,0,1,10.084,0Z" transform="translate(-137.718 7.203)"/>
      </g>
    </g>
  </g>
</svg>
