<svg xmlns="http://www.w3.org/2000/svg" xmlns:xlink="http://www.w3.org/1999/xlink" width="140" height="140" viewBox="0 0 140 140">
  <defs>
    <style>
      .cls-1 {
        clip-path: url(#clip-arbre);
      }

      .cls-2 {
        fill: #00c;
      }

      .cls-3 {
        fill: #6877ff;
      }

      .cls-4, .cls-5, .cls-6 {
        fill: none;
        stroke: #fff;
        stroke-linecap: round;
        stroke-width: 4px;
      }

      .cls-4 {
        stroke-miterlimit: 10;
      }

      .cls-5 {
        stroke-linejoin: round;
      }
    </style>
    <clipPath id="clip-arbre">
      <rect width="140" height="140"/>
    </clipPath>
  </defs>
  <g id="arbre" class="cls-1">
    <g id="Groupe_62" data-name="Groupe 62" transform="translate(3)">
      <path id="picto-x-2" class="cls-2" d="M226.811,62.18A25.1,25.1,0,0,0,203.2,37.153a34.657,34.657,0,0,0-10.062-20.959q-.3-.294-.6-.581c-.066-.063-.133-.124-.2-.187-.135-.127-.271-.254-.408-.378-.08-.073-.162-.144-.243-.217-.125-.112-.25-.223-.377-.333-.087-.075-.174-.149-.262-.224q-.184-.156-.369-.31c-.091-.075-.182-.149-.273-.223q-.184-.149-.37-.3l-.28-.218q-.186-.144-.375-.285l-.283-.211c-.128-.094-.257-.187-.387-.279-.093-.066-.186-.133-.279-.2-.136-.1-.273-.188-.41-.281-.089-.06-.176-.121-.265-.18-.158-.105-.317-.207-.476-.309-.069-.045-.138-.09-.208-.134q-.34-.215-.685-.422c-.07-.042-.142-.083-.213-.124-.162-.1-.324-.191-.488-.284-.1-.055-.195-.108-.292-.162-.139-.077-.278-.154-.418-.229-.106-.057-.212-.112-.319-.168-.133-.069-.265-.139-.4-.207l-.333-.166q-.2-.1-.393-.192l-.342-.161q-.2-.091-.393-.18l-.349-.155c-.131-.057-.263-.113-.395-.169-.117-.049-.234-.1-.351-.147-.134-.055-.269-.108-.4-.161-.116-.046-.233-.093-.35-.137-.139-.053-.28-.1-.42-.156-.113-.041-.226-.084-.34-.125-.164-.058-.328-.113-.493-.169s-.326-.109-.489-.161-.352-.113-.53-.167c-.12-.036-.24-.07-.36-.105-.139-.041-.278-.082-.417-.121s-.255-.069-.382-.1-.266-.071-.4-.105-.262-.065-.394-.1l-.4-.094-.4-.088-.4-.084-.4-.08-.4-.073c-.135-.024-.27-.049-.405-.071l-.4-.064c-.135-.021-.27-.042-.405-.062s-.273-.037-.409-.055-.268-.036-.4-.052-.285-.032-.427-.047-.259-.029-.388-.042q-.383-.037-.768-.066-1.317-.1-2.652-.1a34.952,34.952,0,0,0-34.646,30.547c-.137,1.1-.219,3.74-.263,5.765l34.909,44.982h2.633l30.632-.047A24.918,24.918,0,0,0,212.6,84.772q.548-.265,1.081-.554.267-.145.529-.3.525-.3,1.034-.629.254-.163.5-.332.75-.507,1.461-1.066.237-.186.469-.378.929-.767,1.781-1.619.426-.426.83-.871a25.273,25.273,0,0,0,1.889-2.345q.35-.492.676-1a24.92,24.92,0,0,0,3.955-13.5Z" transform="translate(-97.91 -1)"/>
      <path id="picto-x-1" class="cls-3" d="M87.768,149.4A28.184,28.184,0,0,0,50.75,123.254v0l-.094.033q-.314.105-.625.217v0a28.3,28.3,0,0,0-18.4,22.837,20.462,20.462,0,0,0,1.83,40.841l17.294.026h0l5.483.008h.05a31.488,31.488,0,0,0,31.486-31.488V149.4Z" transform="translate(-8 -87.377)"/>
      <g id="picto-ligne" transform="translate(561.943 -107.122)">
        <path id="Tracé_111" data-name="Tracé 111" class="cls-4" d="M-469.3,195.314a16.84,16.84,0,0,1-9.045,14.1"/>
        <path id="Tracé_112" data-name="Tracé 112" class="cls-4" d="M-478.537,217.717a24.256,24.256,0,0,0,16.861-22.4"/>
        <path id="Tracé_113" data-name="Tracé 113" class="cls-5" d="M-485.1,241.788V188.915"/>
        <path id="Tracé_113-2" data-name="Tracé 113" class="cls-5" d="M-514.6,207.539a22.957,22.957,0,0,0,21.88,22.9v11.349"/>
        <path id="Tracé_114" data-name="Tracé 114" class="cls-5" d="M-492.716,199.866v22.949a15.332,15.332,0,0,1-14.267-15.275"/>
        <path id="Tracé_117" data-name="Tracé 117" class="cls-5" d="M-477.411,193.371h19.29a24.921,24.921,0,0,0,10.858-2.476q.547-.266,1.081-.554.267-.146.529-.3.525-.3,1.034-.629c.169-.109.336-.219.5-.332q.75-.507,1.461-1.066.237-.186.469-.378.928-.767,1.781-1.619.426-.426.831-.871a25.156,25.156,0,0,0,1.889-2.345q.35-.492.676-1a24.913,24.913,0,0,0,3.955-13.5h0a25.1,25.1,0,0,0-23.615-25.027,34.657,34.657,0,0,0-10.062-20.959q-.3-.294-.6-.581c-.066-.063-.133-.124-.2-.187-.135-.127-.271-.254-.408-.378-.08-.073-.162-.144-.243-.217-.125-.112-.25-.223-.377-.333l-.262-.224-.369-.31-.273-.223-.37-.3-.28-.218q-.186-.144-.375-.285l-.283-.211q-.192-.141-.387-.279l-.279-.2c-.136-.1-.273-.188-.41-.281-.089-.06-.176-.121-.265-.18-.158-.1-.317-.207-.476-.309l-.207-.134q-.34-.214-.685-.422c-.07-.042-.142-.083-.213-.124-.162-.1-.324-.191-.488-.284l-.292-.162c-.139-.077-.278-.154-.418-.229-.106-.057-.212-.112-.319-.168-.133-.069-.265-.139-.4-.207l-.333-.166q-.2-.1-.393-.192l-.342-.161-.393-.18-.337-.147-.395-.169c-.117-.049-.234-.1-.351-.147-.134-.055-.269-.108-.4-.161-.116-.046-.233-.093-.35-.137-.139-.053-.28-.1-.42-.156l-.34-.125c-.164-.058-.328-.113-.493-.169s-.325-.109-.489-.161-.352-.113-.53-.167l-.36-.1c-.139-.041-.278-.082-.417-.121s-.255-.069-.382-.1-.266-.071-.4-.105-.262-.065-.394-.1l-.4-.094-.4-.088-.4-.084-.4-.08-.4-.073c-.135-.024-.27-.049-.4-.071l-.4-.064-.4-.062c-.135-.02-.273-.037-.409-.055s-.268-.036-.4-.052-.285-.032-.427-.047l-.388-.042q-.383-.038-.768-.066-1.317-.1-2.652-.1a35.128,35.128,0,0,0-33.594,25.4"/>
        <path id="Tracé_118" data-name="Tracé 118" class="cls-5" d="M-482.184,169.146a28.184,28.184,0,0,0-28.793-27.562A28.161,28.161,0,0,0-519.2,143h0l-.094.033c-.209.07-.418.142-.625.217h0a28.3,28.3,0,0,0-18.4,22.837,20.462,20.462,0,0,0-18.538,22.22,20.463,20.463,0,0,0,20.368,18.621l17.294.026h0l5.483.008h.05a31.487,31.487,0,0,0,31.486-31.488v-6.328Z"/>
        <line id="Ligne_58" data-name="Ligne 58" class="cls-6" x1="60" transform="translate(-518.452 241.823)"/>
      </g>
    </g>
  </g>
</svg>
