<svg xmlns="http://www.w3.org/2000/svg" xmlns:xlink="http://www.w3.org/1999/xlink" width="140" height="140" viewBox="0 0 140 140">
  <defs>
    <style>
      .cls-1 {
        clip-path: url(#clip-assiette);
      }

      .cls-2 {
        fill: #00c;
      }

      .cls-3 {
        fill: #6877ff;
      }

      .cls-4, .cls-5, .cls-6 {
        fill: none;
      }

      .cls-4, .cls-6 {
        stroke: #fff;
        stroke-linecap: round;
        stroke-miterlimit: 10;
        stroke-width: 4px;
      }

      .cls-6 {
        stroke-linejoin: round;
      }

      .cls-7, .cls-8 {
        stroke: none;
      }

      .cls-8 {
        fill: #fff;
      }
    </style>
    <clipPath id="clip-assiette">
      <rect width="140" height="140"/>
    </clipPath>
  </defs>
  <g id="assiette" class="cls-1">
    <g id="Groupe_194" data-name="Groupe 194">
      <path id="picto-x-2" class="cls-2" d="M-445.5,51a56.146,56.146,0,0,1-21.992-4.44,56.313,56.313,0,0,1-17.959-12.108A56.312,56.312,0,0,1-497.56,16.492,56.147,56.147,0,0,1-502-5.5a56.146,56.146,0,0,1,4.44-21.992,56.313,56.313,0,0,1,12.108-17.959A56.313,56.313,0,0,1-467.492-57.56,56.145,56.145,0,0,1-445.5-62a56.147,56.147,0,0,1,21.993,4.44,56.312,56.312,0,0,1,17.959,12.108A56.311,56.311,0,0,1-393.44-27.492,56.147,56.147,0,0,1-389-5.5a56.147,56.147,0,0,1-4.44,21.992,56.311,56.311,0,0,1-12.108,17.959A56.311,56.311,0,0,1-423.508,46.56,56.147,56.147,0,0,1-445.5,51Zm.419-94.585a36.871,36.871,0,0,0-36.83,36.829,36.871,36.871,0,0,0,36.83,36.83,36.871,36.871,0,0,0,36.83-36.83A36.871,36.871,0,0,0-445.081-43.585Z" transform="translate(516 77)"/>
      <path id="picto-x-1" class="cls-3" d="M-464.7,23a36.935,36.935,0,0,1-14.519-2.943,37.169,37.169,0,0,1-11.857-8.027A37.34,37.34,0,0,1-499.069.124,37.354,37.354,0,0,1-502-14.456a37.45,37.45,0,0,1,2.382-13.2,37.357,37.357,0,0,1,6.565-11.14A37.392,37.392,0,0,1-483.174-47a36.869,36.869,0,0,1,12.323-4.4A76.838,76.838,0,0,0-471.9-38.717a75.955,75.955,0,0,0,25.587,56.861,37.024,37.024,0,0,1-8.719,3.587A37.265,37.265,0,0,1-464.7,23Z" transform="translate(535 85)"/>
      <g id="picto-ligne">
        <path id="Tracé_146" data-name="Tracé 146" class="cls-4" d="M161.8,160.737A23.039,23.039,0,0,0,151.4,173.583" transform="translate(-101.338 -108.895)"/>
        <path id="Tracé_147" data-name="Tracé 147" class="cls-4" d="M311,302.869a23.032,23.032,0,0,0,10.406-12.846" transform="translate(-231.462 -214.06)"/>
        <g id="Tracé_390" data-name="Tracé 390" class="cls-5" transform="translate(32 33)">
          <path class="cls-7" d="M38,0A38,38,0,1,1,0,38,38,38,0,0,1,38,0Z"/>
        </g>
        <g id="Groupe_114" data-name="Groupe 114" transform="translate(-770.49 -604.033)">
          <path id="Tracé_164" data-name="Tracé 164" class="cls-6" d="M570.925,96.556V127.08c0,4.11-2.067,9.42-7.443,10.507l-.177,4.8a180.951,180.951,0,0,0,3.421,41.925l1.124,5.6a4.966,4.966,0,0,1-4.895,5.8H557.88a4.966,4.966,0,0,1-4.894-5.8l1.124-5.6a180.964,180.964,0,0,0,3.421-41.925l-.177-4.8c-5.375-1.087-7.443-6.4-7.443-10.507V96.556" transform="translate(226.289 529.659)"/>
          <line id="Ligne_75" data-name="Ligne 75" class="cls-4" y2="26.145" transform="translate(783.205 626.215)"/>
          <line id="Ligne_76" data-name="Ligne 76" class="cls-4" y2="26.145" transform="translate(790.21 626.215)"/>
        </g>
        <path id="Tracé_166" data-name="Tracé 166" class="cls-6" d="M771.8,148.164V96.556h0c2.723,0,13.923,8.9,13.923,19.745v27.885a7.683,7.683,0,0,1-4.862,7.146h0a1.364,1.364,0,0,0-.865,1.3,188.056,188.056,0,0,0,3.476,31.681l1.124,5.6a4.966,4.966,0,0,1-4.895,5.8h-5.076a4.966,4.966,0,0,1-4.894-5.8l1.124-5.6a180.95,180.95,0,0,0,3.471-30.864,3.325,3.325,0,0,0-.667-2.081l-1.179-1.163A3.4,3.4,0,0,1,771.8,148.164Z" transform="translate(-653.814 -74.374)"/>
      </g>
    </g>
  </g>
</svg>
