<svg xmlns="http://www.w3.org/2000/svg" xmlns:xlink="http://www.w3.org/1999/xlink" width="140" height="140" viewBox="0 0 140 140">
  <defs>
    <style>
      .cls-1 {
        clip-path: url(#clip-bateau);
      }

      .cls-2 {
        fill: #00c;
      }

      .cls-3 {
        fill: #6877ff;
      }

      .cls-4, .cls-5 {
        fill: none;
        stroke: #fff;
        stroke-linecap: round;
        stroke-miterlimit: 10;
        stroke-width: 4px;
      }

      .cls-4 {
        stroke-linejoin: round;
      }
    </style>
    <clipPath id="clip-bateau">
      <rect width="140" height="140"/>
    </clipPath>
  </defs>
  <g id="bateau" class="cls-1">
    <g id="Groupe_63" data-name="Groupe 63">
      <g id="picto-x-2" transform="translate(-0.233 0.314)">
        <path id="Tracé_109" data-name="Tracé 109" class="cls-2" d="M173.277,113.478c11.1-5.919,19.776-10.1,31.521-13.96V88.759l-27.473,5Z" transform="translate(-133 -62)"/>
        <path id="Tracé_110" data-name="Tracé 110" class="cls-2" d="M205.5,113.478c-11.344-5.919-20.214-10.1-32.218-13.96V88.759l28.081,5Z" transform="translate(-101.479 -62)"/>
      </g>
      <path id="picto-x-1" class="cls-3" d="M180.975,118.153c-2.5,35.35,7.685,66.665,9.222,71.468-7.877.961-9.222,5.187-16.138,5.379-4.611-8.261-17.483-37.847-19.98-55.714C160.995,131.025,171.946,123.34,180.975,118.153Z" transform="translate(-133.233 -61.686)"/>
      <g id="picto-ligne" transform="translate(5.362 2.582)">
        <path id="Tracé_100" data-name="Tracé 100" class="cls-4" d="M1.638,477.412c5.588-4.671,11.855-8.193,19.055-4.415,6.514,3.416,13.3,4.959,20.217,1.486,5.581-2.8,10.961-5.209,17.071-2.153l6.281,3.142a19.249,19.249,0,0,0,16.992.166c3.343-1.591,6.751-3.729,10.538-3.916,3.712-.183,7.267,1.267,10.493,2.96a19.463,19.463,0,0,0,13.937,1.535c4.28-1.131,7.43-3.629,10.744-6.4" transform="translate(0 -345.521)"/>
        <path id="Tracé_101" data-name="Tracé 101" class="cls-5" d="M140.3,307.523c1.117-.738,2.235-1.428,3.342-2.052" transform="translate(-103.388 -222.98)"/>
        <path id="Tracé_102" data-name="Tracé 102" class="cls-5" d="M81.173,336.126c2.825-2.552,6.333-5.644,10.055-8.51" transform="translate(-59.303 -239.492)"/>
        <path id="Tracé_103" data-name="Tracé 103" class="cls-4" d="M138.49,230.5c8.758-16.9,17.431-45.514,18.681-52.317-14.676-15.435-37.851-28.606-51.177-33.7-13.325,5.094-36.5,18.266-51.177,33.7,1.332,7.252,11.1,39.295,20.414,55.5" transform="translate(-39.652 -102.944)"/>
        <path id="Tracé_104" data-name="Tracé 104" class="cls-4" d="M162.911,228.645c-16.9-14.379-33.335-24.494-48.2-31.154-14.869,6.66-31.307,16.775-48.2,31.154" transform="translate(-48.364 -142.468)"/>
        <path id="Tracé_105" data-name="Tracé 105" class="cls-5" d="M376.948,319.615c-4.892-4.419-11.833-10.457-18.382-14.144" transform="translate(-266.133 -222.98)"/>
        <path id="Tracé_106" data-name="Tracé 106" class="cls-4" d="M194.9,113.024l-3.424-19.051-28.217-5.082h0l-28.217,5.082-3.424,19.051" transform="translate(-96.916 -64.493)"/>
        <path id="Tracé_107" data-name="Tracé 107" class="cls-4" d="M236.545,29.212,234.164,6.418H218.778L216.4,29.212" transform="translate(-160.128 -3)"/>
        <line id="Ligne_55" data-name="Ligne 55" class="cls-5" x1="17.767" transform="translate(57.459 14.815)"/>
        <line id="Ligne_56" data-name="Ligne 56" class="cls-5" y2="58.343" transform="translate(66.342 41.538)"/>
        <line id="Ligne_57" data-name="Ligne 57" class="cls-5" y2="3.33" transform="translate(66.342 106.985)"/>
      </g>
    </g>
  </g>
</svg>
