<svg xmlns="http://www.w3.org/2000/svg" xmlns:xlink="http://www.w3.org/1999/xlink" width="140" height="140" viewBox="0 0 140 140">
  <defs>
    <style>
      .cls-1 {
        clip-path: url(#clip-camera);
      }

      .cls-2 {
        fill: #00c;
      }

      .cls-3 {
        fill: #6877ff;
      }

      .cls-4, .cls-5 {
        fill: none;
      }

      .cls-4, .cls-5, .cls-6 {
        stroke: #fff;
        stroke-linecap: round;
        stroke-width: 4px;
      }

      .cls-4, .cls-6 {
        stroke-linejoin: round;
        stroke-miterlimit: 10;
      }

      .cls-6 {
        fill: rgba(0,0,0,0);
      }
    </style>
    <clipPath id="clip-camera">
      <rect width="140" height="140"/>
    </clipPath>
  </defs>
  <g id="camera" class="cls-1">
    <g id="Groupe_152" data-name="Groupe 152" transform="matrix(0.995, -0.105, 0.105, 0.995, -8.762, 6.802)">
      <g id="picto-x-2" transform="translate(8.674 17.823)">
        <path id="Exclusion_5" data-name="Exclusion 5" class="cls-2" d="M-1159.674-30.821h-87v-49h87v49ZM-1233.551-69a5.006,5.006,0,0,0-5,5v18.873a5.006,5.006,0,0,0,5,5h28.44a5.006,5.006,0,0,0,5-5V-64a5.006,5.006,0,0,0-5-5Z" transform="translate(1250 132)"/>
      </g>
      <g id="picto-x-1">
        <path id="Union_8" data-name="Union 8" class="cls-3" d="M-1231.2-34.611v-18.74L-1210.438-62v36.038Zm-6.8,4.463V-57.814h6.046v27.666Z" transform="translate(1343.868 135.352)"/>
        <path id="Exclusion_3" data-name="Exclusion 3" class="cls-3" d="M-1177.931-31.419h-44.542a24.042,24.042,0,0,1-17.113-7.088,24.044,24.044,0,0,1-7.088-17.113,24.044,24.044,0,0,1,7.088-17.113,24.042,24.042,0,0,1,17.113-7.089,24.082,24.082,0,0,1,13.5,4.113,24.211,24.211,0,0,1,8.77,10.6,24.213,24.213,0,0,1,8.769-10.6,24.08,24.08,0,0,1,13.5-4.113,24.043,24.043,0,0,1,17.114,7.089,24.044,24.044,0,0,1,7.088,17.113,24.044,24.044,0,0,1-7.088,17.113A24.044,24.044,0,0,1-1177.931-31.419Zm-.127-36.907a12.72,12.72,0,0,0-12.705,12.705,12.72,12.72,0,0,0,12.705,12.705,12.72,12.72,0,0,0,12.706-12.705A12.72,12.72,0,0,0-1178.058-68.326Zm-44.414,0a12.72,12.72,0,0,0-12.705,12.705,12.72,12.72,0,0,0,12.705,12.705,12.72,12.72,0,0,0,12.705-12.705A12.72,12.72,0,0,0-1222.472-68.326Z" transform="translate(1255.348 97.645)"/>
      </g>
      <g id="picto-ligne">
        <path id="Tracé_231" data-name="Tracé 231" class="cls-4" d="M220.334,242H215v49.694h87.067V242.288h-4.325" transform="translate(-203.531 -173.058)"/>
        <path id="Tracé_233" data-name="Tracé 233" class="cls-4" d="M527.694,271.815h6.045v27.666h-6.045" transform="translate(-421.827 -194.277)"/>
        <path id="Tracé_235" data-name="Tracé 235" class="cls-4" d="M558.664,265.945l20.758-8.649v36.038l-20.758-8.649" transform="translate(-445.992 -183.944)"/>
        <path id="Tracé_237" data-name="Tracé 237" class="cls-5" d="M5,0H33.44a5,5,0,0,1,5,5V23.873a5,5,0,0,1-5,5H5a5,5,0,0,1-5-5V5A5,5,0,0,1,5,0Z" transform="translate(20.123 80.821)"/>
        <g id="Groupe_148" data-name="Groupe 148" transform="translate(8.674 17.823)">
          <path id="Exclusion_4" data-name="Exclusion 4" class="cls-6" d="M-1177.931-31.419h-44.542a24.042,24.042,0,0,1-17.113-7.088,24.044,24.044,0,0,1-7.088-17.113,24.044,24.044,0,0,1,7.088-17.113,24.042,24.042,0,0,1,17.113-7.089,24.082,24.082,0,0,1,13.5,4.113,24.211,24.211,0,0,1,8.77,10.6,24.213,24.213,0,0,1,8.769-10.6,24.08,24.08,0,0,1,13.5-4.113,24.043,24.043,0,0,1,17.114,7.089,24.044,24.044,0,0,1,7.088,17.113,24.044,24.044,0,0,1-7.088,17.113A24.044,24.044,0,0,1-1177.931-31.419Zm-.127-36.907a12.72,12.72,0,0,0-12.705,12.705,12.72,12.72,0,0,0,12.705,12.706,12.72,12.72,0,0,0,12.705-12.706A12.72,12.72,0,0,0-1178.058-68.326Zm-44.415,0a12.72,12.72,0,0,0-12.705,12.705,12.72,12.72,0,0,0,12.705,12.706,12.721,12.721,0,0,0,12.706-12.706A12.72,12.72,0,0,0-1222.473-68.326Z" transform="translate(1246.674 79.823)"/>
        </g>
      </g>
    </g>
  </g>
</svg>
