<svg xmlns="http://www.w3.org/2000/svg" xmlns:xlink="http://www.w3.org/1999/xlink" width="140" height="140" viewBox="0 0 140 140">
  <defs>
    <style>
      .cls-1 {
        clip-path: url(#clip-cerveau);
      }

      .cls-2 {
        fill: #6877ff;
      }

      .cls-3 {
        fill: #00c;
      }

      .cls-4, .cls-5 {
        fill: none;
        stroke: #fff;
        stroke-linecap: round;
        stroke-miterlimit: 10;
        stroke-width: 4px;
      }

      .cls-4 {
        stroke-linejoin: round;
      }
    </style>
    <clipPath id="clip-cerveau">
      <rect width="140" height="140"/>
    </clipPath>
  </defs>
  <g id="cerveau" class="cls-1">
    <g id="Intelligence" transform="translate(-704.016 -6.487)">
      <g id="picto-x-1" transform="translate(-9.434 -1.342)">
        <ellipse id="picto-x-1-2" data-name="picto-x-1" class="cls-2" cx="66.097" cy="9.399" rx="66.097" ry="9.399" transform="translate(717.325 116.638)"/>
      </g>
      <g id="picto-x-2" transform="translate(698.665 10.907)">
        <circle id="Ellipse_9" data-name="Ellipse 9" class="cls-3" cx="36.546" cy="36.546" r="36.546" transform="translate(5.688 16.203)"/>
      </g>
      <g id="picto-ligne" transform="translate(710.937 20.179)">
        <path id="Tracé_18" data-name="Tracé 18" class="cls-4" d="M792.918,92.737a43.769,43.769,0,0,1,3.252,6.207,6.411,6.411,0,0,1-4.334,8.077l-1.011.318-4.955-6.413m4.955,6.413,3.22,6.258a5.536,5.536,0,0,1-4.921,8.069h-2.49a5.536,5.536,0,0,1-4.652-2.535L765.323,93.3l-20.148.468a20.349,20.349,0,0,1-20.094-17.217,15.621,15.621,0,0,1-.176-31.084,15.533,15.533,0,0,1,18.127-13.735,20.325,20.325,0,0,1,35.532-2.055,20.35,20.35,0,0,1,35.314,6.595,20.367,20.367,0,0,1,16.134,24.124,18.744,18.744,0,0,1-11.727,33.372c-.582,0-1.155-.035-1.724-.088-4.606,8.8-15.322,9.545-23.789-.941" transform="translate(-710.937 -20.179)"/>
        <path id="Tracé_19" data-name="Tracé 19" class="cls-5" d="M772.138,67.843" transform="translate(-682.445 2.011)"/>
        <path id="Tracé_20" data-name="Tracé 20" class="cls-4" d="M720.588,70.307s.447-7.026,6.058-6.822c3.368.122,17.094.041,21.787.01a12.084,12.084,0,0,0,6.645-1.9c2.563-1.709,5.191-4.948,5.446-11.071,25,2.348,25.408-16.939,25.408-16.939" transform="translate(-706.444 -13.937)"/>
        <path id="Tracé_21" data-name="Tracé 21" class="cls-5" d="M786.54,57.528s-21.891,2.691-27.365-14.217" transform="translate(-688.48 -9.41)"/>
        <path id="Tracé_22" data-name="Tracé 22" class="cls-5" d="M752.086,64.745s17.3,1.751,19.568-13.921" transform="translate(-691.78 -5.912)"/>
        <path id="Tracé_23" data-name="Tracé 23" class="cls-5" d="M720.468,37.475s12.145-2.263,14.8,11.66" transform="translate(-706.5 -12.19)"/>
        <path id="Tracé_24" data-name="Tracé 24" class="cls-5" d="M740.654,34.561s-1,8.169-12.234,8.524" transform="translate(-702.798 -13.483)"/>
        <path id="Tracé_25" data-name="Tracé 25" class="cls-5" d="M783.539,31.158s3.588,14-7.432,17.811" transform="translate(-680.597 -15.068)"/>
        <path id="Tracé_26" data-name="Tracé 26" class="cls-5" d="M786.222,73.174S781,73,776.107,64.222" transform="translate(-680.597 0.325)"/>
      </g>
    </g>
  </g>
</svg>
