<svg xmlns="http://www.w3.org/2000/svg" xmlns:xlink="http://www.w3.org/1999/xlink" width="140" height="140" viewBox="0 0 140 140">
  <defs>
    <style>
      .cls-1 {
        clip-path: url(#clip-click-collect);
      }

      .cls-2 {
        fill: #00c;
      }

      .cls-3 {
        fill: #6877ff;
      }

      .cls-4 {
        fill: none;
        stroke: #fff;
        stroke-linecap: round;
        stroke-linejoin: round;
        stroke-width: 4px;
      }
    </style>
    <clipPath id="clip-click-collect">
      <rect width="140" height="140"/>
    </clipPath>
  </defs>
  <g id="click-collect" class="cls-1">
    <g id="Groupe_193" data-name="Groupe 193" transform="translate(-1 -1)">
      <g id="picto-x-2" transform="translate(86.677 16.955)">
        <path id="Soustraction_37" data-name="Soustraction 37" class="cls-2" d="M37.739,109.76h-11.2a3.452,3.452,0,0,1-1.949-.6,3.552,3.552,0,0,1-1.262-1.53,3.456,3.456,0,0,1-.276-1.356V98.758H12.559v7.32L0,99.073,5.58,86.268H36.9a.7.7,0,0,0,.7-.7v-19.5a.7.7,0,0,0-.7-.7H14.687l2.933-6.73H36.9a.7.7,0,0,0,.7-.7v-19.5a.7.7,0,0,0-.7-.7H26.727l3.087-7.085H36.9a.7.7,0,0,0,.7-.7V12.788L43.169,0a4.718,4.718,0,0,1,.776.431A4.906,4.906,0,0,1,46.1,4.476v89.4a4.816,4.816,0,0,1-.843,2.729,4.923,4.923,0,0,1-2.147,1.769,4.8,4.8,0,0,1-1.9.386v7.518a3.5,3.5,0,0,1-.588,1.948,3.56,3.56,0,0,1-1.53,1.26A3.5,3.5,0,0,1,37.739,109.76Z" transform="translate(0 0)"/>
      </g>
      <g id="picto-x-1" transform="translate(87.893 32.871)">
        <path id="Tracé_378" data-name="Tracé 378" class="cls-3" d="M2985.363,712.513a2.661,2.661,0,0,0,1.494.459h11.366a2.63,2.63,0,0,0,1.046-.212,2.715,2.715,0,0,0,1.646-2.471v-2.954a2.7,2.7,0,0,0-2.692-2.684h-1.169v-.513a2.686,2.686,0,0,0-.217-1.049,2.7,2.7,0,0,0-2.468-1.637h-3.644a2.66,2.66,0,0,0-1.047.213,2.685,2.685,0,0,0-1.645,2.473v.513h-1.177a2.711,2.711,0,0,0-1.046.213,2.7,2.7,0,0,0-1.631,2.471v2.954a2.816,2.816,0,0,0,.209,1.046,2.654,2.654,0,0,0,.974,1.178Z" transform="translate(-2984.18 -701.452)"/>
        <path id="Tracé_379" data-name="Tracé 379" class="cls-3" d="M2999.219,790.775a3.457,3.457,0,0,0,1.952.6h18.242a3.48,3.48,0,0,0,2.893-1.537,3.509,3.509,0,0,0,.6-1.954v-3.39a3.333,3.333,0,0,0-.284-1.361,3.453,3.453,0,0,0-1.256-1.531,3.488,3.488,0,0,0-1.951-.6h-18.242a3.5,3.5,0,0,0-3.492,3.492v3.39a3.492,3.492,0,0,0,1.54,2.893Z" transform="translate(-2989.487 -751.837)"/>
        <path id="Tracé_380" data-name="Tracé 380" class="cls-3" d="M2986.208,869.133a2.935,2.935,0,0,0,1.646.506h14.014a2.9,2.9,0,0,0,1.146-.234,2.85,2.85,0,0,0,1.288-1.06,2.905,2.905,0,0,0,.509-1.645v-2.6a2.911,2.911,0,0,0-.236-1.145,2.923,2.923,0,0,0-2.19-1.748v-.477a1.966,1.966,0,0,0-.88-1.665,1.984,1.984,0,0,0-1.124-.344h-4.538a2.079,2.079,0,0,0-.78.156,1.993,1.993,0,0,0-.887.729,2.015,2.015,0,0,0-.336,1.124v.431h-5.983a2.9,2.9,0,0,0-1.146.233,2.931,2.931,0,0,0-1.789,2.706v2.6a2.921,2.921,0,0,0,.229,1.144,2.968,2.968,0,0,0,1.059,1.288Z" transform="translate(-2971.02 -802.591)"/>
      </g>
      <g id="picto-ligne" transform="translate(8.972 15.436)">
        <path id="Tracé_374" data-name="Tracé 374" class="cls-4" d="M2789.176,767.268h0l6.794,10.968h0a4.713,4.713,0,0,1,.7,2.464v20.727a4.672,4.672,0,1,1-9.345,0V782.4a1.273,1.273,0,0,0-.2-.675l-8.36-13.491a1.276,1.276,0,0,0-1.375-.575c-.191.045-.382.079-.56.108a1.292,1.292,0,0,0-1.07,1.022l-2.8,14.3h0a3.542,3.542,0,0,1-.127.487h0l-5.958,19.236a4.695,4.695,0,0,1-4.471,3.29,4.686,4.686,0,0,1-4.464-6.059l5.874-18.931c.014-.051.021-.08.035-.133l3.911-19.961a1.229,1.229,0,0,0,.021-.361,5.545,5.545,0,0,1-.028-.684V739.556a1.3,1.3,0,0,0-.744-1.162,1.283,1.283,0,0,0-1.367.181l-3.493,2.93a1.322,1.322,0,0,0-.425.712l-3.415,15.838a3.932,3.932,0,0,1-3.847,3.11,4.041,4.041,0,0,1-.836-.089,3.93,3.93,0,0,1-3.11-3.849,3.788,3.788,0,0,1,.092-.835h0l3.791-17.585h0a3.909,3.909,0,0,1,1.318-2.189h0l11.8-9.9a1.331,1.331,0,0,0,.432-.7,7.881,7.881,0,0,1,11.591-5.123,8.021,8.021,0,0,1,2.813,2.726,1.27,1.27,0,0,0,.539.486L2796,730.247a1.285,1.285,0,0,0,1.516-.32l7.857-9.107a4.067,4.067,0,0,1,1.375-1.019,3.946,3.946,0,0,1,2.962-.108,3.994,3.994,0,0,1,2.246,2.091,3.916,3.916,0,0,1,.106,2.964,3.826,3.826,0,0,1-.723,1.225l-10.443,12.1a3.946,3.946,0,0,1-2.99,1.362,3.922,3.922,0,0,1-1.672-.372l-10.89-5.109a1.285,1.285,0,0,0-1.828,1.161v16.814" transform="translate(-2750.52 -697.044)"/>
        <path id="Tracé_376" data-name="Tracé 376" class="cls-4" d="M2813.749,669.688a9.773,9.773,0,0,1-3.529,4.277,9.726,9.726,0,0,1-9.21.895,9.787,9.787,0,0,1-4.279-3.521,9.784,9.784,0,0,1-.893-9.215,9.765,9.765,0,0,1,3.521-4.274,9.74,9.74,0,0,1,9.218-.895,9.754,9.754,0,0,1,4.272,3.521,9.759,9.759,0,0,1,.9,9.213Z" transform="translate(-2779.294 -656.19)"/>
        <path id="Tracé_377" data-name="Tracé 377" class="cls-4" d="M2943.236,659.716a4.9,4.9,0,0,0-2.14,1.768,4.832,4.832,0,0,0-.836,2.729v89.4a4.9,4.9,0,0,0,4.889,4.884h0v7.518a3.469,3.469,0,0,0,.269,1.356,3.549,3.549,0,0,0,1.261,1.53,3.479,3.479,0,0,0,1.948.6h11.194a3.5,3.5,0,0,0,3.486-3.484V758.5H2973.8v7.518a3.474,3.474,0,0,0,.276,1.356,3.552,3.552,0,0,0,1.261,1.53,3.463,3.463,0,0,0,1.948.6h11.2a3.473,3.473,0,0,0,1.353-.277,3.56,3.56,0,0,0,1.531-1.26,3.522,3.522,0,0,0,.588-1.948V758.5h0a4.811,4.811,0,0,0,1.9-.386,4.924,4.924,0,0,0,2.147-1.768,4.833,4.833,0,0,0,.843-2.729v-89.4a4.862,4.862,0,0,0-.39-1.9,4.946,4.946,0,0,0-1.764-2.145,4.811,4.811,0,0,0-2.735-.839h-46.811a4.92,4.92,0,0,0-1.913.386Zm1.913,98.779h7.313m21.339,0h10.792" transform="translate(-2873.044 -658.218)"/>
        <path id="Tracé_385" data-name="Tracé 385" class="cls-4" d="M.7,0H38.976a.7.7,0,0,1,.7.7V20.2a.7.7,0,0,1-.7.7H.7a.7.7,0,0,1-.7-.7V.7A.7.7,0,0,1,.7,0Z" transform="translate(75.626 66.887)"/>
        <path id="Tracé_384" data-name="Tracé 384" class="cls-4" d="M.7,0H38.976a.7.7,0,0,1,.7.7V20.2a.7.7,0,0,1-.7.7H.7a.7.7,0,0,1-.7-.7V.7A.7.7,0,0,1,.7,0Z" transform="translate(75.626 39.255)"/>
        <path id="Tracé_383" data-name="Tracé 383" class="cls-4" d="M.7,0H38.976a.7.7,0,0,1,.7.7V20.2a.7.7,0,0,1-.7.7H.7a.7.7,0,0,1-.7-.7V.7A.7.7,0,0,1,.7,0Z" transform="translate(75.626 11.269)"/>
      </g>
    </g>
  </g>
</svg>
