<svg xmlns="http://www.w3.org/2000/svg" xmlns:xlink="http://www.w3.org/1999/xlink" width="140" height="140" viewBox="0 0 140 140">
  <defs>
    <style>
      .cls-1 {
        clip-path: url(#clip-cloud-connexion);
      }

      .cls-2 {
        fill: #6877ff;
      }

      .cls-3 {
        fill: #00c;
      }

      .cls-4, .cls-5, .cls-6, .cls-7 {
        fill: none;
        stroke: #fff;
        stroke-linecap: round;
        stroke-width: 4px;
      }

      .cls-4, .cls-7 {
        stroke-linejoin: round;
      }

      .cls-4, .cls-5 {
        stroke-miterlimit: 10;
      }
    </style>
    <clipPath id="clip-cloud-connexion">
      <rect width="140" height="140"/>
    </clipPath>
  </defs>
  <g id="cloud-connexion" class="cls-1">
    <g id="Groupe_140" data-name="Groupe 140">
      <path id="picto-x-1" class="cls-2" d="M101.622,64.984H17.377c-.245.011-.49.016-.737.016a16.771,16.771,0,0,1-3.521-33.139A26.308,26.308,0,0,1,39.33,6.094a25.98,25.98,0,0,1,15.246,4.92,26.689,26.689,0,0,1,48.289,15.9,27.287,27.287,0,0,1-.384,4.571A16.758,16.758,0,0,1,102.36,65C102.112,65,101.867,64.994,101.622,64.984Z" transform="translate(4 18.625)"/>
      <g id="picto-x-2" transform="translate(-8.679 -124)">
        <g id="Groupe_139" data-name="Groupe 139" transform="translate(8.679 124)">
          <circle id="Ellipse_116" data-name="Ellipse 116" class="cls-3" cx="7.5" cy="7.5" r="7.5" transform="translate(63 121)"/>
          <circle id="Ellipse_118" data-name="Ellipse 118" class="cls-3" cx="7.5" cy="7.5" r="7.5" transform="translate(100 93)"/>
          <circle id="Ellipse_117" data-name="Ellipse 117" class="cls-3" cx="7.5" cy="7.5" r="7.5" transform="translate(26 106)"/>
        </g>
      </g>
      <g id="picto-ligne">
        <path id="Tracé_59" data-name="Tracé 59" class="cls-4" d="M103.122,83.307H119.89a17.468,17.468,0,0,0,3.777-34.522A33.654,33.654,0,0,0,59.655,29.644,26.126,26.126,0,0,0,18.935,51.311c0,.052,0,.1,0,.156a16.075,16.075,0,0,0,3.138,31.841H37.931" transform="translate(-1.679 0.528)"/>
        <path id="Tracé_56" data-name="Tracé 56" class="cls-5" d="M111.37,105.347a17.7,17.7,0,0,0-17.013,12.925" transform="translate(-66.695 -70.02)"/>
        <path id="Tracé_217" data-name="Tracé 217" class="cls-6" d="M65.679,32.567v71.009" transform="translate(4.821 17)"/>
        <path id="Tracé_218" data-name="Tracé 218" class="cls-7" d="M80.371,46.877v39.86H94.85" transform="translate(4.321 13.263)"/>
        <path id="Tracé_219" data-name="Tracé 219" class="cls-7" d="M51.145,59.278V101.1H36.555" transform="translate(4.445 12.397)"/>
        <circle id="Ellipse_113" data-name="Ellipse 113" class="cls-7" cx="7.5" cy="7.5" r="7.5" transform="translate(63 121)"/>
        <circle id="Ellipse_114" data-name="Ellipse 114" class="cls-7" cx="7.5" cy="7.5" r="7.5" transform="translate(100 93)"/>
        <circle id="Ellipse_115" data-name="Ellipse 115" class="cls-7" cx="7.5" cy="7.5" r="7.5" transform="translate(26 106)"/>
      </g>
    </g>
  </g>
</svg>
