<svg xmlns="http://www.w3.org/2000/svg" xmlns:xlink="http://www.w3.org/1999/xlink" width="140" height="140" viewBox="0 0 140 140">
  <defs>
    <style>
      .cls-1 {
        clip-path: url(#clip-danger-humain);
      }

      .cls-2 {
        fill: #00c;
      }

      .cls-3 {
        fill: #6877ff;
      }

      .cls-4 {
        fill: none;
        stroke: #fff;
        stroke-linecap: round;
        stroke-linejoin: round;
        stroke-miterlimit: 10;
        stroke-width: 4px;
      }
    </style>
    <clipPath id="clip-danger-humain">
      <rect width="140" height="140"/>
    </clipPath>
  </defs>
  <g id="danger-humain" class="cls-1">
    <g id="Groupe_180" data-name="Groupe 180">
      <g id="picto-x-2">
        <path id="Soustraction_29" data-name="Soustraction 29" class="cls-2" d="M46.965,95h0a47.767,47.767,0,0,1-9.478-1.054,47.248,47.248,0,0,1-16.8-7.23,47.639,47.639,0,0,1-17-20.84A47.28,47.28,0,0,1,.952,57.012,47.961,47.961,0,0,1,.965,37.929,47.22,47.22,0,0,1,8.112,20.944a47.648,47.648,0,0,1,20.9-17.211A47.261,47.261,0,0,1,37.928.965a47.952,47.952,0,0,1,19.145,0A47.233,47.233,0,0,1,74.058,8.113a47.64,47.64,0,0,1,17.209,20.9,47.265,47.265,0,0,1,2.768,8.917A47.819,47.819,0,0,1,95,47.5c0,.594-.011,1.2-.033,1.787a21.534,21.534,0,0,1-4.851,5.863,21.9,21.9,0,0,1-6.666,3.879,26.192,26.192,0,0,1-9.083,1.54H58.049a30.436,30.436,0,0,1-9.237-1.54A21.557,21.557,0,0,1,44.385,56.8a21.811,21.811,0,0,1-3.75-3.122,22.392,22.392,0,0,1-2.97-3.873,22.963,22.963,0,0,1-2.09-4.48l-4.31-13.394a8.3,8.3,0,0,0-3.107-4.383,8.477,8.477,0,0,0-2.364-1.2,8.613,8.613,0,0,0-2.659-.42,8.843,8.843,0,0,0-2.8.458A8.326,8.326,0,0,0,15.3,30.562a8.548,8.548,0,0,0-.934,3.252,8.787,8.787,0,0,0,.429,3.51L19.1,50.564A39.131,39.131,0,0,0,42.809,75.35c.682.228,1.376.421,2.047.608l.031.009c.644.179,1.374.381,2.078.616ZM66.239,20.642a13.836,13.836,0,0,0-5.949,1.34,15.257,15.257,0,0,0-4.858,3.655,17.236,17.236,0,0,0-3.276,5.422,18.954,18.954,0,0,0,0,13.278,17.236,17.236,0,0,0,3.276,5.422,15.258,15.258,0,0,0,4.858,3.655,13.872,13.872,0,0,0,11.9,0,15.26,15.26,0,0,0,4.858-3.655,17.231,17.231,0,0,0,3.275-5.422,18.951,18.951,0,0,0,0-13.278,17.235,17.235,0,0,0-3.275-5.422,15.261,15.261,0,0,0-4.858-3.655A13.838,13.838,0,0,0,66.239,20.642Z" transform="translate(5 2)"/>
      </g>
      <g id="picto-x-1">
        <path id="Soustraction_35" data-name="Soustraction 35" class="cls-3" d="M48.135,51.805H6.782A6.566,6.566,0,0,1,.941,48.424,7.063,7.063,0,0,1,.787,41.66l20.6-38.124a6.949,6.949,0,0,1,6-3.535,6.775,6.775,0,0,1,6,3.535l10.261,18.85L49.528,33.2l4.6,8.455a7.062,7.062,0,0,1-.154,6.764A6.567,6.567,0,0,1,48.135,51.805ZM26.77,35.433a3.382,3.382,0,1,0,3.382,3.382A3.386,3.386,0,0,0,26.77,35.433Zm-.153-2.766a5.563,5.563,0,0,1,1.691.307L30,19.139v-.461A3.428,3.428,0,0,0,26.616,15.3a3.057,3.057,0,0,0-2.46,1.076,3.156,3.156,0,0,0-.768,2.613L25.079,32.82A4.729,4.729,0,0,1,26.616,32.667Z" transform="translate(68.298 83.474)"/>
      </g>
      <g id="picto-ligne" transform="translate(19.189 23.004)">
        <ellipse id="Ellipse_136" data-name="Ellipse 136" class="cls-4" cx="15.262" cy="17.032" rx="15.262" ry="17.032" transform="translate(36.571)"/>
        <path id="Tracé_253" data-name="Tracé 253" class="cls-4" d="M94.084,76.115a38.951,38.951,0,0,0,21.06-23.52l4.3-13.22a8.727,8.727,0,0,0-16.6-5.38l-4.3,13.374A21.646,21.646,0,0,1,85.322,61.05a26.163,26.163,0,0,1-9.07,1.537H59.957a30.525,30.525,0,0,1-9.224-1.537,22.02,22.02,0,0,1-13.22-13.682l-4.3-13.374A8.49,8.49,0,0,0,22.294,28.46,8.49,8.49,0,0,0,16.76,39.374l4.3,13.22a39.06,39.06,0,0,0,23.674,24.75c1.384.461,2.767.769,4.151,1.23v32.9a4.987,4.987,0,0,0,5.073,4.919h7.994" transform="translate(-16.302 -22.717)"/>
        <path id="Tracé_254" data-name="Tracé 254" class="cls-4" d="M91.427,86.286m0,0L81.166,67.436a6.8,6.8,0,0,0-6-3.536h0a6.98,6.98,0,0,0-6,3.536l-20.6,38.124a7.051,7.051,0,0,0,.154,6.764,6.592,6.592,0,0,0,5.842,3.382H95.923a6.592,6.592,0,0,0,5.842-3.382,7.051,7.051,0,0,0,.154-6.764l-4.6-8.455" transform="translate(0.613 -3.43)"/>
      </g>
    </g>
  </g>
</svg>
