<svg xmlns="http://www.w3.org/2000/svg" xmlns:xlink="http://www.w3.org/1999/xlink" width="140" height="140" viewBox="0 0 140 140">
  <defs>
    <style>
      .cls-1 {
        clip-path: url(#clip-dialogue);
      }

      .cls-2 {
        fill: #00c;
      }

      .cls-3 {
        fill: #6877ff;
      }

      .cls-4, .cls-5 {
        fill: none;
        stroke: #fff;
        stroke-linecap: round;
        stroke-linejoin: round;
        stroke-width: 4px;
      }

      .cls-4 {
        stroke-miterlimit: 10;
      }
    </style>
    <clipPath id="clip-dialogue">
      <rect width="140" height="140"/>
    </clipPath>
  </defs>
  <g id="dialogue" class="cls-1">
    <g id="Groupe_138" data-name="Groupe 138">
      <g id="picto-x-2" transform="translate(0 3)">
        <path id="Soustraction_21" data-name="Soustraction 21" class="cls-2" d="M-806.261-491.642v0l-.08-17.466a33.829,33.829,0,0,1-10.908-15.76l.234-.1a58.774,58.774,0,0,0,13.782,6.533,58.135,58.135,0,0,0,17.982,2.9c19.131,0,34.635-9.675,39.5-24.643a31.539,31.539,0,0,0,1.437-12.222A30.794,30.794,0,0,1-738-533.879a29.978,29.978,0,0,1-3.169,13.408,34.59,34.59,0,0,1-8.642,10.949,41.161,41.161,0,0,1-12.817,7.382,46.042,46.042,0,0,1-15.7,2.707,46.565,46.565,0,0,1-12.721-1.751c-4.594,4.145-7.143,5.6-15.216,9.541Z" transform="translate(873.874 621)"/>
      </g>
      <g id="picto-x-1" transform="translate(0 3)">
        <path id="Soustraction_19" data-name="Soustraction 19" class="cls-3" d="M-797.814-522.427h0c-8.538-4.3-11.234-5.882-16.091-10.4a47.9,47.9,0,0,1-13.452,1.908,47.392,47.392,0,0,1-16.6-2.95,43.231,43.231,0,0,1-13.554-8.046,37.547,37.547,0,0,1-9.139-11.933A33.491,33.491,0,0,1-870-568.459a33.424,33.424,0,0,1,1.532-10.007,35.106,35.106,0,0,1,4.322-8.988,40.751,40.751,0,0,1,15.373-13.476c-6.916,8.95-9.408,19.167-7.014,28.77,3.938,15.793,20.233,26.4,40.548,26.405a59.129,59.129,0,0,0,14.285-1.778,59.521,59.521,0,0,0,11.845-4.319,38.2,38.2,0,0,1-8.62,10.389l-.085,19.034Z" transform="translate(873.874 611)"/>
      </g>
      <g id="picto-ligne" transform="translate(0 3)">
        <path id="Tracé_117" data-name="Tracé 117" class="cls-4" d="M50.807,9.782c-23.55,0-42.642,16.807-42.642,37.541S27.257,84.864,50.807,84.864a47.9,47.9,0,0,0,13.452-1.908c4.788,4.451,7.43,6.037,16.092,10.4l.085-19.036c8.021-6.826,13.01-16.4,13.01-27,0-20.734-19.09-37.541-42.638-37.541Z" transform="translate(-4.291 -4.782)"/>
        <path id="Tracé_118" data-name="Tracé 118" class="cls-5" d="M43.783,94.681l-.073-17.5a33.468,33.468,0,0,1-11.2-24.823" transform="translate(22.896 34.677)"/>
        <path id="Tracé_119" data-name="Tracé 119" class="cls-5" d="M67.9,31.051c22.667,0,41.043,15.453,41.043,34.516S90.57,100.087,67.9,100.087a48.169,48.169,0,0,1-12.947-1.755c-4.608,4.093-7.153,5.549-15.489,9.561" transform="translate(27.212 21.465)"/>
      </g>
    </g>
  </g>
</svg>
