<svg xmlns="http://www.w3.org/2000/svg" xmlns:xlink="http://www.w3.org/1999/xlink" width="140" height="140" viewBox="0 0 140 140">
  <defs>
    <style>
      .cls-1 {
        clip-path: url(#clip-engagement);
      }

      .cls-2 {
        fill: #009;
      }

      .cls-3 {
        fill: #6877ff;
      }

      .cls-4, .cls-5 {
        fill: none;
        stroke: #fff;
        stroke-linecap: round;
        stroke-miterlimit: 10;
        stroke-width: 4px;
      }

      .cls-4 {
        stroke-linejoin: round;
      }
    </style>
    <clipPath id="clip-engagement">
      <rect width="140" height="140"/>
    </clipPath>
  </defs>
  <g id="engagement" class="cls-1">
    <g id="Groupe_65" data-name="Groupe 65">
      <rect id="picto-x-2" class="cls-2" width="23.926" height="64.445" transform="translate(10 70.984)"/>
      <path id="picto-x-1" class="cls-3" d="M118.034-38.2h0a73.927,73.927,0,0,0,2.874-20.415v-4.416a8.129,8.129,0,0,0-7.764-8.152c-.075,0-.149,0-.224,0a8,8,0,0,0-7.99,7.989,32.519,32.519,0,0,1-1.62,11.045,24.456,24.456,0,0,1-6.247,9.505A30.724,30.724,0,0,1,86.841-53.489a30.34,30.34,0,0,1-2.857-7.062,30.594,30.594,0,0,1-1.01-7.813,30.308,30.308,0,0,1,2.4-11.872,30.4,30.4,0,0,1,6.537-9.695,30.4,30.4,0,0,1,9.695-6.536,30.308,30.308,0,0,1,11.872-2.4,30.309,30.309,0,0,1,11.872,2.4,30.4,30.4,0,0,1,9.695,6.536,30.4,30.4,0,0,1,6.536,9.695,30.309,30.309,0,0,1,2.4,11.872,30.381,30.381,0,0,1-1.988,10.856,30.39,30.39,0,0,1-5.476,9.135A30.491,30.491,0,0,1,118.035-38.2Z" transform="translate(-20.474 103.365)"/>
      <g id="picto-ligne">
        <path id="Rectangle_49" data-name="Rectangle 49" class="cls-4" d="M0,0H21.926a10,10,0,0,1,10,10V54.445a10,10,0,0,1-10,10H0a0,0,0,0,1,0,0V0A0,0,0,0,1,0,0Z" transform="translate(10 70.983)"/>
        <line id="Ligne_42" data-name="Ligne 42" class="cls-5" y2="21.836" transform="translate(28.197 98.199)"/>
        <line id="Ligne_43" data-name="Ligne 43" class="cls-5" y2="2.663" transform="translate(28.197 84.758)"/>
        <path id="Tracé_86" data-name="Tracé 86" class="cls-4" d="M316,261.909h34.618a7.989,7.989,0,0,1,0,15.978H337.3" transform="translate(-231.544 -190.49)"/>
        <path id="Tracé_87" data-name="Tracé 87" class="cls-4" d="M209.8,153.835h0a73.939,73.939,0,0,0,5-26.733v-4.417a8.1,8.1,0,0,0-7.764-8.152,7.989,7.989,0,0,0-8.213,7.986c0,16.093-6.794,26.025-42.53,38.024" transform="translate(-114.363 -82.358)"/>
        <path id="Tracé_88" data-name="Tracé 88" class="cls-4" d="M388.08,322a7.989,7.989,0,1,1,0,15.978H374.236" transform="translate(-274.272 -234.579)"/>
        <path id="Tracé_89" data-name="Tracé 89" class="cls-4" d="M367.688,382.091a7.989,7.989,0,1,1,0,15.978l-13.524.024" transform="translate(-259.545 -278.668)"/>
        <path id="Tracé_90" data-name="Tracé 90" class="cls-4" d="M216.836,442.182a7.989,7.989,0,1,1,0,15.978l-27.144.026h-3.8a76.668,76.668,0,0,1-21.024-2.939l-8.582-2.447" transform="translate(-114.363 -322.757)"/>
        <line id="Ligne_44" data-name="Ligne 44" class="cls-5" x2="11.736" transform="translate(59.526 37.89)"/>
        <line id="Ligne_45" data-name="Ligne 45" class="cls-5" x2="11.14" transform="translate(113.808 37.89)"/>
        <line id="Ligne_46" data-name="Ligne 46" class="cls-5" y1="13.247" transform="translate(92.445 3.964)"/>
        <line id="Ligne_47" data-name="Ligne 47" class="cls-5" y1="7.902" x2="7.902" transform="translate(107.285 15.12)"/>
        <line id="Ligne_48" data-name="Ligne 48" class="cls-5" x1="7.902" y1="7.902" transform="translate(69.868 15.352)"/>
      </g>
    </g>
  </g>
</svg>
