<svg xmlns="http://www.w3.org/2000/svg" xmlns:xlink="http://www.w3.org/1999/xlink" width="140" height="140" viewBox="0 0 140 140">
  <defs>
    <style>
      .cls-1 {
        clip-path: url(#clip-engrenage-pause);
      }

      .cls-2 {
        fill: #00c;
      }

      .cls-3 {
        fill: #6877ff;
      }

      .cls-4 {
        fill: none;
        stroke: #fff;
        stroke-linecap: round;
        stroke-linejoin: round;
        stroke-width: 4px;
      }
    </style>
    <clipPath id="clip-engrenage-pause">
      <rect width="140" height="140"/>
    </clipPath>
  </defs>
  <g id="engrenage-pause" class="cls-1">
    <g id="Groupe_126" data-name="Groupe 126">
      <path id="picto-x-2" class="cls-2" d="M670.579-488.149H659.272a4.278,4.278,0,0,1-4.185-3.493l-3.043-16.012a44.1,44.1,0,0,1-9.441-3.908L629.15-502.4a4.282,4.282,0,0,1-2.4.732,4.254,4.254,0,0,1-3.03-1.251l-7.988-7.988a4.3,4.3,0,0,1-.519-5.429l9.165-13.453a49.147,49.147,0,0,1-3.908-9.441l-17.222-3.25a2.744,2.744,0,0,1-2.247-2.7v-13.832a2.789,2.789,0,0,1,2.247-2.7l3.839-.726,13.417-2.559a45.18,45.18,0,0,1,3.908-9.441l-9.856-14.455a2.743,2.743,0,0,1,.311-3.493l9.787-9.788a2.688,2.688,0,0,1,1.914-.787,2.871,2.871,0,0,1,1.579.477l14.456,9.856a47.338,47.338,0,0,1,9.475-3.943l3.251-17.187a2.743,2.743,0,0,1,2.7-2.247h13.833a2.789,2.789,0,0,1,2.7,2.247l3.251,17.222a45.214,45.214,0,0,1,9.476,3.908l14.455-9.856a2.754,2.754,0,0,1,1.566-.491,2.709,2.709,0,0,1,1.927.8l9.787,9.822a2.756,2.756,0,0,1,.311,3.493L705.473-574.4a44.235,44.235,0,0,1,3.908,9.441l17.221,3.251a2.744,2.744,0,0,1,2.248,2.7v13.833a2.789,2.789,0,0,1-2.248,2.7l-17.221,3.25a44.194,44.194,0,0,1-3.908,9.441l9.165,13.453a4.3,4.3,0,0,1-.519,5.429l-7.988,7.988a4.255,4.255,0,0,1-3.03,1.251,4.281,4.281,0,0,1-2.4-.732l-13.452-9.165a45.074,45.074,0,0,1-9.441,3.908l-3.043,16.012A4.267,4.267,0,0,1,670.579-488.149Zm-5.719-100.009a36.041,36.041,0,0,0-36,36,36.041,36.041,0,0,0,36,36,36.041,36.041,0,0,0,36-36A36.041,36.041,0,0,0,664.861-588.158Z" transform="translate(-595.36 621.658)"/>
      <g id="picto-x-1" transform="translate(-1.561 -2.024)">
        <path id="Tracé_178" data-name="Tracé 178" class="cls-3" d="M-535.943,669.5v42.231h10.692V669.5h-10.692" transform="translate(590.658 -618.697)"/>
        <path id="Tracé_179" data-name="Tracé 179" class="cls-3" d="M0,0V42.231H10.692V0H5.881" transform="translate(87.293 93.034) rotate(180)"/>
      </g>
      <g id="picto-ligne">
        <g id="Groupe_69" data-name="Groupe 69" transform="translate(33.646 33.484)">
          <path id="Tracé_45_4_" class="cls-4" d="M306.8,10.1a33.709,33.709,0,0,1,3.528,1.142" transform="translate(-261.616 -8.892)"/>
          <path id="Tracé_45_1_" class="cls-4" d="M12.343,63.113A35.958,35.958,0,0,1,39.607,1.988" transform="translate(-2.028 -1.951)"/>
          <path id="Tracé_46_4_" class="cls-4" d="M186.623,479.667A35,35,0,0,1,180.9,478.6" transform="translate(-154.382 -407.935)"/>
          <path id="Tracé_46_2_" class="cls-4" d="M317.519,97.9A35.95,35.95,0,0,1,296.6,154.755" transform="translate(-252.929 -83.675)"/>
        </g>
        <path id="Tracé_48_1_" class="cls-4" d="M65.687,113.268l-3.839.726a2.775,2.775,0,0,0-2.248,2.7v13.833a2.741,2.741,0,0,0,2.248,2.7l17.222,3.251a48.945,48.945,0,0,0,3.908,9.441l-9.164,13.452a4.3,4.3,0,0,0,.519,5.429l7.989,7.988a4.3,4.3,0,0,0,5.429.519l13.453-9.164a44.2,44.2,0,0,0,9.441,3.908l3.043,16.012a4.292,4.292,0,0,0,4.184,3.493H129.18a4.258,4.258,0,0,0,4.184-3.493l3.043-16.012a44.942,44.942,0,0,0,9.441-3.908L159.3,173.3a4.3,4.3,0,0,0,5.429-.519l7.988-7.988a4.3,4.3,0,0,0,.519-5.429l-9.164-13.452a44.2,44.2,0,0,0,3.908-9.441l17.222-3.251a2.775,2.775,0,0,0,2.248-2.7V116.692a2.741,2.741,0,0,0-2.248-2.7l-17.222-3.251a44.2,44.2,0,0,0-3.908-9.441l9.856-14.455a2.769,2.769,0,0,0-.311-3.493l-9.787-9.821a2.726,2.726,0,0,0-3.493-.311l-14.455,9.856a45.223,45.223,0,0,0-9.476-3.908l-3.251-17.222a2.775,2.775,0,0,0-2.7-2.248H116.626a2.741,2.741,0,0,0-2.7,2.248l-3.251,17.187a47.275,47.275,0,0,0-9.476,3.942L86.747,73.222a2.769,2.769,0,0,0-3.493.311L73.468,83.32a2.726,2.726,0,0,0-.311,3.493l9.856,14.455a44.943,44.943,0,0,0-3.908,9.441" transform="translate(-53.96 -54.042)"/>
        <g id="Groupe_123" data-name="Groupe 123" transform="translate(-1.561 -2.024)">
          <path id="Tracé_178-2" data-name="Tracé 178" class="cls-4" d="M-535.943,669.5v42.231h10.692V669.5h-10.692" transform="translate(590.658 -618.697)"/>
          <path id="Tracé_179-2" data-name="Tracé 179" class="cls-4" d="M0,0V42.231H10.692V0H5.881" transform="translate(87.293 93.034) rotate(180)"/>
        </g>
      </g>
    </g>
  </g>
</svg>
