<svg xmlns="http://www.w3.org/2000/svg" xmlns:xlink="http://www.w3.org/1999/xlink" width="140" height="140" viewBox="0 0 140 140">
  <defs>
    <style>.picto-x-1, .picto-x-1 path, .picto-x-1 ellipse, .picto-x-1 rect, .picto-x-1 line, .picto-x-1 rect, .picto-x-1 g{ fill: #373CF5; } .picto-x-2, .picto-x-2 path, .picto-x-2 ellipse, .picto-x-2 rect, .picto-x-2 line, .picto-x-2 rect, .picto-x-2 g { fill: #6877ff ; } .picto-ligne, .picto-ligne path, .picto-ligne ellipse, .picto-ligne rect, .picto-ligne line, .picto-ligne rect, .picto-ligne g { fill: none; stroke: #222222; stroke-linecap: round; stroke-linejoin: round; stroke-width: 4px; } .picto-x-1, .picto-x-1 path, .picto-x-1 ellipse, .picto-x-1 rect, .picto-x-1 line, .picto-x-1 rect, .picto-x-1 g{ fill: #373CF5; } .picto-x-2, .picto-x-2 path, .picto-x-2 ellipse, .picto-x-2 rect, .picto-x-2 line, .picto-x-2 rect, .picto-x-2 g { fill: #6877ff ; } .picto-ligne, .picto-ligne path, .picto-ligne ellipse, .picto-ligne rect, .picto-ligne line, .picto-ligne rect, .picto-ligne g { fill: none; stroke: #222222; stroke-linecap: round; stroke-linejoin: round; stroke-width: 4px; }.picto-x-1, .picto-x-1 path, .picto-x-1 ellipse, .picto-x-1 rect, .picto-x-1 line, .picto-x-1 rect, .picto-x-1 g{ fill: #373CF5; } .picto-x-2, .picto-x-2 path, .picto-x-2 ellipse, .picto-x-2 rect, .picto-x-2 line, .picto-x-2 rect, .picto-x-2 g { fill: #6877ff ; } .picto-ligne, .picto-ligne path, .picto-ligne ellipse, .picto-ligne rect, .picto-ligne line, .picto-ligne rect, .picto-ligne g { fill: none; stroke: #222222; stroke-linecap: round; stroke-linejoin: round; stroke-width: 4px; } .picto-x-1, .picto-x-1 path, .picto-x-1 ellipse, .picto-x-1 rect, .picto-x-1 line, .picto-x-1 rect, .picto-x-1 g{ fill: #373CF5; } .picto-x-2, .picto-x-2 path, .picto-x-2 ellipse, .picto-x-2 rect, .picto-x-2 line, .picto-x-2 rect, .picto-x-2 g { fill: #6877ff ; } .picto-ligne, .picto-ligne path, .picto-ligne ellipse, .picto-ligne rect, .picto-ligne line, .picto-ligne rect, .picto-ligne g { fill: none; stroke: #222222; stroke-linecap: round; stroke-linejoin: round; stroke-width: 4px; }</style>
    <clipPath class="clip-engrenage-2">
      <rect width="140" height="140"/>
    </clipPath>
  </defs>
  <g class="engrenage-2">
    <g class="Groupe_70" data-name="Groupe 70" transform="translate(-1.995 -3.024)">
      <path class="picto-x-1" d="M48.572,97.144A48.584,48.584,0,0,1,29.666,3.818,48.584,48.584,0,0,1,67.479,93.327,48.269,48.269,0,0,1,48.572,97.144Zm0-68.345A19.773,19.773,0,1,0,68.346,48.572,19.8,19.8,0,0,0,48.572,28.8Z" transform="translate(23.02 23.988)"/>
      <g class="picto-x-2" transform="translate(15.255 12.643)">
        <circle class="picto-x-2-2" data-name="picto-x-2" cx="15.478" cy="15.478" r="15.478" transform="translate(86.677)"/>
        <circle class="picto-x-2-3" data-name="picto-x-2" cx="15.5" cy="15.5" r="15.5" transform="translate(-0.26 95.38)"/>
      </g>
      <g class="picto-ligne" transform="translate(7 8)">
        <g class="Groupe_69" data-name="Groupe 69" transform="translate(0 0)">
          <path class="Tracé_45_4_" d="M306.8,10.1a60.561,60.561,0,0,1,6.338,2.051" transform="translate(-225.636 -7.93)"/>
          <path class="Tracé_45_1_" d="M20.556,111.818A64.593,64.593,0,0,1,69.531,2.018" transform="translate(-2.028 -1.951)"/>
          <path class="Tracé_46_4_" d="M191.18,480.517A62.857,62.857,0,0,1,180.9,478.6" transform="translate(-133.264 -351.663)"/>
          <path class="Tracé_46_2_" d="M334.177,97.9A64.578,64.578,0,0,1,296.6,200.031" transform="translate(-218.152 -72.348)"/>
        </g>
        <path class="Tracé_48_1_" d="M64.287,100.952l-2.956.559a2.137,2.137,0,0,0-1.731,2.077v10.652a2.111,2.111,0,0,0,1.731,2.077l13.262,2.5a37.693,37.693,0,0,0,3.009,7.27l-7.057,10.36a3.308,3.308,0,0,0,.4,4.181l6.152,6.152a3.308,3.308,0,0,0,4.181.4l10.36-7.057a34.035,34.035,0,0,0,7.27,3.009l2.344,12.33a3.305,3.305,0,0,0,3.222,2.69h8.708a3.279,3.279,0,0,0,3.222-2.69l2.344-12.33a34.61,34.61,0,0,0,7.27-3.009l10.36,7.057a3.308,3.308,0,0,0,4.181-.4l6.152-6.152a3.308,3.308,0,0,0,.4-4.181l-7.057-10.36a34.036,34.036,0,0,0,3.009-7.27l13.262-2.5a2.137,2.137,0,0,0,1.731-2.077V103.588a2.111,2.111,0,0,0-1.731-2.077l-13.262-2.5a34.037,34.037,0,0,0-3.009-7.27l7.59-11.132a2.132,2.132,0,0,0-.24-2.69l-7.537-7.563a2.1,2.1,0,0,0-2.69-.24L126.045,77.7a34.825,34.825,0,0,0-7.3-3.009l-2.5-13.262a2.137,2.137,0,0,0-2.077-1.731H103.515a2.111,2.111,0,0,0-2.077,1.731l-2.5,13.236a36.405,36.405,0,0,0-7.3,3.036l-11.132-7.59a2.132,2.132,0,0,0-2.69.24l-7.537,7.537a2.1,2.1,0,0,0-.24,2.69l7.59,11.132a34.61,34.61,0,0,0-3.009,7.27" transform="translate(-44.268 -44.321)"/>
        <path class="Tracé_49_1_" d="M203.743,206.277a19.277,19.277,0,1,1,6.951-14.807" transform="translate(-126.84 -126.849)"/>
        <circle class="Ellipse_75" data-name="Ellipse 75" cx="7.696" cy="7.696" r="7.696" transform="translate(16.317 107.63)"/>
        <circle class="Ellipse_76" data-name="Ellipse 76" cx="7.696" cy="7.696" r="7.696" transform="translate(102.922 12.317)"/>
      </g>
    </g>
  </g>
</svg>
