<svg xmlns="http://www.w3.org/2000/svg" xmlns:xlink="http://www.w3.org/1999/xlink" width="140" height="140" viewBox="0 0 140 140">
  <defs>
    <style>
      .cls-1 {
        clip-path: url(#clip-engrenage-3);
      }

      .cls-2 {
        fill: #009;
      }

      .cls-2, .cls-3 {
        stroke: rgba(0,0,0,0);
        stroke-miterlimit: 10;
      }

      .cls-3 {
        fill: #6877ff;
      }

      .cls-4 {
        fill: none;
        stroke: #fff;
        stroke-linecap: round;
        stroke-linejoin: round;
        stroke-width: 4px;
      }
    </style>
    <clipPath id="clip-engrenage-3">
      <rect width="140" height="140"/>
    </clipPath>
  </defs>
  <g id="engrenage-3" class="cls-1">
    <g id="Groupe_125" data-name="Groupe 125">
      <g id="picto-x-2" transform="translate(11.26 6.62)">
        <path id="Soustraction_13" data-name="Soustraction 13" class="cls-2" d="M526.836-562.613v-3.61a2.6,2.6,0,0,0-2.129-2.555l-16.312-3.079a41.858,41.858,0,0,0-3.7-8.942l9.336-13.692a2.608,2.608,0,0,0-.3-3.307l-9.27-9.3a2.565,2.565,0,0,0-1.826-.76,2.605,2.605,0,0,0-1.482.465l-13.692,9.335a42.856,42.856,0,0,0-8.975-3.7l-3.08-16.312a2.64,2.64,0,0,0-2.554-2.128h-2.735a40.721,40.721,0,0,1,23.517-7.416,40.721,40.721,0,0,1,15.95,3.22,40.842,40.842,0,0,1,13.025,8.782,40.841,40.841,0,0,1,8.782,13.025,40.72,40.72,0,0,1,3.22,15.95,40.677,40.677,0,0,1-7.779,24.026Z" transform="translate(-407.983 622.62)"/>
      </g>
      <path id="picto-x-1" class="cls-3" d="M32.572,65.144A32.58,32.58,0,0,1,19.894,2.56,32.58,32.58,0,0,1,45.251,62.585,32.368,32.368,0,0,1,32.572,65.144Zm0-45.832a13.26,13.26,0,1,0,13.26,13.26A13.275,13.275,0,0,0,32.572,19.313Z" transform="translate(37.025 36.964)"/>
      <g id="picto-ligne" transform="translate(-2.4 -2.4)">
        <g id="Groupe_69" data-name="Groupe 69" transform="translate(39.393 39.236)">
          <path id="Tracé_45_4_" class="cls-4" d="M306.8,10.1a30.57,30.57,0,0,1,3.2,1.035" transform="translate(-265.825 -9.004)"/>
          <path id="Tracé_45_1_" class="cls-4" d="M11.382,57.417A32.609,32.609,0,0,1,36.107,1.985" transform="translate(-2.028 -1.951)"/>
          <path id="Tracé_46_4_" class="cls-4" d="M186.09,479.568a31.734,31.734,0,0,1-5.19-.968" transform="translate(-156.851 -414.516)"/>
          <path id="Tracé_46_2_" class="cls-4" d="M315.57,97.9a32.6,32.6,0,0,1-18.97,51.56" transform="translate(-256.996 -85)"/>
        </g>
        <path id="Tracé_48_1_" class="cls-4" d="M65.365,110.438l-3.636.688A2.628,2.628,0,0,0,59.6,113.68v13.1a2.6,2.6,0,0,0,2.129,2.555l16.312,3.079a46.359,46.359,0,0,0,3.7,8.942L73.062,154.1a4.068,4.068,0,0,0,.491,5.143l7.566,7.566a4.068,4.068,0,0,0,5.143.491L99,158.62a41.861,41.861,0,0,0,8.942,3.7l2.882,15.166a4.065,4.065,0,0,0,3.963,3.308H125.5a4.033,4.033,0,0,0,3.963-3.308l2.882-15.166a42.569,42.569,0,0,0,8.942-3.7l12.742,8.68a4.068,4.068,0,0,0,5.143-.491l7.566-7.566a4.068,4.068,0,0,0,.491-5.143l-8.68-12.742a41.862,41.862,0,0,0,3.7-8.942l16.312-3.079a2.628,2.628,0,0,0,2.129-2.555v-13.1a2.6,2.6,0,0,0-2.129-2.555l-16.312-3.079a41.863,41.863,0,0,0-3.7-8.942l9.335-13.692a2.623,2.623,0,0,0-.295-3.308l-9.27-9.3a2.582,2.582,0,0,0-3.308-.295l-13.692,9.335a42.834,42.834,0,0,0-8.975-3.7L129.27,61.829a2.628,2.628,0,0,0-2.555-2.129h-13.1a2.6,2.6,0,0,0-2.555,2.129l-3.079,16.279A44.776,44.776,0,0,0,99,81.842L85.313,72.507A2.623,2.623,0,0,0,82,72.8l-9.27,9.27a2.582,2.582,0,0,0-.295,3.308l9.335,13.692a42.569,42.569,0,0,0-3.7,8.942" transform="translate(-48.183 -48.265)"/>
        <path id="Tracé_49_1_" class="cls-4" d="M211.009,214.116a23.71,23.71,0,1,1,8.549-18.212" transform="translate(-123.863 -123.905)"/>
      </g>
    </g>
  </g>
</svg>
