<svg xmlns="http://www.w3.org/2000/svg" xmlns:xlink="http://www.w3.org/1999/xlink" width="140" height="140" viewBox="0 0 140 140">
  <defs>
    <style>
      .cls-1 {
        clip-path: url(#clip-environnement);
      }

      .cls-2 {
        fill: #00c;
      }

      .cls-3 {
        fill: #6877ff;
      }

      .cls-4 {
        fill: none;
        stroke: #fff;
        stroke-linecap: round;
        stroke-linejoin: round;
        stroke-width: 4px;
      }
    </style>
    <clipPath id="clip-environnement">
      <rect width="140" height="140"/>
    </clipPath>
  </defs>
  <g id="environnement" class="cls-1">
    <g id="Environnement-2" data-name="Environnement" transform="translate(-1556.277 -8.948)">
      <g id="picto-x-2" transform="translate(1562.342 63.327)">
        <circle id="Ellipse_14" data-name="Ellipse 14" class="cls-2" cx="35.725" cy="35.725" r="35.725"/>
      </g>
      <g id="picto-x-1" transform="translate(1641.364 16.609)">
        <path id="Tracé_34" data-name="Tracé 34" class="cls-3" d="M1657.563,35.856c-.148,3.221-.988,21.5-13.9,28.44-6.584,3.537-15.983,3.95-20.318-1.357-4.582-5.61-1.513-15.173,3.278-20.67,4.959-5.688,9.59-4.531,15.442-10.847,6.634-7.161,5.681-14.043,8.3-14.756C1653.56,15.8,1658.057,25.128,1657.563,35.856Z" transform="translate(-1621.094 -16.609)"/>
      </g>
      <g id="picto-ligne" transform="translate(1579.281 16.609)">
        <path id="Tracé_33" data-name="Tracé 33" class="cls-4" d="M1593.426,125.708l7.689-12.743a17.3,17.3,0,0,1,13.484-8.312l48.058-3.705a2.964,2.964,0,0,0,2.153-1.194l18.5-25.082a3.312,3.312,0,0,0-2.666-5.278h0a3.308,3.308,0,0,0-2.342.97L1657.666,91a2.96,2.96,0,0,1-2.092.866H1625.6a2.958,2.958,0,0,1-2.958-2.959h0a2.958,2.958,0,0,1,2.958-2.959h16.3a4.562,4.562,0,0,0,4.564-4.562h0a4.563,4.563,0,0,0-4.564-4.562h-21.4a40.211,40.211,0,0,0-34.6,19.727l-10.955,18.506" transform="translate(-1574.936 1.601)"/>
        <g id="Groupe_8" data-name="Groupe 8" transform="translate(62.083)">
          <path id="Tracé_35" data-name="Tracé 35" class="cls-4" d="M1643.74,35.894c-3.259,7.258-12.694,14.5-15.953,21.757-2.733,6.089-1.577,14.24-4.311,20.327" transform="translate(-1620.272 -9.956)"/>
          <path id="Tracé_36" data-name="Tracé 36" class="cls-4" d="M1657.563,35.856c-.148,3.221-.988,21.5-13.9,28.44-6.584,3.537-15.983,3.95-20.318-1.357-4.582-5.61-1.513-15.173,3.278-20.67,4.959-5.688,9.59-4.531,15.442-10.847,6.634-7.161,5.681-14.043,8.3-14.756C1653.56,15.8,1658.057,25.128,1657.563,35.856Z" transform="translate(-1621.094 -16.609)"/>
        </g>
        <g id="Groupe_9" data-name="Groupe 9" transform="translate(15.267 28.345)">
          <path id="Tracé_37" data-name="Tracé 37" class="cls-4" d="M1598.294,49.662c5.252,3.848,14.895,5.188,20.147,9.036,4.406,3.227,9.317,11.3,13.723,14.53" transform="translate(-1582.144 -33.552)"/>
          <path id="Tracé_38" data-name="Tracé 38" class="cls-4" d="M1590.479,54.288c1.407,2.233,9.395,14.9,21.385,14.621,6.116-.143,12.97-3.649,13.91-9.177.994-5.845-5.056-11.41-10.687-13.385-5.828-2.044-8.655.651-15.373-1.478-7.615-2.414-9.719-7.7-11.874-7.145C1585.222,38.4,1585.792,46.853,1590.479,54.288Z" transform="translate(-1586.287 -37.684)"/>
        </g>
      </g>
    </g>
  </g>
</svg>
