<svg xmlns="http://www.w3.org/2000/svg" xmlns:xlink="http://www.w3.org/1999/xlink" width="140" height="140" viewBox="0 0 140 140">
  <defs>
    <style>
      .cls-1 {
        clip-path: url(#clip-expertise);
      }

      .cls-2 {
        fill: #00c;
      }

      .cls-3 {
        fill: #6877ff;
      }

      .cls-4 {
        fill: none;
        stroke: #fff;
        stroke-linecap: round;
        stroke-linejoin: round;
        stroke-width: 4px;
      }
    </style>
    <clipPath id="clip-expertise">
      <rect width="140" height="140"/>
    </clipPath>
  </defs>
  <g id="expertise" class="cls-1">
    <g id="Groupe_66" data-name="Groupe 66">
      <ellipse id="picto-x-2" class="cls-2" cx="31.973" cy="31.973" rx="31.973" ry="31.973" transform="translate(28.217 39.935)"/>
      <path id="picto-x-1" class="cls-3" d="M670.977,70.046,656.2,62.714a1.508,1.508,0,0,0-1.4.034l-14.42,8.021a1.51,1.51,0,0,1-2.229-1.542l2.4-16.322a1.511,1.511,0,0,0-.466-1.33L628,40.341a1.511,1.511,0,0,1,.778-2.6l16.266-2.757a1.507,1.507,0,0,0,1.117-.852L653.1,19.169a1.51,1.51,0,0,1,2.71-.064l7.65,14.621a1.509,1.509,0,0,0,1.156.8L681,36.515a1.51,1.51,0,0,1,.9,2.556L670.353,50.863a1.508,1.508,0,0,0-.4,1.346l3.17,16.192a1.511,1.511,0,0,1-2.144,1.645Z" transform="translate(-583.865 -9.796)"/>
      <g id="picto-ligne" transform="translate(4.716 8.496)">
        <path id="Tracé_2086" data-name="Tracé 2086" class="cls-4" d="M693.219,109.229l-14.78-7.331a1.51,1.51,0,0,0-1.407.034l-14.417,8.019a1.511,1.511,0,0,1-2.23-1.54l2.406-16.324a1.517,1.517,0,0,0-.466-1.326L650.241,79.526a1.511,1.511,0,0,1,.778-2.595l16.268-2.757a1.516,1.516,0,0,0,1.117-.854l6.953-14.964a1.511,1.511,0,0,1,2.71-.062l7.648,14.618a1.513,1.513,0,0,0,1.157.8L703.253,75.7a1.51,1.51,0,0,1,.9,2.556l-11.54,11.792a1.51,1.51,0,0,0-.4,1.35l3.17,16.19a1.514,1.514,0,0,1-2.158,1.64Z" transform="translate(-573.296 8.637)"/>
        <path id="Tracé_2087" data-name="Tracé 2087" class="cls-4" d="M647.9,109.229,633.117,101.9a1.5,1.5,0,0,0-1.4.034l-14.421,8.019a1.51,1.51,0,0,1-2.227-1.54l2.4-16.324A1.5,1.5,0,0,0,617,90.761L604.921,79.526a1.51,1.51,0,0,1,.778-2.595l16.266-2.757a1.521,1.521,0,0,0,1.12-.854l6.948-14.964a1.512,1.512,0,0,1,2.711-.062l7.648,14.618a1.51,1.51,0,0,0,1.156.8L657.928,75.7a1.512,1.512,0,0,1,.9,2.556L647.285,90.049a1.521,1.521,0,0,0-.4,1.35l3.17,16.19a1.51,1.51,0,0,1-2.153,1.64Z" transform="translate(-604.44 8.637)"/>
        <path id="Tracé_2088" data-name="Tracé 2088" class="cls-4" d="M670.558,70.14l-14.78-7.331a1.511,1.511,0,0,0-1.406.034l-14.419,8.021a1.514,1.514,0,0,1-2.231-1.544L640.13,53a1.508,1.508,0,0,0-.467-1.328L627.581,40.435a1.513,1.513,0,0,1,.778-2.6l16.266-2.755a1.51,1.51,0,0,0,1.119-.852l6.941-14.967A1.511,1.511,0,0,1,655.4,19.2l7.648,14.621a1.512,1.512,0,0,0,1.156.8l16.379,1.989a1.512,1.512,0,0,1,.9,2.556L669.934,50.958a1.507,1.507,0,0,0-.4,1.346L672.7,68.5a1.509,1.509,0,0,1-2.145,1.643Z" transform="translate(-588.867 -18.227)"/>
      </g>
    </g>
  </g>
</svg>
