<svg xmlns="http://www.w3.org/2000/svg" xmlns:xlink="http://www.w3.org/1999/xlink" width="140" height="140" viewBox="0 0 140 140">
  <defs>
    <style>
      .cls-1 {
        clip-path: url(#clip-france);
      }

      .cls-2 {
        fill: #00c;
      }

      .cls-3 {
        fill: #6877ff;
      }

      .cls-4 {
        fill: none;
        stroke: #fff;
        stroke-linecap: round;
        stroke-linejoin: round;
        stroke-width: 4px;
      }
    </style>
    <clipPath id="clip-france">
      <rect width="140" height="140"/>
    </clipPath>
  </defs>
  <g id="france" class="cls-1">
    <g id="Groupe_183" data-name="Groupe 183">
      <g id="picto-x-2" transform="translate(6.424 64.281)">
        <path id="Soustraction_36" data-name="Soustraction 36" class="cls-2" d="M64.084,70.719a65.245,65.245,0,0,1-41.49-14.81A65.669,65.669,0,0,1,8.241,39.482,64.99,64.99,0,0,1,0,18.891L34.959,0c.089.091.187.188.292.288a13.52,13.52,0,0,1,1.457,1.7,6.044,6.044,0,0,0,3.146,2.553,2.7,2.7,0,0,1,.49.317c-1.071.517-1.016,1.329-.962,2.115a3.074,3.074,0,0,1-.08,1.238c1.178.154,1.178.154,1.2,1.333v.025c0,.172-.317.381-.6.565-.226.147-.421.274-.428.362a.056.056,0,0,0,.02.047c.449.416.324.748.165,1.168-.026.069-.053.139-.078.213a2.82,2.82,0,0,0,.37,3.127,2.5,2.5,0,0,1,.732,2.517c-.154.863-.355,1.733-.55,2.574l0,.01,0,.008c-.111.479-.225.974-.33,1.462a15.362,15.362,0,0,0-.43,2.337c-.05.93-.039,1.88-.028,2.8v.027c0,.381.009.775.009,1.162l-.177.013-.357-.735-.184.026c0,.134-.291.27-.573.4s-.569.266-.573.4c-.092,2.6-.2,5.538-3.081,7.491A2.266,2.266,0,0,0,33.4,37.631a3.067,3.067,0,0,0,1.73,2.478,4.163,4.163,0,0,0,.735.124c.468.059,1,.125,1.024.218.412,1.466,1.649,2.053,2.88,2.53l.082.032c4.357,1.685,8.863,3.428,13.649,3.9a1.867,1.867,0,0,1,.518.178,1.949,1.949,0,0,0,2.54-.633,1.124,1.124,0,0,1,.8-.34,1.136,1.136,0,0,1,.163.012,10.677,10.677,0,0,1,2.554,1.557,6.726,6.726,0,0,0,3.978,1.966,10.2,10.2,0,0,1,1.911.328,12.381,12.381,0,0,0,3.579.535,25.905,25.905,0,0,0,3.687-.356c.3-.043.67-.1,1.042-.146A2.593,2.593,0,0,0,76.3,48.788a2.98,2.98,0,0,0-.029-2.673,24.168,24.168,0,0,0-1.293-2.454,1.17,1.17,0,0,1,.125-1.523A11.309,11.309,0,0,1,77.1,40.617a12.1,12.1,0,0,0,1.857-1.39,4.839,4.839,0,0,1,3.133-1.636c.227-.016.46-.038.685-.059h.005c.463-.043.941-.088,1.405-.088a3.7,3.7,0,0,1,2.72.96,3.305,3.305,0,0,0,3.64.9l8.9,21.065A65.292,65.292,0,0,1,64.084,70.719Z" transform="translate(0 0)"/>
      </g>
      <g id="picto-x-1" transform="translate(74.977 22.811)">
        <path id="Intersection_12" data-name="Intersection 12" class="cls-3" d="M28.552,82.96c-1.828-.8-3.647-1.618-5.473-2.417a.68.68,0,0,0-.508-.053q-.068.043-.138.082L0,23.722,12.434,0A8.155,8.155,0,0,0,13.2.79c.643.581-.181,1.518.331,2.37a5.668,5.668,0,0,1,1.369.331,4.433,4.433,0,0,0,1.576.318c1.837-1.278,2.844-.479,3.345,1.641.2.871-.071,1.923.806,2.562a7.669,7.669,0,0,0,4.288,1.545c1.2.047,2.405,1.188,3.6,1.306a4.182,4.182,0,0,0,1.738-.5c.875-.379,1.753-.758,2.208-.294a5.659,5.659,0,0,0,4.837,1.79,9.746,9.746,0,0,1,4.9.654c2.373,1.006,4.051,1.449,2.957,3.765-.488,1.034-1.822,4.5-2.2,5.587a19.1,19.1,0,0,1-1.21,3.047,3.635,3.635,0,0,0-.594,2.169,27.084,27.084,0,0,1,.2,3.047,3.9,3.9,0,0,1-3.5,4,1.858,1.858,0,0,0-1.727,1.422A18.059,18.059,0,0,1,34.414,38.7c-.913,1.529-1.861,3.036-2.795,4.551l.166.172c.251-.062.508-.122.756-.187a3.021,3.021,0,0,1,3.351,1.188c1.45,2.527,2.384,5.2,1.727,8.2a2.081,2.081,0,0,0,.359,1.137,11.673,11.673,0,0,1,.984,1.85,2.788,2.788,0,0,1-1.433,3.214c-.493.305-1,.581-1.664.966a1.946,1.946,0,0,1,.768,2.351,2.67,2.67,0,0,0,.073,1.1c.273,1.186.552,2.371.888,3.539a2.33,2.33,0,0,0,2.672,1.664,3.54,3.54,0,0,1,3.038.759,4.166,4.166,0,0,1,.219,4.827c-.991,1.167-2.189,1.017-3.319,2.061a20.222,20.222,0,0,0-1.625,1.363,4.529,4.529,0,0,0-1.109,1.828,4.763,4.763,0,0,1-2.956,3.577,6.842,6.842,0,0,1-5.963.1Z" transform="translate(0 0)"/>
        <path id="Intersection_13" data-name="Intersection 13" class="cls-3" d="M4.591,23.059a7.405,7.405,0,0,1-.585-1.252,1.134,1.134,0,0,0-1.016-.887c-1.045-.16-1.6-1.2-1.149-2.522a2.314,2.314,0,0,0-.6-2.445c-1.8-2.346-1.656-3.915.468-5.986.517-.507,1.125-.914,1.662-1.4A14.46,14.46,0,0,0,4.431,7.441,7.264,7.264,0,0,1,5.988,6.9c1.72-.46.195-3.274.668-4.4C7.015,1.652,7.388-.017,8.31,0c1.172.021,1.895,2.872,2.081,3.751.215,1.016.5,2.02.746,3.031.383,1.523.759,3.048,1.15,4.625-.366,1.354-.728,2.641-1.054,3.936a2.635,2.635,0,0,0-.108,1.131,8.4,8.4,0,0,1-1.719,6.971,2.843,2.843,0,0,1-2.27,1.25A3.007,3.007,0,0,1,4.591,23.059Z" transform="translate(42.323 82.422)"/>
      </g>
      <g id="picto-ligne" transform="translate(5.5 6.965)">
        <path id="Tracé_365" data-name="Tracé 365" class="cls-4" d="M758.878,355.359a65.509,65.509,0,0,1-86.942-95.109c8.339-10.994,20.266-18.562,32.805-22.453" transform="translate(-658.639 -237.797)"/>
        <path id="Tracé_366" data-name="Tracé 366" class="cls-4" d="M780.993,345.946c-.366,1.354-.727,2.641-1.054,3.936a2.632,2.632,0,0,0-.108,1.13,8.4,8.4,0,0,1-1.719,6.971c-1.375,1.839-3.657,1.595-4.816-.385a7.4,7.4,0,0,1-.585-1.252,1.133,1.133,0,0,0-1.016-.887c-1.045-.161-1.6-1.2-1.149-2.522a2.316,2.316,0,0,0-.6-2.446c-1.8-2.345-1.657-3.915.468-5.986.517-.508,1.125-.914,1.662-1.4a14.328,14.328,0,0,0,1.055-1.124,7.281,7.281,0,0,1,1.557-.537c1.72-.46.2-3.274.668-4.4.359-.852.731-2.521,1.654-2.5,1.172.021,1.9,2.873,2.081,3.751.215,1.016.5,2.02.747,3.03C780.226,342.845,780.6,344.37,780.993,345.946Z" transform="translate(-656.904 -236.272)"/>
        <path id="Tracé_365-2" data-name="Tracé 365" class="cls-4" d="M698.148,322.241l.358.735.177-.013c0-1.33-.052-2.663.019-3.989a15.3,15.3,0,0,1,.43-2.336c.289-1.353.641-2.694.884-4.055a2.511,2.511,0,0,0-.732-2.516c-.914-.85-.738-2.05-.37-3.128.176-.515.437-.895-.087-1.38-.188-.174,1.016-.641,1.009-.975-.023-1.2-.015-1.2-1.2-1.357.4-1.117-.6-2.562,1.041-3.352a2.744,2.744,0,0,0-.491-.318c-2.4-.765-2.862-2.6-4.6-4.249-1.363-1.3-2.709-3.212-.964-4.21.437-.25.406-.578.08-.905a4.526,4.526,0,0,0-.8-.749,2.523,2.523,0,0,1-1.391-2.05,16.842,16.842,0,0,0-2.836-1.763c-2.9-1.219-4.655-1.294-7.587-2.432a7.472,7.472,0,0,0-2.187-.286,3.34,3.34,0,0,1-3.454-2.65,6.461,6.461,0,0,1-.245-.987,5.338,5.338,0,0,0-1.117-2.823c-1.06-1.262-.711-1.915.583-3.2a7.542,7.542,0,0,1,5-2.114c.492-.034-.153-.053.335,0a10.721,10.721,0,0,0,4.106-.457c1.37-.589,2.787-1.606,4.127-.957.749.363,1.444.832,2.192,1.2a6.642,6.642,0,0,0,1.88.723c2.071.293,3.013-.666,5.246-.423-.329-1.258.476-1.4.144-2.686a22.875,22.875,0,0,1-.979-4.018,3.748,3.748,0,0,1,5.347-3.639,2.531,2.531,0,0,1,1.459,2.109,1.524,1.524,0,0,0,1.471,1.433c1.676.2,2.192.559,3.871.7,1.2.1,1.881-.726,1.815-1.946-.083-1.569.737-1.473,2.071-2.05,1.236-.534,2.539-4.428,3.86-4.673,2.866-.528,3.149-.071,3.712-2.734.138-.659,1.2-3.7,1.045-4.368-.651-2.767,1.264-4.28,4.049-4.977a35.036,35.036,0,0,1,5.12-.671c.98-.094,2.8,1.687,2.957,2.552.328,1.828.1,2.662,2.013,2.662a2.2,2.2,0,0,1,2.308,1.9c.04.219.3.431.508.584,1.305.98,1.555,1.858,2.76,2.946.643.581-.181,1.518.331,2.371.151-.115,2.69.831,2.946.649,1.837-1.279,2.844-.479,3.345,1.64.2.872-.071,1.923.805,2.563a7.676,7.676,0,0,0,4.289,1.545c1.2.047,2.405,1.188,3.6,1.306,1.117.111,3.162-1.6,3.946-.8a5.655,5.655,0,0,0,4.837,1.79,9.74,9.74,0,0,1,4.9.654c2.374,1.006,4.051,1.449,2.958,3.764-.489,1.034-1.822,4.5-2.2,5.587a19.208,19.208,0,0,1-1.211,3.047,3.63,3.63,0,0,0-.594,2.169,27.265,27.265,0,0,1,.2,3.047,3.9,3.9,0,0,1-3.5,4,1.858,1.858,0,0,0-1.727,1.422,18.107,18.107,0,0,1-1.708,3.149c-.914,1.53-1.862,3.036-2.8,4.552l.167.172c.252-.062.508-.122.756-.188a3.023,3.023,0,0,1,3.352,1.188c1.45,2.527,2.384,5.2,1.727,8.2a2.079,2.079,0,0,0,.36,1.138,11.681,11.681,0,0,1,.984,1.85,2.789,2.789,0,0,1-1.433,3.215c-.493.3-1,.58-1.664.966a1.946,1.946,0,0,1,.768,2.352,2.66,2.66,0,0,0,.073,1.1c.273,1.185.552,2.371.888,3.539a2.33,2.33,0,0,0,2.671,1.664,3.536,3.536,0,0,1,3.038.759,4.166,4.166,0,0,1,.219,4.827c-.991,1.167-2.189,1.016-3.32,2.06A20.4,20.4,0,0,0,766.462,331a4.53,4.53,0,0,0-1.109,1.828,4.763,4.763,0,0,1-2.956,3.578,6.843,6.843,0,0,1-5.963.1c-1.828-.8-3.647-1.618-5.474-2.418a.674.674,0,0,0-.508-.053,3.3,3.3,0,0,1-4.221-.617c-1.422-1.327-3.156-.93-4.816-.813a4.852,4.852,0,0,0-3.134,1.636c-.924.95-2.96,1.93-3.852,2.911a1.177,1.177,0,0,0-.126,1.524,24.042,24.042,0,0,1,1.294,2.453c.83,1.918.064,3.621-2,3.9-3.133.424-5.157.893-8.308-.033a10.23,10.23,0,0,0-1.911-.328,6.706,6.706,0,0,1-3.978-1.967,10.7,10.7,0,0,0-2.554-1.557,1.123,1.123,0,0,0-.967.328,1.949,1.949,0,0,1-2.539.633,1.875,1.875,0,0,0-.518-.178c-4.816-.476-9.277-2.21-13.731-3.933-1.208-.467-2.464-1.05-2.88-2.529-.045-.159-1.544-.239-1.759-.343-1.873-.907-2.407-3.435-.722-4.571,2.785-1.885,2.979-4.619,3.081-7.49.009-.267,1.147-.534,1.147-.8Z" transform="translate(-658.405 -237.704)"/>
      </g>
    </g>
  </g>
</svg>
