<svg xmlns="http://www.w3.org/2000/svg" xmlns:xlink="http://www.w3.org/1999/xlink" width="140" height="140" viewBox="0 0 140 140">
  <defs>
    <style>
      .cls-1 {
        clip-path: url(#clip-groupe);
      }

      .cls-2 {
        fill: #00c;
      }

      .cls-3 {
        fill: #6877ff;
      }

      .cls-4 {
        fill: none;
        stroke: #fff;
        stroke-linecap: round;
        stroke-linejoin: round;
        stroke-width: 4px;
      }
    </style>
    <clipPath id="clip-groupe">
      <rect width="140" height="140"/>
    </clipPath>
  </defs>
  <g id="groupe" class="cls-1">
    <g id="Groupe_71" data-name="Groupe 71" transform="translate(417.935 -3.999)">
      <g id="picto-x-2">
        <path id="Tracé_111" data-name="Tracé 111" class="cls-2" d="M-401.362,60.667A49.123,49.123,0,0,1-352.24,11.543a49.124,49.124,0,0,1,49.124,49.124" transform="translate(4.989 0)"/>
      </g>
      <g id="picto-x-1">
        <path id="Tracé_112" data-name="Tracé 112" class="cls-3" d="M-388.778,34.057s15.664-4.018,20.629-4.018,21.991,2.3,24.12,4.079,2.068,37.359-.06,39.133-8.157.176-8.157.176l-.3,37.124s-4.669,5.831-9.575,3.546c-4.315-2.01-15.606-1.063-15.606-1.063l-4.257-6.74.651-33.044-8.336.176Z" transform="translate(18.415 21.229)"/>
      </g>
      <g id="picto-ligne">
        <path id="Tracé_113" data-name="Tracé 113" class="cls-4" d="M-348.06,90.041l-.024,35.363c-.006,8.314,14.648,8.2,14.566-.125l-.273-22-.346-40.662m.393,23.295c3.121,6.072,5.651,6.712,7.27,5.266,3.125-2.79,2.315-6.849,2.169-10.507l-1.106-27.693c-.369-9.218-43.819-8.533-45.226-.092-1.151,5.228-1.31,17.163-1.441,26.171-.064,4.392-1.557,13.389,4.575,12.689,1.77-.125,3.7-1.723,5.131-5.833m.393-23.295-.346,40.662-.273,22c-.082,8.327,14.517,8.449,14.513.125m-.3-110.233c5.887,0,10.659,5.215,10.659,11.65a11.865,11.865,0,0,1-5.406,10.14,9.947,9.947,0,0,1-5.4,1.6c-5.887,0-10.657-5.215-10.657-11.65a11.869,11.869,0,0,1,5.4-10.14,9.936,9.936,0,0,1,5.4-1.6Zm-35.986,82.056-.021,28.817c-.006,7.459,13.507,7.352,13.434-.112l-.245-19.418-.052-3.389m-11.514-47.38c-10.2-.045-20.814,2.008-21.461,5.9-1.033,4.684-1.173,11.248-1.291,19.321-.058,3.939-1.4,12,4.1,11.375,1.585-.112,3.316-1.544,4.6-5.23m.352-17.043-.309,36.448-.245,19.418c-.073,7.464,12.635,7.575,12.631.112m.105-98.811c5.275,0,9.553,4.676,9.553,10.443a10.64,10.64,0,0,1-4.845,9.089,8.91,8.91,0,0,1-4.841,1.439c-5.275,0-9.553-4.676-9.553-10.445a10.639,10.639,0,0,1,4.843-9.087,8.9,8.9,0,0,1,4.843-1.439Zm71.777,69.992-.021,28.819c-.006,7.459,13.507,7.352,13.434-.112l-.245-19.418-.309-36.448m.352,16.184c1.832,5.264,4.577,5.926,6.516,4.721,3.189-1.985,2.107-6.141,1.944-9.42l-.992-19.826c-.23-4.6-12.35-6.448-23.29-5.878m-9.68,47.971-.116,2.7-.245,19.418c-.073,7.464,12.635,7.575,12.631.112m.105-98.811c5.275,0,9.553,4.676,9.553,10.443a10.637,10.637,0,0,1-4.848,9.089,8.9,8.9,0,0,1-4.839,1.439c-5.275,0-9.553-4.676-9.553-10.445a10.639,10.639,0,0,1,4.843-9.087,8.9,8.9,0,0,1,4.843-1.439Z" transform="translate(0 4.164)"/>
      </g>
    </g>
  </g>
</svg>
