<svg xmlns="http://www.w3.org/2000/svg" xmlns:xlink="http://www.w3.org/1999/xlink" width="140" height="140" viewBox="0 0 140 140">
  <defs>
    <style>
      .cls-1 {
        clip-path: url(#clip-humains);
      }

      .cls-2 {
        fill: #00c;
      }

      .cls-3 {
        fill: #6877ff;
      }

      .cls-4 {
        fill: none;
        stroke: #fff;
        stroke-linecap: round;
        stroke-linejoin: round;
        stroke-width: 4px;
      }
    </style>
    <clipPath id="clip-humains">
      <rect width="140" height="140"/>
    </clipPath>
  </defs>
  <g id="humains" class="cls-1">
    <g id="Groupe_64" data-name="Groupe 64" transform="translate(-3.751 -3.745)">
      <path id="picto-x-2" class="cls-2" d="M437.045,82.256V60.472c.013-3.34-1.482-6.377-3.819-7.764A43.84,43.84,0,0,0,411.015,46.8a44.927,44.927,0,0,0-22.451,5.935c-2.357,1.375-3.87,4.427-3.861,7.79V82.256s7.21,9.92,26.312,10.089S437.045,82.256,437.045,82.256Z" transform="translate(-301.786 22.054)"/>
      <path id="picto-x-1" class="cls-3" d="M459.7,97.6V66.39c.019-4.786-2.123-9.137-5.471-11.124A62.812,62.812,0,0,0,422.4,46.8a64.371,64.371,0,0,0-32.167,8.5c-3.377,1.971-5.545,6.342-5.532,11.161V97.6s10.329,14.214,37.7,14.456S459.7,97.6,459.7,97.6Z" transform="translate(-369.423 23.1)"/>
      <g id="picto-ligne" transform="translate(15.28 15.381)">
        <path id="Tracé_1876" data-name="Tracé 1876" class="cls-4" d="M429.923,50.321c0,15.075-8.776,25.124-19.6,25.124S390.711,65.4,390.711,50.321a19.61,19.61,0,1,1,39.212-.014Z" transform="translate(-372.654 -30.303)"/>
        <path id="Tracé_1877" data-name="Tracé 1877" class="cls-4" d="M459.7,101.787V66.39c.019-4.786-2.123-9.137-5.471-11.124A62.812,62.812,0,0,0,422.4,46.8a64.371,64.371,0,0,0-32.167,8.5c-3.377,1.971-5.545,6.342-5.532,11.161v35.322" transform="translate(-384.703 7.72)"/>
        <path id="Tracé_1876-2" data-name="Tracé 1876" class="cls-4" d="M418.146,44.027c0,10.335-6.141,17.224-13.717,17.224s-13.719-6.889-13.719-17.224a13.718,13.718,0,1,1,27.435-.01Z" transform="translate(-310.915 -16.052)"/>
        <path id="Tracé_1877-2" data-name="Tracé 1877" class="cls-4" d="M436.57,84.828V60.348c.013-3.31-1.468-6.319-3.784-7.694A43.442,43.442,0,0,0,410.776,46.8a44.52,44.52,0,0,0-22.247,5.881c-2.336,1.363-3.835,4.387-3.826,7.719V84.828" transform="translate(-317.066 6.62)"/>
      </g>
    </g>
  </g>
</svg>
