<svg xmlns="http://www.w3.org/2000/svg" xmlns:xlink="http://www.w3.org/1999/xlink" width="140" height="140" viewBox="0 0 140 140">
  <defs>
    <style>
      .cls-1 {
        clip-path: url(#clip-independant);
      }

      .cls-2 {
        fill: #00c;
      }

      .cls-3 {
        fill: #6877ff;
      }

      .cls-4 {
        fill: none;
        stroke: #fff;
        stroke-linecap: round;
        stroke-linejoin: round;
        stroke-width: 4px;
      }
    </style>
    <clipPath id="clip-independant">
      <rect width="140" height="140"/>
    </clipPath>
  </defs>
  <g id="independant" class="cls-1">
    <g id="picto-x-2" transform="translate(37.27 65.943)">
      <path id="Soustraction_12" data-name="Soustraction 12" class="cls-2" d="M40.542,67.4v0l7.01-8.549L42.33,14,49.029.72A66.5,66.5,0,0,1,71.806,8.748c3.452,2.049,5.671,6.559,5.652,11.489V52.475a30.118,30.118,0,0,1-8.312,7.344,46.124,46.124,0,0,1-11.421,5.117A62.639,62.639,0,0,1,40.544,67.4ZM36.9,67.363h0a66.244,66.244,0,0,1-17.046-2.712A49.488,49.488,0,0,1,8.421,59.576,31.306,31.306,0,0,1,0,52.475V20.315c-.013-4.97,2.229-9.5,5.713-11.528A68.092,68.092,0,0,1,28.551.771L35.147,14,29.922,58.854,36.9,67.361ZM47.74.538H30.171A63.946,63.946,0,0,1,38.417,0l.52,0c.225,0,.453,0,.678,0A62.174,62.174,0,0,1,47.74.536Z" transform="translate(0 0)"/>
    </g>
    <g id="picto-x-1" transform="translate(14 14.143)">
      <path id="Soustraction_11" data-name="Soustraction 11" class="cls-3" d="M23.756,91.907h0A49.908,49.908,0,0,1,6.535,74.2,49.562,49.562,0,0,1,49.578,0l.451,0a20.741,20.741,0,0,0-7.624,16.167c0,15.036,8.517,25.949,20.252,25.949S82.906,31.205,82.906,16.169v-.015a21.287,21.287,0,0,0-.3-3.55A49.661,49.661,0,0,1,97.552,62.13a9.647,9.647,0,0,0-1.99-1.582,64.59,64.59,0,0,0-32.2-8.749c-.224,0-.45,0-.674,0l-.521,0a66.178,66.178,0,0,0-32.7,8.785c-3.484,2.034-5.727,6.559-5.714,11.528V91.907Z" transform="translate(0 0)"/>
    </g>
    <g id="picto-ligne" transform="translate(37.756 9.636)">
      <path id="Tracé_1876" data-name="Tracé 1876" class="cls-4" d="M431.211,50.979c0,15.571-9.065,25.95-20.248,25.95s-20.252-10.379-20.252-25.95a20.254,20.254,0,1,1,40.5-.014Z" transform="translate(-372.061 -30.303)"/>
      <path id="Tracé_1877" data-name="Tracé 1877" class="cls-4" d="M462.161,103.594V67.034c.02-4.943-2.193-9.437-5.651-11.49A64.876,64.876,0,0,0,423.64,46.8a66.486,66.486,0,0,0-33.224,8.783c-3.488,2.035-5.727,6.551-5.714,11.528v36.483" transform="translate(-384.703 9.511)"/>
      <path id="Tracé_174" data-name="Tracé 174" class="cls-4" d="M-118.656,50.667l-3.159,6.206,5.224,44.855-8.816,10.751-8.816-10.751L-129,56.872l-3.159-6.206" transform="translate(163.659 13.433)"/>
      <path id="Tracé_175" data-name="Tracé 175" class="cls-4" d="M-133.378,57.665l5.737,3.987,4.7-8.332" transform="translate(182.955 13.52)"/>
      <path id="Tracé_176" data-name="Tracé 176" class="cls-4" d="M-122.938,57.665l-5.737,3.987-4.7-8.332" transform="translate(149.904 13.52)"/>
    </g>
  </g>
</svg>
