<svg xmlns="http://www.w3.org/2000/svg" xmlns:xlink="http://www.w3.org/1999/xlink" width="140" height="140" viewBox="0 0 140 140">
  <defs>
    <style>
      .cls-1 {
        clip-path: url(#clip-interrogation);
      }

      .cls-2 {
        fill: #00c;
      }

      .cls-3 {
        fill: #6877ff;
      }

      .cls-4 {
        fill: none;
        stroke: #fff;
        stroke-linecap: round;
        stroke-linejoin: round;
        stroke-width: 4px;
      }
    </style>
    <clipPath id="clip-interrogation">
      <rect width="140" height="140"/>
    </clipPath>
  </defs>
  <g id="interrogation" class="cls-1">
    <g id="Groupe_130" data-name="Groupe 130">
      <g id="picto-x-2" transform="translate(15.371 1)">
        <path id="Soustraction_15" data-name="Soustraction 15" class="cls-2" d="M92.129-500a58.135,58.135,0,0,1-22.771-4.6,58.3,58.3,0,0,1-18.595-12.537,58.3,58.3,0,0,1-12.537-18.595,58.135,58.135,0,0,1-4.6-22.771,58.134,58.134,0,0,1,4.6-22.771,58.306,58.306,0,0,1,12.537-18.595A58.305,58.305,0,0,1,69.358-612.4,58.134,58.134,0,0,1,92.129-617a58.133,58.133,0,0,1,22.771,4.6,58.306,58.306,0,0,1,18.595,12.537,58.306,58.306,0,0,1,12.537,18.595,58.132,58.132,0,0,1,4.6,22.771,58.133,58.133,0,0,1-4.6,22.771,58.3,58.3,0,0,1-12.537,18.595A58.306,58.306,0,0,1,114.9-504.6,58.134,58.134,0,0,1,92.129-500Zm-11.79-86.969a9.469,9.469,0,0,1,6.939,2.534c1.7,1.72,2.557,4.185,2.557,7.328,0,7.913-4.339,11.7-9.364,16.089-6.567,5.734-14.011,12.234-14.011,29.929v6.026H91.113v-4.93c0-10.419,5.963-15.6,12.277-21.077,7.162-6.218,14.568-12.647,14.568-27.316,0-15.088-10.616-30.313-34.331-30.313-15.3,0-27.247,6.331-36.523,19.356l16.253,12.6C69.42-583.911,74.5-586.969,80.339-586.969Z" transform="translate(-32 617)"/>
      </g>
      <g id="picto-x-1" transform="translate(38.571 19.255)">
        <path id="Soustraction_16" data-name="Soustraction 16" class="cls-3" d="M83-533.854H58.346L90.86-574.007a19.868,19.868,0,0,0,4.348-14.677,19.87,19.87,0,0,0-7.3-13.453L69.394-617.124a50.268,50.268,0,0,1,6.117-.366c10.692,0,19.612,3.228,25.793,9.336a29.18,29.18,0,0,1,8.537,20.978,33.633,33.633,0,0,1-1.282,9.593,27.068,27.068,0,0,1-3.35,7.264c-2.758,4.228-6.406,7.4-9.935,10.459C88.962-554.38,83-549.2,83-538.784v4.929Z" transform="translate(-47.086 607.535)"/>
        <path id="Rond" class="cls-3" d="M31.39,15.795c-9.031,0-14.762,7.294-14.762,15.283S22.36,46.186,31.39,46.186c8.857,0,14.762-7.12,14.762-15.109S40.247,15.795,31.39,15.795Z" transform="translate(-7.226 71.905)"/>
      </g>
      <g id="picto-ligne" transform="translate(30.475 9.373)">
        <path id="Tracé_198" data-name="Tracé 198" class="cls-4" d="M37.843-78.1C21.59-78.1,9.9-70.8,1.32-58.743l16.253,12.6C23.6-53.265,28.712-56.369,34.555-56.369s9.5,3.47,9.5,9.861c0,18.261-23.374,14.792-23.374,46.018V5.537H45.33V.606c0-22.1,26.844-20.635,26.844-48.392C72.174-63.308,60.852-78.1,37.843-78.1Z" transform="translate(-1.32 78.1)"/>
        <path id="Rond-2" data-name="Rond" class="cls-4" d="M31.39,15.795c-9.031,0-14.762,7.294-14.762,15.283S22.36,46.186,31.39,46.186c8.857,0,14.762-7.12,14.762-15.109S40.247,15.795,31.39,15.795Z" transform="translate(0.87 81.787)"/>
      </g>
    </g>
  </g>
</svg>
