<svg xmlns="http://www.w3.org/2000/svg" xmlns:xlink="http://www.w3.org/1999/xlink" width="140" height="140" viewBox="0 0 140 140">
  <defs>
    <style>
      .cls-1 {
        clip-path: url(#clip-localisation-light);
      }

      .cls-2 {
        fill: #6877ff;
      }

      .cls-3 {
        fill: #00c;
      }

      .cls-4 {
        fill: none;
        stroke-linejoin: round;
      }

      .cls-4, .cls-5 {
        stroke: #fff;
        stroke-linecap: round;
        stroke-miterlimit: 10;
        stroke-width: 4px;
      }
    </style>
    <clipPath id="clip-localisation-light">
      <rect width="140" height="140"/>
    </clipPath>
  </defs>
  <g id="localisation-light" class="cls-1">
    <g id="Groupe_174" data-name="Groupe 174">
      <g id="picto-x-1" transform="translate(25.745 5.832)">
        <path id="Soustraction_32" data-name="Soustraction 32" class="cls-2" d="M44.552,127.419h0L20.809,90.179l-3.038-4.765L7.517,69.332l-.036-.057a44.552,44.552,0,1,1,74.144,0c-.013.019-.025.037-.036.056-2.086,3.272-35.4,55.524-37.036,58.087Zm0-107.058A24.191,24.191,0,1,0,68.743,44.553,24.219,24.219,0,0,0,44.552,20.362Z" transform="translate(0 0)"/>
      </g>
      <g id="picto-x-2" transform="translate(60.721 32.603)">
        <path id="Intersection_8" data-name="Intersection 8" class="cls-3" d="M0,85.629C4.746,78.188,33.783,28.523,50.425,0a44.575,44.575,0,0,1-3.777,42.5c-.014.019-.024.038-.037.056L9.576,100.649Z" transform="translate(0 0)"/>
      </g>
      <g id="picto-ligne" transform="translate(25.744 5.832)">
        <path id="Tracé_317" data-name="Tracé 317" class="cls-4" d="M123.481,89.275a44.552,44.552,0,1,1,74.144,0c-.014.018-.025.037-.037.056-2.09,3.278-35.426,55.565-37.035,58.088L123.517,89.331C123.506,89.312,123.493,89.294,123.481,89.275Z" transform="translate(-116 -20)"/>
        <path id="Tracé_318" data-name="Tracé 318" class="cls-5" d="M263.062,309.3l15.7-26.079" transform="translate(-215.058 -204.275)"/>
        <ellipse id="Ellipse_139" data-name="Ellipse 139" class="cls-4" cx="25.191" cy="25.191" rx="25.191" ry="25.191" transform="translate(19.361 19.361)"/>
      </g>
    </g>
  </g>
</svg>
