<svg xmlns="http://www.w3.org/2000/svg" xmlns:xlink="http://www.w3.org/1999/xlink" width="140" height="140" viewBox="0 0 140 140">
  <defs>
    <style>
      .cls-1 {
        clip-path: url(#clip-loupe);
      }

      .cls-2 {
        fill: #00c;
      }

      .cls-3 {
        fill: #6877ff;
      }

      .cls-4, .cls-5 {
        fill: none;
        stroke: #fff;
        stroke-linecap: round;
        stroke-width: 4px;
      }

      .cls-4 {
        stroke-linejoin: round;
      }
    </style>
    <clipPath id="clip-loupe">
      <rect width="140" height="140"/>
    </clipPath>
  </defs>
  <g id="loupe" class="cls-1">
    <g id="Groupe_164" data-name="Groupe 164" transform="translate(-4 -5)">
      <g id="picto-x-2" transform="translate(85.677 85.478)">
        <path id="Tracé_316" data-name="Tracé 316" class="cls-2" d="M0,0H12.161V64.86a4.054,4.054,0,0,1-4.054,4.054H4.054A4.054,4.054,0,0,1,0,64.86Z" transform="translate(0 8.599) rotate(-45)"/>
      </g>
      <g id="picto-x-1" transform="translate(20.055 31.168)">
        <path id="Soustraction_31" data-name="Soustraction 31" class="cls-3" d="M32.8,55.093c-.386,0-.778-.007-1.165-.02A32.747,32.747,0,0,1,.021,21.175,32.648,32.648,0,0,1,8.773,0L55.917,45.527A32.684,32.684,0,0,1,32.8,55.093Z" transform="translate(0 0)"/>
      </g>
      <g id="picto-ligne" transform="translate(-31.121 53.275) rotate(-45)">
        <g id="Groupe_163" data-name="Groupe 163" transform="matrix(-0.588, 0.809, -0.809, -0.588, 118.071, 49.685)">
          <path id="Tracé_31" data-name="Tracé 31" class="cls-4" d="M42.264,0A42.223,42.223,0,1,1,2.39,28.22" transform="translate(0 0)"/>
          <path id="Tracé_32" data-name="Tracé 32" class="cls-4" d="M0,11.5A42.475,42.475,0,0,1,13.148,0" transform="translate(8.472 5.376)"/>
          <path id="Tracé_314" data-name="Tracé 314" class="cls-5" d="M32.775,0A32.775,32.775,0,1,1,0,32.775,32.775,32.775,0,0,1,32.775,0Z" transform="translate(4.119 67.76) rotate(-79)"/>
        </g>
        <line id="Ligne_124" data-name="Ligne 124" class="cls-5" y2="7.476" transform="translate(59.818 101.834)"/>
        <path id="Tracé_313" data-name="Tracé 313" class="cls-5" d="M0,0H11.976V63.87a3.992,3.992,0,0,1-3.992,3.992H3.992A3.992,3.992,0,0,1,0,63.87Z" transform="translate(53.83 111.44)"/>
      </g>
    </g>
  </g>
</svg>
