<svg xmlns="http://www.w3.org/2000/svg" xmlns:xlink="http://www.w3.org/1999/xlink" width="140" height="140" viewBox="0 0 140 140">
  <defs>
    <style>
      .cls-1 {
        clip-path: url(#clip-piece);
      }

      .cls-2 {
        fill: #00c;
      }

      .cls-3 {
        fill: #6877ff;
      }

      .cls-4 {
        fill: none;
        stroke: #fff;
        stroke-linecap: round;
        stroke-linejoin: round;
        stroke-width: 4px;
      }
    </style>
    <clipPath id="clip-piece">
      <rect width="140" height="140"/>
    </clipPath>
  </defs>
  <g id="piece" class="cls-1">
    <g id="euro_piece" data-name="euro piece" transform="translate(-443 -112.001)">
      <path id="picto-x-2" class="cls-2" d="M11,67.477a56.478,56.478,0,1,1,56.478,56.478A56.477,56.477,0,0,1,11,67.477Z" transform="translate(437 114.001)"/>
      <path id="picto-x-1" class="cls-3" d="M-55.776,74.7h22.82L-30.391,64.7h-26V56.032h27.826L-25.875,45.9H-55.532q2.2-7.322,6.652-10.987A15.944,15.944,0,0,1-38.445,31.26a27.779,27.779,0,0,1,8.176,1.16A28.364,28.364,0,0,1-22.7,36.141l6.836-11.716a40.778,40.778,0,0,0-23.31-7.081,35.557,35.557,0,0,0-22.638,7.629Q-71.519,32.6-75.058,45.9h-8.054L-85.8,56.032h10.005V64.7h-7.321L-85.8,74.7h10.5Q-72.373,88.5-63.16,96.06t23.37,7.568a42.809,42.809,0,0,0,9.95-1.1,54.844,54.844,0,0,0,9.7-3.419V84.345a35.283,35.283,0,0,1-17.816,5.247q-7.2,0-11.594-3.6T-55.776,74.7Z" transform="translate(555.143 121.097)"/>
      <g id="picto-ligne" transform="translate(448.091 117.091)">
        <circle id="Ellipse_5" data-name="Ellipse 5" class="cls-4" cx="64.89" cy="64.89" r="64.89" transform="translate(-0.015 -0.004)"/>
        <path id="Tracé_115" data-name="Tracé 115" class="cls-4" d="M-55.119,75.959H-31.8l2.621-10.224H-55.743V56.879h28.435l2.745-10.35H-54.869q2.247-7.483,6.8-11.227a16.293,16.293,0,0,1,10.663-3.738,28.387,28.387,0,0,1,8.355,1.185,28.985,28.985,0,0,1,7.732,3.8l6.985-11.972a41.671,41.671,0,0,0-23.82-7.237,36.336,36.336,0,0,0-23.134,7.8q-9.916,7.795-13.532,21.39h-8.231L-85.8,56.879h10.224v8.855h-7.481L-85.8,75.959h10.725q2.993,14.1,12.407,21.825t23.882,7.734A43.747,43.747,0,0,0-28.615,104.4a56.045,56.045,0,0,0,9.91-3.494V85.812a36.056,36.056,0,0,1-18.206,5.362q-7.356,0-11.848-3.676T-55.119,75.959Z" transform="translate(106.096 3.052)"/>
      </g>
    </g>
  </g>
</svg>
