<svg xmlns="http://www.w3.org/2000/svg" xmlns:xlink="http://www.w3.org/1999/xlink" width="140" height="140" viewBox="0 0 140 140">
  <defs>
    <style>
      .cls-1 {
        clip-path: url(#clip-recyclage);
      }

      .cls-2 {
        fill: #00c;
      }

      .cls-3 {
        fill: #6877ff;
      }

      .cls-4 {
        fill: none;
        stroke: #fff;
        stroke-linecap: round;
        stroke-linejoin: round;
        stroke-width: 4px;
      }
    </style>
    <clipPath id="clip-recyclage">
      <rect width="140" height="140"/>
    </clipPath>
  </defs>
  <g id="recyclage" class="cls-1">
    <g id="Recyclage-2" data-name="Recyclage" transform="translate(-1452.244 -23.631)">
      <circle id="picto-x-2" class="cls-2" cx="41.557" cy="41.557" r="41.557" transform="translate(1454.946 32.644)"/>
      <path id="picto-x-1" class="cls-3" d="M1559.384,111.037a23.566,23.566,0,0,0,.07-23.943L1549.013,69.01l-14.687,8.479,10.441,18.084a6.721,6.721,0,0,1,.039,6.845,7.27,7.27,0,0,1-6.387,3.475H1525.1V93.872l-24.784,20.487,24.784,20.492V122.828h13.175A24.391,24.391,0,0,0,1559.384,111.037Z" transform="translate(25.649 20.558)"/>
      <g id="picto-ligne" transform="translate(1472.165 36.634)">
        <path id="Tracé_5" data-name="Tracé 5" class="cls-4" d="M1490.127,126.833h20.881v-16.96h-20.881a6.723,6.723,0,0,1-5.945-3.386,7.273,7.273,0,0,1,.182-7.269l6.659-11.533,10.413,6.011-5.352-31.71L1465.946,73.2l10.413,6.012-6.587,11.41a24.393,24.393,0,0,0-.343,24.176A23.562,23.562,0,0,0,1490.127,126.833Z" transform="translate(-1465.946 -20.047)"/>
        <path id="Tracé_7" data-name="Tracé 7" class="cls-4" d="M1559.384,111.325a23.563,23.563,0,0,0,.07-23.942L1549.013,69.3l-14.687,8.479,10.441,18.084a6.721,6.721,0,0,1,.039,6.845,7.27,7.27,0,0,1-6.387,3.475H1525.1V94.159l-24.784,20.487,24.784,20.493V123.116h13.175A24.392,24.392,0,0,0,1559.384,111.325Z" transform="translate(-1446.516 -15.913)"/>
        <path id="Tracé_8" data-name="Tracé 8" class="cls-4" d="M1541.872,58.989l-6.588-11.41a24.394,24.394,0,0,0-20.766-12.385,23.433,23.433,0,0,0-20.769,11.911l-10.441,18.086L1498,73.67l10.439-18.084a6.727,6.727,0,0,1,5.907-3.456,7.15,7.15,0,0,1,6.2,3.793l6.661,11.533-10.413,6.012,30.136,11.219,5.353-31.71Z" transform="translate(-1456.131 -35.193)"/>
      </g>
    </g>
  </g>
</svg>
