<svg xmlns="http://www.w3.org/2000/svg" xmlns:xlink="http://www.w3.org/1999/xlink" width="140" height="140" viewBox="0 0 140 140">
  <defs>
    <style>
      .cls-1 {
        clip-path: url(#clip-sante);
      }

      .cls-2 {
        fill: #00c;
      }

      .cls-3 {
        fill: #6877ff;
      }

      .cls-4, .cls-5 {
        fill: none;
        stroke: #fff;
        stroke-linecap: round;
        stroke-miterlimit: 10;
        stroke-width: 4px;
      }

      .cls-4 {
        stroke-linejoin: round;
      }
    </style>
    <clipPath id="clip-sante">
      <rect width="140" height="140"/>
    </clipPath>
  </defs>
  <g id="sante" class="cls-1">
    <g id="Groupe_112" data-name="Groupe 112">
      <g id="picto-x-2">
        <path id="Soustraction_9" data-name="Soustraction 9" class="cls-2" d="M-617.466-138.251h0c.067-1.277.1-2.573.1-3.852v-52.389a27.486,27.486,0,0,0,22.393,10.773c.522,0,1.055-.012,1.584-.036,5.982-.272,14.668-2.931,22.075-14.052.835-.91,1.518-1.691,2.09-2.387a55.691,55.691,0,0,1,.534,7.7,54.64,54.64,0,0,1-14.124,36.751,53.668,53.668,0,0,1-34.653,17.5Zm-10.46,0a53.671,53.671,0,0,1-34.643-17.5A54.64,54.64,0,0,1-676.688-192.5a55.668,55.668,0,0,1,.579-8.011c.626.781,1.372,1.639,2.347,2.7,7.414,11.12,16.109,13.779,22.1,14.052.529.024,1.063.036,1.587.036,9.092,0,16.511-3.47,22.05-10.314v51.93c0,1.278.034,2.574.1,3.851Zm-.1-68.167h0c-1.386,0-6.126-.108-8.932-1.449-3.117-1.487-3.616-4.741-3.693-7.728a7.624,7.624,0,0,0-5.409-5.152,27.168,27.168,0,0,0-7.174-.733c-1.715,0-3.455.071-4.991.133-.846.034-1.644.067-2.371.085-3.174-.109-5.537-.259-7.664-.486a54.6,54.6,0,0,1,19.2-18.318,53.435,53.435,0,0,1,12.521-5.122A53.7,53.7,0,0,1-622.688-247a53.7,53.7,0,0,1,13.864,1.813,53.434,53.434,0,0,1,12.528,5.128,54.6,54.6,0,0,1,19.2,18.339c-2.062.211-4.333.351-7.367.456-.725-.018-1.521-.051-2.365-.085-1.536-.062-3.275-.133-4.989-.133a27.119,27.119,0,0,0-7.168.733,7.622,7.622,0,0,0-5.4,5.152c-.077,2.987-.576,6.242-3.688,7.728-2.812,1.344-7.556,1.449-8.943,1.449-.179,0-.3,0-.345,0v-9.006h-.058a12.652,12.652,0,0,0,7.3-11.434,12.617,12.617,0,0,0-12.6-12.6,12.616,12.616,0,0,0-12.6,12.6,12.652,12.652,0,0,0,7.3,11.437v9Z" transform="translate(693.688 248)"/>
      </g>
      <g id="picto-x-1" transform="translate(7.688 21.973)">
        <path id="Soustraction_7" data-name="Soustraction 7" class="cls-3" d="M35.925,42.306c-.531,0-1.066-.014-1.589-.037-5.989-.272-14.684-2.931-22.1-14.051-2.7-2.944-4.043-4.783-4.944-6.785-.925-2.057-1.372-4.238-1.969-8.06A19.81,19.81,0,0,1,.81,5.662,21.158,21.158,0,0,1,0,.092L0,0A116.3,116.3,0,0,0,18.954,4.387,45.308,45.308,0,0,0,58.235,27.233h.125V31.5a27.335,27.335,0,0,1-11.012,8.6,29.282,29.282,0,0,1-11.422,2.2h0Z" transform="translate(0 0)"/>
        <path id="Soustraction_8" data-name="Soustraction 8" class="cls-3" d="M22.435,42.306c.531,0,1.066-.014,1.589-.037,5.989-.272,14.684-2.931,22.1-14.051,2.7-2.944,4.043-4.783,4.944-6.785.925-2.057,1.372-4.238,1.969-8.06A19.81,19.81,0,0,0,57.55,5.662a21.156,21.156,0,0,0,.807-5.57l0-.092A116.3,116.3,0,0,1,39.406,4.387,45.308,45.308,0,0,1,.125,27.233H0V31.5a27.335,27.335,0,0,0,11.012,8.6,29.282,29.282,0,0,0,11.422,2.2h0Z" transform="translate(68.387 0)"/>
      </g>
      <g id="picto-ligne" transform="translate(7.706 8.535)">
        <circle id="Ellipse_100" data-name="Ellipse 100" class="cls-4" cx="12.602" cy="12.602" r="12.602" transform="translate(50.651 0)"/>
        <path id="Tracé_150" data-name="Tracé 150" class="cls-4" d="M245.9,103.638v73.323a73.992,73.992,0,0,1-2.066,17.365l-3.225,12.348a.041.041,0,0,1-.08,0L237.3,194.326a73.99,73.99,0,0,1-2.067-17.365V103.638" transform="translate(-177.284 -79.602)"/>
        <path id="Tracé_151" data-name="Tracé 151" class="cls-4" d="M162.826,276.643a14.043,14.043,0,0,1,12.2-20.99h4.909" transform="translate(-121.981 -192.825)"/>
        <path id="Tracé_152" data-name="Tracé 152" class="cls-4" d="M185.029,303.072h-9.052a9.67,9.67,0,1,1,0-19.341h23.3a14.039,14.039,0,0,0,0-28.078h-4.722" transform="translate(-125.942 -192.825)"/>
        <path id="Tracé_153" data-name="Tracé 153" class="cls-4" d="M278.437,456.918a7.723,7.723,0,0,0,0-15.446h-5.854" transform="translate(-205.099 -331.225)"/>
        <line id="Ligne_74" data-name="Ligne 74" class="cls-5" x1="1.986" transform="translate(52.177 125.693)"/>
        <g id="Groupe_110" data-name="Groupe 110" transform="translate(68.615 13.529)">
          <path id="Tracé_154" data-name="Tracé 154" class="cls-4" d="M277.012,172.432a27.849,27.849,0,0,0,46.571-5.007" transform="translate(-277.012 -140.641)"/>
          <path id="Tracé_155" data-name="Tracé 155" class="cls-4" d="M416.528,114.252a18.541,18.541,0,0,1-18.541,18.541h-4.113" transform="translate(-364.052 -101.037)"/>
          <path id="Tracé_156" data-name="Tracé 156" class="cls-4" d="M277.018,82.433h3.88c5.01,0,9.072-3.713,9.072-8.292,0-3.961,3.514-7.173,7.848-7.173h13.25A55.5,55.5,0,0,0,325.727,65l9.244-2.531a18.541,18.541,0,0,1-18.541,18.541h-5.478" transform="translate(-277.016 -62.466)"/>
        </g>
        <g id="Groupe_111" data-name="Groupe 111" transform="translate(0 13.529)">
          <path id="Tracé_157" data-name="Tracé 157" class="cls-4" d="M99.311,172.432a27.849,27.849,0,0,1-46.571-5.007" transform="translate(-41.357 -140.641)"/>
          <path id="Tracé_158" data-name="Tracé 158" class="cls-4" d="M29.6,114.252a18.541,18.541,0,0,0,18.541,18.541h4.113" transform="translate(-24.122 -101.037)"/>
          <path id="Tracé_159" data-name="Tracé 159" class="cls-4" d="M66.086,82.433h-3.88c-5.01,0-9.072-3.713-9.072-8.292,0-3.961-3.514-7.173-7.848-7.173H32.036A55.5,55.5,0,0,1,17.377,65L8.133,62.466A18.541,18.541,0,0,0,26.674,81.007h5.478" transform="translate(-8.133 -62.466)"/>
        </g>
      </g>
    </g>
  </g>
</svg>
