<svg xmlns="http://www.w3.org/2000/svg" xmlns:xlink="http://www.w3.org/1999/xlink" width="140" height="140" viewBox="0 0 140 140">
  <defs>
    <style>
      .cls-1 {
        clip-path: url(#clip-securite);
      }

      .cls-2 {
        fill: #00c;
      }

      .cls-3 {
        fill: #6877ff;
      }

      .cls-4 {
        fill: none;
        stroke: #fff;
        stroke-linecap: round;
        stroke-linejoin: round;
        stroke-width: 4px;
      }
    </style>
    <clipPath id="clip-securite">
      <rect width="140" height="140"/>
    </clipPath>
  </defs>
  <g id="securite" class="cls-1">
    <g id="Groupe_28" data-name="Groupe 28">
      <path id="picto-x-2" class="cls-2" d="M0,0H73.6a0,0,0,0,1,0,0V53.488A11.183,11.183,0,0,1,62.421,64.671H11.183A11.183,11.183,0,0,1,0,53.488V0A0,0,0,0,1,0,0Z" transform="translate(33.525 61.397)"/>
      <path id="picto-x-1" class="cls-3" d="M157.972,321.9l-2.03,16.461a2.9,2.9,0,0,0,2.884,3.222h11.607a2.9,2.9,0,0,0,2.884-3.222l-2.03-16.461a11.306,11.306,0,0,0,4.948-9.135,11.607,11.607,0,1,0-23.213,0A11.307,11.307,0,0,0,157.972,321.9Z" transform="translate(-94.33 -232.949)"/>
      <g id="picto-ligne" transform="translate(25.424 6.911)">
        <path id="Tracé_50" data-name="Tracé 50" class="cls-4" d="M157.972,321.9l-2.03,16.461a2.9,2.9,0,0,0,2.884,3.222h11.607a2.9,2.9,0,0,0,2.884-3.222l-2.03-16.461a11.306,11.306,0,0,0,4.948-9.135,11.607,11.607,0,1,0-23.213,0A11.307,11.307,0,0,0,157.972,321.9Z" transform="translate(-119.755 -239.86)"/>
        <path id="Tracé_51" data-name="Tracé 51" class="cls-4" d="M183.452,272.937a34.778,34.778,0,0,1,2.944,14.054v12.464" transform="translate(-106.568 -252.087)"/>
        <path id="Tracé_52" data-name="Tracé 52" class="cls-4" d="M174.169,262.156a35.092,35.092,0,0,1,9.784,9.264" transform="translate(-110.591 -256.759)"/>
        <path id="Tracé_53" data-name="Tracé 53" class="cls-4" d="M136.8,305.759V293.295a34.937,34.937,0,0,1,42.761-34.016" transform="translate(-126.783 -258.391)"/>
        <path id="Tracé_54" data-name="Tracé 54" class="cls-4" d="M144.815,302.329v-12.6a23.422,23.422,0,1,1,46.843,0v12.6" transform="translate(-123.312 -254.961)"/>
        <path id="Rectangle_47" data-name="Rectangle 47" class="cls-4" d="M0,0H89.805a0,0,0,0,1,0,0V65.408a13.5,13.5,0,0,1-13.5,13.5H13.5A13.5,13.5,0,0,1,0,65.408V0A0,0,0,0,1,0,0Z" transform="translate(0 47.368)"/>
      </g>
    </g>
  </g>
</svg>
