<svg xmlns="http://www.w3.org/2000/svg" xmlns:xlink="http://www.w3.org/1999/xlink" width="140" height="140" viewBox="0 0 140 140">
  <defs>
    <style>.picto-x-1, .picto-x-1 path, .picto-x-1 ellipse, .picto-x-1 rect, .picto-x-1 line, .picto-x-1 rect, .picto-x-1 g{ fill: #373CF5; } .picto-x-2, .picto-x-2 path, .picto-x-2 ellipse, .picto-x-2 rect, .picto-x-2 line, .picto-x-2 rect, .picto-x-2 g { fill: #6877ff ; } .picto-ligne, .picto-ligne path, .picto-ligne ellipse, .picto-ligne rect, .picto-ligne line, .picto-ligne rect, .picto-ligne g { fill: none; stroke: #222222; stroke-linecap: round; stroke-linejoin: round; stroke-width: 4px; } .picto-x-1, .picto-x-1 path, .picto-x-1 ellipse, .picto-x-1 rect, .picto-x-1 line, .picto-x-1 rect, .picto-x-1 g{ fill: #373CF5; } .picto-x-2, .picto-x-2 path, .picto-x-2 ellipse, .picto-x-2 rect, .picto-x-2 line, .picto-x-2 rect, .picto-x-2 g { fill: #6877ff ; } .picto-ligne, .picto-ligne path, .picto-ligne ellipse, .picto-ligne rect, .picto-ligne line, .picto-ligne rect, .picto-ligne g { fill: none; stroke: #222222; stroke-linecap: round; stroke-linejoin: round; stroke-width: 4px; }.picto-x-1, .picto-x-1 path, .picto-x-1 ellipse, .picto-x-1 rect, .picto-x-1 line, .picto-x-1 rect, .picto-x-1 g{ fill: #373CF5; } .picto-x-2, .picto-x-2 path, .picto-x-2 ellipse, .picto-x-2 rect, .picto-x-2 line, .picto-x-2 rect, .picto-x-2 g { fill: #6877ff ; } .picto-ligne, .picto-ligne path, .picto-ligne ellipse, .picto-ligne rect, .picto-ligne line, .picto-ligne rect, .picto-ligne g { fill: none; stroke: #222222; stroke-linecap: round; stroke-linejoin: round; stroke-width: 4px; } .picto-x-1, .picto-x-1 path, .picto-x-1 ellipse, .picto-x-1 rect, .picto-x-1 line, .picto-x-1 rect, .picto-x-1 g{ fill: #373CF5; } .picto-x-2, .picto-x-2 path, .picto-x-2 ellipse, .picto-x-2 rect, .picto-x-2 line, .picto-x-2 rect, .picto-x-2 g { fill: #6877ff ; } .picto-ligne, .picto-ligne path, .picto-ligne ellipse, .picto-ligne rect, .picto-ligne line, .picto-ligne rect, .picto-ligne g { fill: none; stroke: #222222; stroke-linecap: round; stroke-linejoin: round; stroke-width: 4px; }</style>
    <clipPath class="clip-securite">
      <rect width="140" height="140"/>
    </clipPath>
  </defs>
  <g class="securite">
    <g class="Groupe_98" data-name="Groupe 98">
      <path class="picto-x-2" d="M144.121,63.287a63.74,63.74,0,0,1-19.344,46.579c-10.016,9.814-20.725,14.172-23.105,14.172s-13.09-4.358-23.106-14.172A63.741,63.741,0,0,1,59.222,63.287V41.311A182.978,182.978,0,0,0,101.673,23.25a188.769,188.769,0,0,0,42.449,18.06Z" transform="translate(-31.477 -3.307)"/>
      <g class="picto-x-1">
        <path class="Intersection_2" data-name="Intersection 2" d="M-476.653-160.385A63.525,63.525,0,0,1-495.9-203.2a178.392,178.392,0,0,0,42.374,4.344v52.646h-.021C-455.927-146.212-466.637-150.57-476.653-160.385Z" transform="translate(523.741 266.943)"/>
        <path class="Intersection_1" data-name="Intersection 1" d="M-416.328-215.807h0a188.729,188.729,0,0,0,42.449,18.06v21.977c0,.743-.011,1.479-.033,2.206-12.785,4.472-28.68,5.61-42.416,5.61Z" transform="translate(486.523 235.75)"/>
      </g>
      <g class="picto-ligne" transform="translate(-43.222 -17.25)">
        <path class="Tracé_130" data-name="Tracé 130" d="M167.611,74.364c0,29.15-13.429,48.427-24.7,59.466-12.787,12.53-26.46,18.093-29.5,18.093s-16.711-5.563-29.5-18.093c-11.266-11.039-24.7-30.316-24.7-59.466V46.308a233.6,233.6,0,0,0,54.2-23.058,241,241,0,0,0,54.193,23.057Z"/>
        <path class="Tracé_127" data-name="Tracé 127" d="M101.867,134.214v-9.287c4.869-1.575,9.733-3.318,14.486-5.191" transform="translate(-30.9 -69.913)"/>
        <path class="Tracé_128" data-name="Tracé 128" d="M332.723,296.472a81.554,81.554,0,0,1-16.645,25.5,75.763,75.763,0,0,1-8.508,7.57" transform="translate(-179.951 -197.974)"/>
        <line class="Ligne_68" data-name="Ligne 68" y2="81.245" transform="translate(113.416 45.895)"/>
        <path class="Tracé_129" data-name="Tracé 129" d="M183,237.751c18.285,2.286,46.819.551,55.908-2.479" transform="translate(-89.689 -153.629)"/>
      </g>
    </g>
  </g>
</svg>
