<svg xmlns="http://www.w3.org/2000/svg" xmlns:xlink="http://www.w3.org/1999/xlink" width="140" height="140" viewBox="0 0 140 140">
  <defs>
    <style>
      .cls-1 {
        clip-path: url(#clip-smartphone);
      }

      .cls-2 {
        fill: #6877ff;
      }

      .cls-3 {
        fill: #00c;
      }

      .cls-4, .cls-5, .cls-6 {
        fill: none;
        stroke: #fff;
        stroke-linecap: round;
        stroke-width: 4px;
      }

      .cls-4, .cls-6 {
        stroke-linejoin: round;
      }

      .cls-6 {
        stroke-miterlimit: 10;
      }
    </style>
    <clipPath id="clip-smartphone">
      <rect width="140" height="140"/>
    </clipPath>
  </defs>
  <g id="smartphone" class="cls-1">
    <g id="Groupe_157" data-name="Groupe 157">
      <g id="picto-x-1">
        <path id="Soustraction_28" data-name="Soustraction 28" class="cls-2" d="M-1206.059-647.557a6.221,6.221,0,0,1-3.829-1.33,6.212,6.212,0,0,1-2.2-3.483l-24.522-106.954a6.155,6.155,0,0,1,.79-4.676,6.154,6.154,0,0,1,3.865-2.748L-1187.236-777l-15.829,128.92-1.6.367A6.235,6.235,0,0,1-1206.059-647.557Z" transform="translate(1247.731 784.13)"/>
      </g>
      <g id="picto-x-2">
        <path id="Tracé_274" data-name="Tracé 274" class="cls-3" d="M2.776,0h5.87a2.776,2.776,0,0,1,2.776,2.776v5.87a2.776,2.776,0,0,1-2.776,2.776H2.776A2.776,2.776,0,0,1,0,8.645V2.776A2.776,2.776,0,0,1,2.776,0Z" transform="translate(45.779 61.894) rotate(-12.913)"/>
        <path id="Tracé_275" data-name="Tracé 275" class="cls-3" d="M2.776,0h5.87a2.776,2.776,0,0,1,2.776,2.776v5.87a2.776,2.776,0,0,1-2.776,2.776H2.776A2.776,2.776,0,0,1,0,8.645V2.776A2.776,2.776,0,0,1,2.776,0Z" transform="translate(63.083 57.927) rotate(-12.913)"/>
        <path id="Tracé_276" data-name="Tracé 276" class="cls-3" d="M2.776,0h5.87a2.776,2.776,0,0,1,2.776,2.776v5.87a2.776,2.776,0,0,1-2.776,2.776H2.776A2.776,2.776,0,0,1,0,8.645V2.776A2.776,2.776,0,0,1,2.776,0Z" transform="translate(32.304 82.559) rotate(-12.913)"/>
        <path id="Tracé_271" data-name="Tracé 271" class="cls-3" d="M2.776,0h5.87a2.776,2.776,0,0,1,2.776,2.776v5.87a2.776,2.776,0,0,1-2.776,2.776H2.776A2.776,2.776,0,0,1,0,8.645V2.776A2.776,2.776,0,0,1,2.776,0Z" transform="translate(20.819 32.466) rotate(-12.913)"/>
        <path id="Tracé_272" data-name="Tracé 272" class="cls-3" d="M2.776,0h5.87a2.776,2.776,0,0,1,2.776,2.776v5.87a2.776,2.776,0,0,1-2.776,2.776H2.776A2.776,2.776,0,0,1,0,8.645V2.776A2.776,2.776,0,0,1,2.776,0Z" transform="translate(55.427 24.531) rotate(-12.913)"/>
        <path id="Tracé_277" data-name="Tracé 277" class="cls-3" d="M2.776,0h5.87a2.776,2.776,0,0,1,2.776,2.776v5.87a2.776,2.776,0,0,1-2.776,2.776H2.776A2.776,2.776,0,0,1,0,8.645V2.776A2.776,2.776,0,0,1,2.776,0Z" transform="translate(24.647 49.164) rotate(-12.913)"/>
        <path id="Tracé_273" data-name="Tracé 273" class="cls-3" d="M2.776,0h5.87a2.776,2.776,0,0,1,2.776,2.776v5.87a2.776,2.776,0,0,1-2.776,2.776H2.776A2.776,2.776,0,0,1,0,8.645V2.776A2.776,2.776,0,0,1,2.776,0Z" transform="translate(41.951 45.196) rotate(-12.913)"/>
        <path id="Soustraction_29" data-name="Soustraction 29" class="cls-3" d="M-1174.231-672.817a64.308,64.308,0,0,1-8.637-.583l26.96-6.181a6.155,6.155,0,0,0,3.865-2.749,6.155,6.155,0,0,0,.789-4.676l-24.521-106.954a6.164,6.164,0,0,0-6.035-4.813,6.232,6.232,0,0,0-1.391.158l-14.783,3.389a63.174,63.174,0,0,1,23.752-4.592,63.1,63.1,0,0,1,24.717,4.99,63.29,63.29,0,0,1,20.184,13.609,63.291,63.291,0,0,1,13.609,20.184,63.1,63.1,0,0,1,4.99,24.717,63.1,63.1,0,0,1-4.99,24.717,63.29,63.29,0,0,1-13.609,20.184,63.289,63.289,0,0,1-20.184,13.609A63.1,63.1,0,0,1-1174.231-672.817Zm-41.309-15.272,0,0a63.983,63.983,0,0,1-9.2-9.733,63.6,63.6,0,0,1-6.991-11.51,63.164,63.164,0,0,1-4.444-12.944,63.869,63.869,0,0,1-1.557-14.039,63.055,63.055,0,0,1,5.3-25.438l16.89,73.664Z" transform="translate(1247.731 804.818)"/>
      </g>
      <g id="picto-ligne">
        <path id="Tracé_254" data-name="Tracé 254" class="cls-4" d="M6.2,0H56.222a6.2,6.2,0,0,1,6.2,6.2V115.926a6.2,6.2,0,0,1-6.2,6.2H6.2a6.2,6.2,0,0,1-6.2-6.2V6.2A6.2,6.2,0,0,1,6.2,0Z" transform="translate(9.731 18.767) rotate(-12.913)"/>
        <path id="Tracé_262" data-name="Tracé 262" class="cls-4" d="M2.776,0h5.87a2.776,2.776,0,0,1,2.776,2.776v5.87a2.776,2.776,0,0,1-2.776,2.776H2.776A2.776,2.776,0,0,1,0,8.645V2.776A2.776,2.776,0,0,1,2.776,0Z" transform="translate(28.475 65.861) rotate(-12.913)"/>
        <path id="Tracé_263" data-name="Tracé 263" class="cls-4" d="M2.776,0h5.87a2.776,2.776,0,0,1,2.776,2.776v5.87a2.776,2.776,0,0,1-2.776,2.776H2.776A2.776,2.776,0,0,1,0,8.645V2.776A2.776,2.776,0,0,1,2.776,0Z" transform="translate(45.779 61.894) rotate(-12.913)"/>
        <path id="Tracé_264" data-name="Tracé 264" class="cls-4" d="M2.776,0h5.87a2.776,2.776,0,0,1,2.776,2.776v5.87a2.776,2.776,0,0,1-2.776,2.776H2.776A2.776,2.776,0,0,1,0,8.645V2.776A2.776,2.776,0,0,1,2.776,0Z" transform="translate(63.083 57.927) rotate(-12.913)"/>
        <path id="Tracé_265" data-name="Tracé 265" class="cls-4" d="M2.776,0h5.87a2.776,2.776,0,0,1,2.776,2.776v5.87a2.776,2.776,0,0,1-2.776,2.776H2.776A2.776,2.776,0,0,1,0,8.645V2.776A2.776,2.776,0,0,1,2.776,0Z" transform="translate(32.304 82.559) rotate(-12.913)"/>
        <path id="Tracé_266" data-name="Tracé 266" class="cls-4" d="M2.776,0h5.87a2.776,2.776,0,0,1,2.776,2.776v5.87a2.776,2.776,0,0,1-2.776,2.776H2.776A2.776,2.776,0,0,1,0,8.645V2.776A2.776,2.776,0,0,1,2.776,0Z" transform="translate(49.608 78.592) rotate(-12.913)"/>
        <path id="Tracé_256" data-name="Tracé 256" class="cls-4" d="M2.776,0h5.87a2.776,2.776,0,0,1,2.776,2.776v5.87a2.776,2.776,0,0,1-2.776,2.776H2.776A2.776,2.776,0,0,1,0,8.645V2.776A2.776,2.776,0,0,1,2.776,0Z" transform="translate(20.819 32.466) rotate(-12.913)"/>
        <path id="Tracé_257" data-name="Tracé 257" class="cls-4" d="M2.776,0h5.87a2.776,2.776,0,0,1,2.776,2.776v5.87a2.776,2.776,0,0,1-2.776,2.776H2.776A2.776,2.776,0,0,1,0,8.645V2.776A2.776,2.776,0,0,1,2.776,0Z" transform="translate(38.123 28.498) rotate(-12.913)"/>
        <path id="Tracé_258" data-name="Tracé 258" class="cls-4" d="M2.776,0h5.87a2.776,2.776,0,0,1,2.776,2.776v5.87a2.776,2.776,0,0,1-2.776,2.776H2.776A2.776,2.776,0,0,1,0,8.645V2.776A2.776,2.776,0,0,1,2.776,0Z" transform="translate(55.427 24.531) rotate(-12.913)"/>
        <path id="Tracé_259" data-name="Tracé 259" class="cls-4" d="M2.776,0h5.87a2.776,2.776,0,0,1,2.776,2.776v5.87a2.776,2.776,0,0,1-2.776,2.776H2.776A2.776,2.776,0,0,1,0,8.645V2.776A2.776,2.776,0,0,1,2.776,0Z" transform="translate(24.647 49.164) rotate(-12.913)"/>
        <path id="Tracé_260" data-name="Tracé 260" class="cls-4" d="M2.776,0h5.87a2.776,2.776,0,0,1,2.776,2.776v5.87a2.776,2.776,0,0,1-2.776,2.776H2.776A2.776,2.776,0,0,1,0,8.645V2.776A2.776,2.776,0,0,1,2.776,0Z" transform="translate(41.951 45.196) rotate(-12.913)"/>
        <path id="Tracé_261" data-name="Tracé 261" class="cls-4" d="M2.776,0h5.87a2.776,2.776,0,0,1,2.776,2.776v5.87a2.776,2.776,0,0,1-2.776,2.776H2.776A2.776,2.776,0,0,1,0,8.645V2.776A2.776,2.776,0,0,1,2.776,0Z" transform="translate(59.255 41.229) rotate(-12.913)"/>
        <path id="Tracé_255" data-name="Tracé 255" class="cls-5" d="M0,7.935,34.608,0" transform="translate(48.306 118.868)"/>
        <path id="Tracé_267" data-name="Tracé 267" class="cls-5" d="M0,14.962,17.993,0" transform="translate(81.185 3.45)"/>
        <path id="Tracé_268" data-name="Tracé 268" class="cls-5" d="M0,16.944,39.552,0" transform="translate(87.365 18.997)"/>
        <path id="Tracé_269" data-name="Tracé 269" class="cls-5" d="M0,1.669,26.287,0" transform="translate(91.349 52.671)"/>
        <path id="Tracé_253" data-name="Tracé 253" class="cls-6" d="M111.2,36.372l.19.827c.559,2.436,2.683,4.028,4.746,3.556l26.037-5.97c2.063-.473,3.282-2.831,2.723-5.268l-.19-.827" transform="translate(-87.772 -20.63)"/>
      </g>
    </g>
  </g>
</svg>
