<svg xmlns="http://www.w3.org/2000/svg" xmlns:xlink="http://www.w3.org/1999/xlink" width="140" height="140" viewBox="0 0 140 140">
  <defs>
    <style>
      .cls-1 {
        clip-path: url(#clip-telephone);
      }

      .cls-2 {
        fill: #00c;
      }

      .cls-3 {
        fill: #6877ff;
      }

      .cls-4, .cls-5 {
        fill: none;
        stroke: #fff;
        stroke-linecap: round;
        stroke-miterlimit: 10;
        stroke-width: 4px;
      }

      .cls-4 {
        stroke-linejoin: round;
      }
    </style>
    <clipPath id="clip-telephone">
      <rect width="140" height="140"/>
    </clipPath>
  </defs>
  <g id="telephone" class="cls-1">
    <g id="Groupe_175" data-name="Groupe 175">
      <g id="picto-x-2">
        <path id="Soustraction_34" data-name="Soustraction 34" class="cls-2" d="M-1183.05-309a47.2,47.2,0,0,1-18.489-3.733,47.343,47.343,0,0,1-15.1-10.18,47.344,47.344,0,0,1-10.18-15.1,47.2,47.2,0,0,1-3.733-18.489,47.425,47.425,0,0,1,2.516-15.294c6.146,10.567,15.166,21.829,26.811,33.474s22.9,20.658,33.465,26.8A47.428,47.428,0,0,1-1183.05-309Zm23.364-22.95h0a5.522,5.522,0,0,1-2.667-.69c-.492-.273-.989-.544-1.469-.806-5.01-2.727-11.244-6.121-23.693-18.585-12.483-12.5-15.878-18.729-18.606-23.735l-.009-.017c-.266-.488-.517-.949-.774-1.41a5.514,5.514,0,0,1-.575-3.789,5.516,5.516,0,0,1,2.034-3.247l9.95-7.739a5.564,5.564,0,0,0,1.208-7.439l-1.846-2.769A47.58,47.58,0,0,1-1183.05-404a47.2,47.2,0,0,1,18.489,3.733,47.341,47.341,0,0,1,15.1,10.18,47.341,47.341,0,0,1,10.18,15.1,47.2,47.2,0,0,1,3.733,18.489,47.579,47.579,0,0,1-1.825,13.086l-2.762-1.841a5.516,5.516,0,0,0-3.065-.928,5.509,5.509,0,0,0-4.374,2.136l-7.739,9.949A5.476,5.476,0,0,1-1159.686-331.949Z" transform="translate(1244.55 435)"/>
      </g>
      <g id="picto-x-1">
        <path id="Soustraction_33" data-name="Soustraction 33" class="cls-3" d="M-1052.955-149.995h0c-8.025,0-16.828-2.369-26.163-7.042-12.139-6.076-25.218-16.08-38.872-29.734-34.532-34.531-38.723-58.168-36.158-71.916,9.916,23.7,26.686,46.979,48.5,67.319,18.945,17.666,40.228,31.61,61.549,40.325A36.824,36.824,0,0,1-1052.955-149.995Z" transform="translate(1161.318 283.451)"/>
      </g>
      <g id="picto-ligne">
        <path id="Tracé_240" data-name="Tracé 240" class="cls-4" d="M124.439,100.911l-14.069-9.38L97.863,83.194A5.54,5.54,0,0,0,90.424,84.4l-7.739,9.949a5.512,5.512,0,0,1-7.037,1.459C70.4,92.889,64.187,90.139,50.486,76.42S34.017,56.509,31.1,51.258a5.511,5.511,0,0,1,1.459-7.037L42.5,36.483a5.54,5.54,0,0,0,1.208-7.439l-8.08-12.122L26,2.468A5.54,5.54,0,0,0,18.537.789L7.424,7.456a13.578,13.578,0,0,0-6.166,7.98c-3.039,11.08-3.652,35.522,35.52,74.694s63.612,38.557,74.692,35.518a13.576,13.576,0,0,0,7.98-6.166l6.667-11.113A5.54,5.54,0,0,0,124.439,100.911Z" transform="translate(6.549 6.55)"/>
        <path id="Tracé_241" data-name="Tracé 241" class="cls-5" d="M340.114,110.6a48.858,48.858,0,0,0-48.8-48.8" transform="translate(-212.556 -47.158)"/>
        <path id="Tracé_242" data-name="Tracé 242" class="cls-5" d="M324.7,148.148a33.431,33.431,0,0,0-33.392-33.392" transform="translate(-212.555 -84.71)"/>
        <path id="Tracé_243" data-name="Tracé 243" class="cls-5" d="M309.29,185.7a18,18,0,0,0-17.98-17.98" transform="translate(-212.556 -122.265)"/>
      </g>
    </g>
  </g>
</svg>
