<svg xmlns="http://www.w3.org/2000/svg" xmlns:xlink="http://www.w3.org/1999/xlink" width="140" height="140" viewBox="0 0 140 140">
  <defs>
    <style>
      .cls-1 {
        clip-path: url(#clip-vacances);
      }

      .cls-2 {
        fill: #00c;
      }

      .cls-3 {
        fill: #6877ff;
      }

      .cls-4, .cls-5 {
        fill: none;
        stroke: #fff;
        stroke-linecap: round;
        stroke-width: 4px;
      }

      .cls-4 {
        stroke-linejoin: round;
        stroke-miterlimit: 10;
      }
    </style>
    <clipPath id="clip-vacances">
      <rect width="140" height="140"/>
    </clipPath>
  </defs>
  <g id="vacances" class="cls-1">
    <g id="Groupe_192" data-name="Groupe 192">
      <g id="picto-x-2">
        <path id="Tracé_370" data-name="Tracé 370" class="cls-2" d="M617.065-362.692a13.827,13.827,0,0,1-6.788,1.576c-3.048,0-7.633-2.1-11.633-5.259-2.845-.37-5.919-.69-9.186-.953a68.227,68.227,0,0,1-21.881,6.587,44.8,44.8,0,0,1-6.032.375H557.4l-40.912-.246a1.926,1.926,0,0,0-.492,1.2c0,4.835,23.037,8.754,51.454,8.754s51.454-3.919,51.454-8.754C618.907-360.574,619.473-361.679,617.065-362.692Z" transform="translate(-494.363 478.242)"/>
      </g>
      <g id="picto-x-1">
        <circle id="Ellipse_138" data-name="Ellipse 138" class="cls-3" cx="22" cy="22" r="22" transform="translate(21 13)"/>
      </g>
      <g id="picto-ligne">
        <g id="Groupe_185" data-name="Groupe 185" transform="translate(12.762 70.325)">
          <path id="Tracé_370-2" data-name="Tracé 370" class="cls-4" d="M616.062-369.539h-.022a1.769,1.769,0,0,0-1.765,1.86,16.884,16.884,0,0,1-.036,2.381.142.142,0,0,1-.2.128c-2.522-.831-7.49-3.955-9.409-7.195l-6.76-11.8c-2.95-4.916-17.206-10.692-20.525-11.553-4.425-.983-12.536,1.352-15.854,2.335a5.081,5.081,0,0,0-3.465,4.948.16.16,0,0,1-.254.139,8.393,8.393,0,0,0-2.057-1.154c-5.279-2.21-11.538.975-24.778,23.393a.166.166,0,0,1-.14.081H517.288a6.1,6.1,0,0,0-6.026,4.526A5.906,5.906,0,0,0,517-354.176l43.139.246h4.3a49.165,49.165,0,0,0,6.268-.369,76.11,76.11,0,0,0,28.044-9.162.147.147,0,0,1,.182.031c4.673,5,11.865,8.763,16.142,8.763a8.52,8.52,0,0,0,7.128-3.564c2.029-2.706,2.463-6.552,2.257-10.283a2.181,2.181,0,0,0-2.853-1.954A17.545,17.545,0,0,1,616.062-369.539Zm-56.043,3.81H544.656a96.512,96.512,0,0,1,8.112-11.184,110.707,110.707,0,0,1,8.6,11.184Zm7.866-11.184c-1.6-2.212-3.318-4.424-5.162-6.514a4.183,4.183,0,0,0,1.721-.246c4.179-1.352,9.218-2.335,10.57-2.089a46.375,46.375,0,0,1,8.357,3.441C579.069-380.723,573.047-378.634,567.885-376.913Z" transform="translate(-511.104 400.552)"/>
          <ellipse id="Ellipse_137" data-name="Ellipse 137" class="cls-4" cx="10.055" cy="11.323" rx="10.055" ry="11.323" transform="translate(103.055 0) rotate(41)"/>
        </g>
        <g id="Groupe_186" data-name="Groupe 186" transform="translate(14.029 11.699)">
          <path id="Tracé_372" data-name="Tracé 372" class="cls-4" d="M497.743-497.286A16.721,16.721,0,0,1,500.1-488.7a16.8,16.8,0,0,1-16.8,16.8,16.8,16.8,0,0,1-16.8-16.8,16.8,16.8,0,0,1,16.8-16.8,16.722,16.722,0,0,1,8.42,2.259" transform="translate(-462.062 505.5)"/>
          <line id="Ligne_142" data-name="Ligne 142" class="cls-5" x2="19.653" y2="1.902" transform="translate(44.853 17.91)"/>
          <line id="Ligne_143" data-name="Ligne 143" class="cls-5" x2="8.559" y2="8.876" transform="translate(37.562 34.076)"/>
          <line id="Ligne_145" data-name="Ligne 145" class="cls-5" x1="0.317" y2="11.728" transform="translate(19.811 40.732)"/>
          <line id="Ligne_144" data-name="Ligne 144" class="cls-5" x1="8.559" y2="8.876" transform="translate(-4.913 33.125)"/>
        </g>
      </g>
    </g>
  </g>
</svg>
