<svg xmlns="http://www.w3.org/2000/svg" xmlns:xlink="http://www.w3.org/1999/xlink" width="140" height="140" viewBox="0 0 140 140">
  <defs>
    <style>
      .cls-1 {
        clip-path: url(#clip-virus-2);
      }

      .cls-2 {
        fill: #00c;
      }

      .cls-3 {
        fill: #6877ff;
      }

      .cls-4, .cls-5 {
        fill: none;
        stroke: #fff;
        stroke-linecap: round;
        stroke-miterlimit: 10;
        stroke-width: 4px;
      }

      .cls-4 {
        stroke-linejoin: round;
      }
    </style>
    <clipPath id="clip-virus-2">
      <rect width="140" height="140"/>
    </clipPath>
  </defs>
  <g id="virus-2" class="cls-1">
    <g id="Groupe_113" data-name="Groupe 113">
      <path id="picto-x-2" class="cls-2" d="M-445.5,51a56.146,56.146,0,0,1-21.992-4.44,56.313,56.313,0,0,1-17.959-12.108A56.312,56.312,0,0,1-497.56,16.492,56.147,56.147,0,0,1-502-5.5a56.146,56.146,0,0,1,4.44-21.992,56.313,56.313,0,0,1,12.108-17.959A56.313,56.313,0,0,1-467.492-57.56,56.145,56.145,0,0,1-445.5-62a56.147,56.147,0,0,1,21.993,4.44,56.312,56.312,0,0,1,17.959,12.108A56.311,56.311,0,0,1-393.44-27.492,56.147,56.147,0,0,1-389-5.5a56.147,56.147,0,0,1-4.44,21.992,56.311,56.311,0,0,1-12.108,17.959A56.311,56.311,0,0,1-423.508,46.56,56.147,56.147,0,0,1-445.5,51Zm.419-94.585a36.871,36.871,0,0,0-36.83,36.829,36.871,36.871,0,0,0,36.83,36.83,36.871,36.871,0,0,0,36.83-36.83A36.871,36.871,0,0,0-445.081-43.585Z" transform="translate(516 77)"/>
      <path id="picto-x-1" class="cls-3" d="M-464.7,23a36.935,36.935,0,0,1-14.519-2.943,37.169,37.169,0,0,1-11.857-8.027A37.34,37.34,0,0,1-499.069.124,37.354,37.354,0,0,1-502-14.456a37.45,37.45,0,0,1,2.382-13.2,37.357,37.357,0,0,1,6.565-11.14A37.392,37.392,0,0,1-483.174-47a36.869,36.869,0,0,1,12.323-4.4A76.838,76.838,0,0,0-471.9-38.717a75.955,75.955,0,0,0,25.587,56.861,37.024,37.024,0,0,1-8.719,3.587A37.265,37.265,0,0,1-464.7,23Z" transform="translate(535 85)"/>
      <g id="picto-ligne" transform="translate(4.971 5.969)">
        <g id="Groupe_101" data-name="Groupe 101" transform="translate(0 0.001)">
          <g id="Groupe_100" data-name="Groupe 100">
            <path id="Tracé_145" data-name="Tracé 145" class="cls-4" d="M116.766,74.557a10.224,10.224,0,0,0-5.162,1.405l-9.2-3.5a38.342,38.342,0,0,0,.726-7.431A37.763,37.763,0,0,0,96.82,44.017l14.05-14.05a15.223,15.223,0,1,0-10.777-10.777L86.043,33.24a37.684,37.684,0,0,0-10.8-4.928l1.809-8.72a7.62,7.62,0,1,0-6.415-2.162,7.679,7.679,0,0,0,1.44,1.132l-1.811,8.725a38.69,38.69,0,0,0-5.241-.359A38.172,38.172,0,0,0,38.292,37.886L20.309,24.9a10.151,10.151,0,1,0-7.433,10.3L30.849,48.178a38.061,38.061,0,0,0-2.711,26.358l-8.473,2.8a7.621,7.621,0,1,0-8,12.026,7.629,7.629,0,0,0,9.594-7.2l8.472-2.8a38.175,38.175,0,0,0,8.154,12.408L24.9,109.751a10.15,10.15,0,1,0,10.3,7.434L48.177,99.211a38.231,38.231,0,0,0,35.6-.98l7.665,11.681a7.617,7.617,0,1,0,4.246-2.79L88.026,95.445a38.1,38.1,0,0,0,9.865-11.112l9.2,3.5a10.161,10.161,0,1,0,9.676-13.277Z" transform="translate(0 -0.001)"/>
          </g>
        </g>
        <g id="Groupe_103" data-name="Groupe 103" transform="translate(38.458 40.832)">
          <g id="Groupe_102" data-name="Groupe 102">
            <path id="Tracé_146" data-name="Tracé 146" class="cls-5" d="M164,160.737a27.9,27.9,0,0,0-12.6,15.555" transform="translate(-151.395 -160.737)"/>
          </g>
        </g>
        <g id="Groupe_105" data-name="Groupe 105" transform="translate(79.001 73.673)">
          <g id="Groupe_104" data-name="Groupe 104">
            <path id="Tracé_147" data-name="Tracé 147" class="cls-5" d="M311,305.579a27.89,27.89,0,0,0,12.6-15.556" transform="translate(-311 -290.023)"/>
          </g>
        </g>
        <g id="Groupe_107" data-name="Groupe 107" transform="translate(65.03 40.832)">
          <g id="Groupe_106" data-name="Groupe 106">
            <path id="Tracé_148" data-name="Tracé 148" class="cls-4" d="M266.161,160.737A10.161,10.161,0,1,0,276.323,170.9,10.172,10.172,0,0,0,266.161,160.737Z" transform="translate(-256.001 -160.737)"/>
          </g>
        </g>
        <g id="Groupe_109" data-name="Groupe 109" transform="translate(44.564 73.62)">
          <g id="Groupe_108" data-name="Groupe 108">
            <path id="Tracé_149" data-name="Tracé 149" class="cls-4" d="M194.865,270.131a7.621,7.621,0,1,0,7.621,7.62A7.629,7.629,0,0,0,194.865,270.131Z" transform="translate(-187.244 -270.131)"/>
          </g>
        </g>
      </g>
    </g>
  </g>
</svg>
