<svg xmlns="http://www.w3.org/2000/svg" xmlns:xlink="http://www.w3.org/1999/xlink" width="140" height="140" viewBox="0 0 140 140">
  <defs>
    <style>.picto-x-1, .picto-x-1 path, .picto-x-1 ellipse, .picto-x-1 rect, .picto-x-1 line, .picto-x-1 rect, .picto-x-1 g{ fill: #373CF5; } .picto-x-2, .picto-x-2 path, .picto-x-2 ellipse, .picto-x-2 rect, .picto-x-2 line, .picto-x-2 rect, .picto-x-2 g { fill: #6877ff ; } .picto-ligne, .picto-ligne path, .picto-ligne ellipse, .picto-ligne rect, .picto-ligne line, .picto-ligne rect, .picto-ligne g { fill: none; stroke: #222222; stroke-linecap: round; stroke-linejoin: round; stroke-width: 4px; } .picto-x-1, .picto-x-1 path, .picto-x-1 ellipse, .picto-x-1 rect, .picto-x-1 line, .picto-x-1 rect, .picto-x-1 g{ fill: #373CF5; } .picto-x-2, .picto-x-2 path, .picto-x-2 ellipse, .picto-x-2 rect, .picto-x-2 line, .picto-x-2 rect, .picto-x-2 g { fill: #6877ff ; } .picto-ligne, .picto-ligne path, .picto-ligne ellipse, .picto-ligne rect, .picto-ligne line, .picto-ligne rect, .picto-ligne g { fill: none; stroke: #222222; stroke-linecap: round; stroke-linejoin: round; stroke-width: 4px; }.picto-x-1, .picto-x-1 path, .picto-x-1 ellipse, .picto-x-1 rect, .picto-x-1 line, .picto-x-1 rect, .picto-x-1 g{ fill: #373CF5; } .picto-x-2, .picto-x-2 path, .picto-x-2 ellipse, .picto-x-2 rect, .picto-x-2 line, .picto-x-2 rect, .picto-x-2 g { fill: #6877ff ; } .picto-ligne, .picto-ligne path, .picto-ligne ellipse, .picto-ligne rect, .picto-ligne line, .picto-ligne rect, .picto-ligne g { fill: none; stroke: #222222; stroke-linecap: round; stroke-linejoin: round; stroke-width: 4px; } .picto-x-1, .picto-x-1 path, .picto-x-1 ellipse, .picto-x-1 rect, .picto-x-1 line, .picto-x-1 rect, .picto-x-1 g{ fill: #373CF5; } .picto-x-2, .picto-x-2 path, .picto-x-2 ellipse, .picto-x-2 rect, .picto-x-2 line, .picto-x-2 rect, .picto-x-2 g { fill: #6877ff ; } .picto-ligne, .picto-ligne path, .picto-ligne ellipse, .picto-ligne rect, .picto-ligne line, .picto-ligne rect, .picto-ligne g { fill: none; stroke: #222222; stroke-linecap: round; stroke-linejoin: round; stroke-width: 4px; }</style>
    <clipPath class="clip-commerce">
      <rect width="140" height="140"/>
    </clipPath>
  </defs>
  <g class="commerce">
    <g class="Groupe_99" data-name="Groupe 99">
      <g class="picto-x-2">
        <path class="Tracé_143" data-name="Tracé 143" d="M0,0H44.13L20.608,37H0Z" transform="translate(24 72)"/>
        <path class="Tracé_144" data-name="Tracé 144" d="M591.692,543.911V504.045h25.121v39.866" transform="translate(-501.61 -431.934)"/>
      </g>
      <g class="picto-x-1">
        <path class="Intersection_4" data-name="Intersection 4" d="M-485.177-383.7l-3.861-1.873a17.92,17.92,0,0,1-8.255-15.079,1.932,1.932,0,0,1,.255-.958l15.32-26.811a6.071,6.071,0,0,1,5.26-3.052h21.252l-9.105,30.278s-.6,6.379-1.125,11.805a17.9,17.9,0,0,1-13.933,6.661A17.858,17.858,0,0,1-485.177-383.7Z" transform="translate(501.036 448.255)"/>
        <path class="Intersection_3" data-name="Intersection 3" d="M-435.743-390.768v-39.574h24.209l8.7,30.716-1.047,8.644q-.122-.224-.238-.452a17.943,17.943,0,0,1-15.993,9.835A17.936,17.936,0,0,1-435.743-390.768Z" transform="translate(505.743 447.122)"/>
      </g>
      <g class="picto-ligne">
        <path class="Tracé_137" data-name="Tracé 137" d="M123.548,94a17.92,17.92,0,0,0,8.254-15.08,1.932,1.932,0,0,0-.254-.958l-15.32-26.81a6.072,6.072,0,0,0-5.26-3.052H20.834a6.071,6.071,0,0,0-5.26,3.052L.254,77.959A1.933,1.933,0,0,0,0,78.917,17.92,17.92,0,0,0,8.254,94l3.861,1.873A17.9,17.9,0,0,0,33.916,87,17.92,17.92,0,0,0,65.9,87a17.92,17.92,0,0,0,31.985,0,17.906,17.906,0,0,0,21.8,8.864Z" transform="translate(3.743 -31.317)"/>
        <g class="Groupe_96" data-name="Groupe 96" transform="translate(13.938 71.556)">
          <line class="Ligne_69" data-name="Ligne 69" y2="48.933" transform="translate(0 0)"/>
          <line class="Ligne_70" data-name="Ligne 70" y2="48.933" transform="translate(112.139 0)"/>
        </g>
        <line class="Ligne_71" data-name="Ligne 71" x2="124.372" transform="translate(8.331 120.489)"/>
        <rect class="Rectangle_120" data-name="Rectangle 120" width="54" height="37" transform="translate(24 72)"/>
        <path class="Tracé_138" data-name="Tracé 138" d="M591.692,552.423V504.045h25.121v48.378" transform="translate(-501.61 -431.934)"/>
        <line class="Ligne_72" data-name="Ligne 72" x2="76.458" transform="translate(4.253 47.089)"/>
        <line class="Ligne_73" data-name="Ligne 73" x2="22.428" transform="translate(99.061 47.089)"/>
      </g>
    </g>
  </g>
</svg>
