<svg xmlns="http://www.w3.org/2000/svg" xmlns:xlink="http://www.w3.org/1999/xlink" width="140" height="140" viewBox="0 0 140 140">
  <defs>
    <style>.picto-x-1, .picto-x-1 path, .picto-x-1 ellipse, .picto-x-1 rect, .picto-x-1 line, .picto-x-1 rect, .picto-x-1 g{ fill: #373CF5; } .picto-x-2, .picto-x-2 path, .picto-x-2 ellipse, .picto-x-2 rect, .picto-x-2 line, .picto-x-2 rect, .picto-x-2 g { fill: #6877ff !important; } .picto-ligne, .picto-ligne path, .picto-ligne ellipse, .picto-ligne rect, .picto-ligne line, .picto-ligne rect, .picto-ligne g { fill: none; stroke: #222222; stroke-linecap: round; stroke-linejoin: round; stroke-width: 4px; } .picto-x-1, .picto-x-1 path, .picto-x-1 ellipse, .picto-x-1 rect, .picto-x-1 line, .picto-x-1 rect, .picto-x-1 g{ fill: #373CF5; } .picto-x-2, .picto-x-2 path, .picto-x-2 ellipse, .picto-x-2 rect, .picto-x-2 line, .picto-x-2 rect, .picto-x-2 g { fill: #6877ff !important; } .picto-ligne, .picto-ligne path, .picto-ligne ellipse, .picto-ligne rect, .picto-ligne line, .picto-ligne rect, .picto-ligne g { fill: none; stroke: #222222; stroke-linecap: round; stroke-linejoin: round; stroke-width: 4px; }.picto-x-1, .picto-x-1 path, .picto-x-1 ellipse, .picto-x-1 rect, .picto-x-1 line, .picto-x-1 rect, .picto-x-1 g{ fill: #373CF5; } .picto-x-2, .picto-x-2 path, .picto-x-2 ellipse, .picto-x-2 rect, .picto-x-2 line, .picto-x-2 rect, .picto-x-2 g { fill: #6877ff !important; } .picto-ligne, .picto-ligne path, .picto-ligne ellipse, .picto-ligne rect, .picto-ligne line, .picto-ligne rect, .picto-ligne g { fill: none; stroke: #222222; stroke-linecap: round; stroke-linejoin: round; stroke-width: 4px; } .picto-x-1, .picto-x-1 path, .picto-x-1 ellipse, .picto-x-1 rect, .picto-x-1 line, .picto-x-1 rect, .picto-x-1 g{ fill: #373CF5; } .picto-x-2, .picto-x-2 path, .picto-x-2 ellipse, .picto-x-2 rect, .picto-x-2 line, .picto-x-2 rect, .picto-x-2 g { fill: #6877ff !important; } .picto-ligne, .picto-ligne path, .picto-ligne ellipse, .picto-ligne rect, .picto-ligne line, .picto-ligne rect, .picto-ligne g { fill: none; stroke: #222222; stroke-linecap: round; stroke-linejoin: round; stroke-width: 4px; }</style>
    <clipPath class="clip-engagement">
      <rect width="140" height="140"/>
    </clipPath>
  </defs>
  <g class="engagement">
    <g class="Groupe_65" data-name="Groupe 65">
      <rect class="picto-x-2" width="23.926" height="64.445" transform="translate(10 70.984)"/>
      <path class="picto-x-1" d="M118.034-38.2h0a73.927,73.927,0,0,0,2.874-20.415v-4.416a8.129,8.129,0,0,0-7.764-8.152c-.075,0-.149,0-.224,0a8,8,0,0,0-7.99,7.989,32.519,32.519,0,0,1-1.62,11.045,24.456,24.456,0,0,1-6.247,9.505A30.724,30.724,0,0,1,86.841-53.489a30.34,30.34,0,0,1-2.857-7.062,30.594,30.594,0,0,1-1.01-7.813,30.308,30.308,0,0,1,2.4-11.872,30.4,30.4,0,0,1,6.537-9.695,30.4,30.4,0,0,1,9.695-6.536,30.308,30.308,0,0,1,11.872-2.4,30.309,30.309,0,0,1,11.872,2.4,30.4,30.4,0,0,1,9.695,6.536,30.4,30.4,0,0,1,6.536,9.695,30.309,30.309,0,0,1,2.4,11.872,30.381,30.381,0,0,1-1.988,10.856,30.39,30.39,0,0,1-5.476,9.135A30.491,30.491,0,0,1,118.035-38.2Z" transform="translate(-20.474 103.365)"/>
      <g class="picto-ligne">
        <path class="Rectangle_49" data-name="Rectangle 49" d="M0,0H21.926a10,10,0,0,1,10,10V54.445a10,10,0,0,1-10,10H0a0,0,0,0,1,0,0V0A0,0,0,0,1,0,0Z" transform="translate(10 70.983)"/>
        <line class="Ligne_42" data-name="Ligne 42" y2="21.836" transform="translate(28.197 98.199)"/>
        <line class="Ligne_43" data-name="Ligne 43" y2="2.663" transform="translate(28.197 84.758)"/>
        <path class="Tracé_86" data-name="Tracé 86" d="M316,261.909h34.618a7.989,7.989,0,0,1,0,15.978H337.3" transform="translate(-231.544 -190.49)"/>
        <path class="Tracé_87" data-name="Tracé 87" d="M209.8,153.835h0a73.939,73.939,0,0,0,5-26.733v-4.417a8.1,8.1,0,0,0-7.764-8.152,7.989,7.989,0,0,0-8.213,7.986c0,16.093-6.794,26.025-42.53,38.024" transform="translate(-114.363 -82.358)"/>
        <path class="Tracé_88" data-name="Tracé 88" d="M388.08,322a7.989,7.989,0,1,1,0,15.978H374.236" transform="translate(-274.272 -234.579)"/>
        <path class="Tracé_89" data-name="Tracé 89" d="M367.688,382.091a7.989,7.989,0,1,1,0,15.978l-13.524.024" transform="translate(-259.545 -278.668)"/>
        <path class="Tracé_90" data-name="Tracé 90" d="M216.836,442.182a7.989,7.989,0,1,1,0,15.978l-27.144.026h-3.8a76.668,76.668,0,0,1-21.024-2.939l-8.582-2.447" transform="translate(-114.363 -322.757)"/>
        <line class="Ligne_44" data-name="Ligne 44" x2="11.736" transform="translate(59.526 37.89)"/>
        <line class="Ligne_45" data-name="Ligne 45" x2="11.14" transform="translate(113.808 37.89)"/>
        <line class="Ligne_46" data-name="Ligne 46" y1="13.247" transform="translate(92.445 3.964)"/>
        <line class="Ligne_47" data-name="Ligne 47" y1="7.902" x2="7.902" transform="translate(107.285 15.12)"/>
        <line class="Ligne_48" data-name="Ligne 48" x1="7.902" y1="7.902" transform="translate(69.868 15.352)"/>
      </g>
    </g>
  </g>
</svg>
