<svg xmlns="http://www.w3.org/2000/svg" xmlns:xlink="http://www.w3.org/1999/xlink" viewBox="0 0 140 140">
  <defs>
    <style>.picto-x-1, .picto-x-1 path, .picto-x-1 ellipse, .picto-x-1 rect, .picto-x-1 line, .picto-x-1 rect, .picto-x-1 g{ fill: #373CF5; } .picto-x-2, .picto-x-2 path, .picto-x-2 ellipse, .picto-x-2 rect, .picto-x-2 line, .picto-x-2 rect, .picto-x-2 g { fill: #6877ff ; } .picto-ligne, .picto-ligne path, .picto-ligne ellipse, .picto-ligne rect, .picto-ligne line, .picto-ligne rect, .picto-ligne g { fill: none; stroke: #222222; stroke-linecap: round; stroke-linejoin: round; stroke-width: 4px; } .picto-x-1, .picto-x-1 path, .picto-x-1 ellipse, .picto-x-1 rect, .picto-x-1 line, .picto-x-1 rect, .picto-x-1 g{ fill: #373CF5; } .picto-x-2, .picto-x-2 path, .picto-x-2 ellipse, .picto-x-2 rect, .picto-x-2 line, .picto-x-2 rect, .picto-x-2 g { fill: #6877ff ; } .picto-ligne, .picto-ligne path, .picto-ligne ellipse, .picto-ligne rect, .picto-ligne line, .picto-ligne rect, .picto-ligne g { fill: none; stroke: #222222; stroke-linecap: round; stroke-linejoin: round; stroke-width: 4px; }.picto-x-1, .picto-x-1 path, .picto-x-1 ellipse, .picto-x-1 rect, .picto-x-1 line, .picto-x-1 rect, .picto-x-1 g{ fill: #373CF5; } .picto-x-2, .picto-x-2 path, .picto-x-2 ellipse, .picto-x-2 rect, .picto-x-2 line, .picto-x-2 rect, .picto-x-2 g { fill: #6877ff ; } .picto-ligne, .picto-ligne path, .picto-ligne ellipse, .picto-ligne rect, .picto-ligne line, .picto-ligne rect, .picto-ligne g { fill: none; stroke: #222222; stroke-linecap: round; stroke-linejoin: round; stroke-width: 4px; } .picto-x-1, .picto-x-1 path, .picto-x-1 ellipse, .picto-x-1 rect, .picto-x-1 line, .picto-x-1 rect, .picto-x-1 g{ fill: #373CF5; } .picto-x-2, .picto-x-2 path, .picto-x-2 ellipse, .picto-x-2 rect, .picto-x-2 line, .picto-x-2 rect, .picto-x-2 g { fill: #6877ff ; } .picto-ligne, .picto-ligne path, .picto-ligne ellipse, .picto-ligne rect, .picto-ligne line, .picto-ligne rect, .picto-ligne g { fill: none; stroke: #222222; stroke-linecap: round; stroke-linejoin: round; stroke-width: 4px; }</style>
    <clipPath class="clip-engrenage">
      <rect width="140" height="140"/>
    </clipPath>
  </defs>
  <g class="engrenage">
    <g class="Groupe_26" data-name="Groupe 26">
      <path class="picto-x-1" d="M546.6-213.806a30.4,30.4,0,0,1-11.91-2.4,30.5,30.5,0,0,1-9.726-6.557,30.5,30.5,0,0,1-6.557-9.726A30.405,30.405,0,0,1,516-244.4a30.405,30.405,0,0,1,2.4-11.91,30.5,30.5,0,0,1,6.557-9.726,30.5,30.5,0,0,1,9.726-6.557A30.405,30.405,0,0,1,546.6-275a30.405,30.405,0,0,1,11.91,2.4,30.493,30.493,0,0,1,9.725,6.557,30.494,30.494,0,0,1,6.557,9.726,30.407,30.407,0,0,1,2.4,11.91,30.407,30.407,0,0,1-2.4,11.91,30.5,30.5,0,0,1-6.557,9.726,30.493,30.493,0,0,1-9.725,6.557A30.4,30.4,0,0,1,546.6-213.806Zm0-41.793a11.209,11.209,0,0,0-11.2,11.2,11.209,11.209,0,0,0,11.2,11.2,11.209,11.209,0,0,0,11.2-11.2A11.209,11.209,0,0,0,546.6-255.6Z" transform="translate(-492.222 297.6)"/>
      <circle class="picto-x-2" cx="16.759" cy="16.759" r="16.759" transform="translate(87.799 87.298)"/>
      <g class="picto-ligne" transform="translate(3 2.095)">
        <circle class="Ellipse_17" data-name="Ellipse 17" cx="11.196" cy="11.196" r="11.196" transform="translate(40.179 39.906)"/>
        <path class="Tracé_45" data-name="Tracé 45" d="M17.874,279.61a22.653,22.653,0,0,1,36.111,25.944" transform="translate(17.979 -245.007)"/>
        <path class="Tracé_46" data-name="Tracé 46" d="M48.528,310.608a22.652,22.652,0,0,1-34.584-26.082" transform="translate(16.142 -241.167)"/>
        <path class="Tracé_47" data-name="Tracé 47" d="M75.2,320.52a36.646,36.646,0,0,0,2.715-6.771l12.787-2.42a3.419,3.419,0,0,0,2.781-3.358v-9.044a3.419,3.419,0,0,0-2.781-3.358L77.926,293.15a36.737,36.737,0,0,0-3.133-7.561l7.889-11.572a2.2,2.2,0,0,0-.263-2.791L74.594,263.4a2.195,2.195,0,0,0-2.789-.261l-11.567,7.883a36.824,36.824,0,0,0-7.57-3.14l-2.606-13.761a2.2,2.2,0,0,0-2.158-1.787H36.836a2.2,2.2,0,0,0-2.158,1.787l-2.606,13.761a36.813,36.813,0,0,0-7.568,3.14l-11.568-7.883a2.195,2.195,0,0,0-2.789.261l-7.825,7.825a2.2,2.2,0,0,0-.263,2.791l7.889,11.572a36.808,36.808,0,0,0-3.132,7.561l-13.773,2.608a2.2,2.2,0,0,0-1.787,2.158v11.067a2.2,2.2,0,0,0,1.787,2.158l13.78,2.609A36.814,36.814,0,0,0,9.955,321.3L2.629,332.047a3.417,3.417,0,0,0,.407,4.341l6.4,6.4a3.419,3.419,0,0,0,4.341.408l10.754-7.33a36.832,36.832,0,0,0,7.541,3.126l2.423,12.8a3.419,3.419,0,0,0,3.358,2.781h9.044a3.419,3.419,0,0,0,3.358-2.781l2.423-12.8a36.9,36.9,0,0,0,6.811-2.733" transform="translate(8.745 -252.334)"/>
        <path class="Tracé_48" data-name="Tracé 48" d="M44.6,331.18l-2.02.383a1.448,1.448,0,0,0-1.177,1.422v7.291a1.446,1.446,0,0,0,1.177,1.421l9.077,1.719a24.285,24.285,0,0,0,2.065,4.973l-4.826,7.079a2.249,2.249,0,0,0,.268,2.859l4.213,4.213a2.249,2.249,0,0,0,2.859.268l7.083-4.827a24.3,24.3,0,0,0,4.967,2.059l1.6,8.429a2.25,2.25,0,0,0,2.212,1.832h5.957a2.252,2.252,0,0,0,2.213-1.832l1.6-8.429a24.3,24.3,0,0,0,4.967-2.059l7.083,4.827a2.25,2.25,0,0,0,2.859-.268l4.213-4.213a2.251,2.251,0,0,0,.268-2.859l-4.826-7.079a24.206,24.206,0,0,0,2.063-4.973l9.078-1.719a1.446,1.446,0,0,0,1.177-1.421v-7.291a1.448,1.448,0,0,0-1.177-1.422l-9.074-1.717a24.24,24.24,0,0,0-2.062-4.981l5.2-7.623a1.447,1.447,0,0,0-.172-1.837L96.3,310.248a1.447,1.447,0,0,0-1.837-.172l-7.619,5.194a24.227,24.227,0,0,0-4.986-2.067l-1.716-9.066a1.448,1.448,0,0,0-1.422-1.177H71.427a1.446,1.446,0,0,0-1.421,1.177L68.29,313.2A24.227,24.227,0,0,0,63.3,315.27l-7.619-5.194a1.449,1.449,0,0,0-1.839.172L48.691,315.4a1.445,1.445,0,0,0-.172,1.837l5.2,7.623a24.244,24.244,0,0,0-2.063,4.981" transform="translate(26.14 -234.773)"/>
        <path class="Tracé_49" data-name="Tracé 49" d="M74.781,337.4a9.728,9.728,0,1,1,3.508-7.48" transform="translate(32.919 -228.063)"/>
      </g>
    </g>
  </g>
</svg>
