<svg xmlns="http://www.w3.org/2000/svg" width="483.663" height="571.219" viewBox="0 0 483.663 571.219">
  <path id="Intersection_9" data-name="Intersection 9" d="M-3014.309-9790.83l151.735,151.735Zm0,25,126.732,126.731Zm0-50,175.118,175.119Zm0,75,99.716,99.716Zm0-100,197.125,197.124Zm0,125,69.987,69.986Zm0-150,217.933,217.933Zm0-25,237.681,237.682Zm0,200,36.275,36.274Zm0-225,256.472,256.473Zm0-25,274.391,274.391Zm0-25,291.5,291.5Zm0-25,307.846,307.847Zm0-25,323.469,323.469Zm0-25,338.4,338.4Zm0-25,352.659,352.66Zm0-25,366.266,366.266Zm0-25,379.227,379.227Zm0-25,391.548,391.548Zm0-25,403.227,403.227Zm0-25,414.258,414.258Zm7.639-17.359,416.984,416.984Zm25,0,401.67,401.67Zm25,0,385.646,385.646Zm25,0,368.88,368.881Zm25,0,351.325,351.327Zm25,0,332.927,332.93Zm25,0,313.614,313.612Zm25,0,293.288,293.286Zm25,0,271.826,271.828Zm25,0,248.9,248.906Zm25,0,223.9,223.9Zm25,0,198.74,198.74Zm25,0,170.292,170.291Zm25,0,138.514,138.515Zm25,0,101.423,101.424Zm25,0,52.88,52.88Z" transform="translate(3015.37 10209.253)" fill="rgba(0,0,0,0)" stroke="#009" stroke-linecap="round" stroke-width="3" opacity="0.34"/>
</svg>
